<svg width="22" height="18" viewBox="0 0 22 18" fill="none" xmlns="http://www.w3.org/2000/svg">
<path d="M20.7739 13.8359H20.2526H18.8273H16.7264H14.1527H11.346H8.51154H5.86859H3.62683H2.02174C1.76814 13.8359 1.51198 13.8335 1.25838 13.8359H1.22616C1.57204 14.1818 1.91812 14.5279 2.26401 14.8738V11.5182C2.26401 11.3244 2.25248 11.1261 2.27793 10.9346C2.2664 11.0269 2.25248 11.1192 2.24094 11.2113C2.25706 11.0983 2.28709 10.9921 2.33085 10.8861C2.29624 10.969 2.26163 11.0522 2.22703 11.1329C2.27537 11.0221 2.33543 10.9185 2.40922 10.8216C2.35612 10.8909 2.30082 10.9623 2.24772 11.0315C2.31694 10.9462 2.39311 10.8678 2.48063 10.7986C2.41142 10.8517 2.34001 10.907 2.27079 10.9601C2.36766 10.8863 2.4691 10.8262 2.58207 10.7779C2.49913 10.8125 2.41599 10.8471 2.33525 10.8817C2.44126 10.8401 2.54746 10.8103 2.66044 10.7918C2.56815 10.8033 2.47587 10.8172 2.38377 10.8288C2.58208 10.8033 2.78734 10.8149 2.98804 10.8149H4.19873H6.02301H8.25083H10.707H13.1747H15.4833H17.416H18.7975H19.4203C19.4895 10.8149 19.5587 10.8194 19.6279 10.8288C19.5356 10.8172 19.4433 10.8033 19.3512 10.7918C19.4642 10.8079 19.5704 10.8379 19.6764 10.8817C19.5935 10.8471 19.5103 10.8125 19.4296 10.7779C19.5404 10.8262 19.644 10.8863 19.7409 10.9601C19.6717 10.907 19.6003 10.8517 19.531 10.7986C19.6164 10.8678 19.6947 10.944 19.764 11.0315C19.7108 10.9623 19.6556 10.8909 19.6025 10.8216C19.6762 10.9185 19.7363 11.02 19.7846 11.1329C19.75 11.05 19.7154 10.9668 19.6808 10.8861C19.7224 10.9921 19.7522 11.0983 19.7707 11.2113C19.7592 11.119 19.7453 11.0267 19.7337 10.9346C19.7544 11.0983 19.7477 11.2668 19.7477 11.4329V12.3207V14.3871V14.8714C19.7477 15.1365 19.863 15.4179 20.0522 15.6047C20.232 15.7845 20.5273 15.9208 20.7855 15.9092C21.053 15.8977 21.3321 15.81 21.5189 15.6047C21.7057 15.4019 21.8234 15.1526 21.8234 14.8714V11.9494C21.8234 11.4905 21.8534 11.0177 21.7566 10.5656C21.5282 9.49556 20.4973 8.74594 19.4249 8.74373C18.9867 8.74135 18.5508 8.74373 18.1126 8.74373H15.2067H11.4844H7.66058H4.49413H2.7321C2.26847 8.74373 1.81878 8.82449 1.40605 9.05282C0.845565 9.3641 0.382112 9.95919 0.262206 10.5957C0.216063 10.8401 0.202332 11.0708 0.202332 11.3153V14.5879V14.8693C0.202332 15.4298 0.677504 15.9072 1.24019 15.9072H1.76149H3.18677H5.28771H7.86143H10.6681H13.5026H16.1455H18.3873H19.9923C20.246 15.9072 20.5021 15.9096 20.7557 15.9072H20.7879C21.0531 15.9072 21.3345 15.7918 21.5213 15.6027C21.7011 15.4229 21.8373 15.1275 21.8258 14.8693C21.8143 14.6018 21.7266 14.3228 21.5213 14.136C21.3069 13.9534 21.0555 13.8359 20.7741 13.8359L20.7739 13.8359Z" fill="#6D9773"/>
<path d="M19.1112 8.74641H18.6776H17.4968H15.7509H13.6223H11.2885H8.93374H6.73811H4.88163H3.5486C3.33876 8.74641 3.12654 8.74403 2.91672 8.74641H2.88907L3.92693 9.78427V7.50572V3.95185C3.92693 3.64277 3.90148 3.31758 3.94304 3.00868C3.93151 3.10097 3.91759 3.19325 3.90606 3.28535C3.92675 3.1515 3.96136 3.02479 4.01207 2.90028C3.97747 2.98322 3.94286 3.06636 3.90826 3.1471C3.96355 3.01801 4.03515 2.8957 4.12047 2.78273C4.06737 2.85194 4.01207 2.92335 3.95897 2.99257C4.03973 2.89112 4.13201 2.79884 4.23345 2.71809C4.16424 2.77119 4.09283 2.82649 4.02361 2.87959C4.13659 2.79426 4.25652 2.72285 4.38799 2.66737C4.30504 2.70198 4.22191 2.73659 4.14116 2.77119C4.26567 2.72047 4.39477 2.68586 4.52623 2.66517C4.43394 2.67671 4.34166 2.69062 4.24956 2.70216C4.42479 2.67909 4.60479 2.68605 4.78239 2.68605H5.71403H8.85977H12.6905H15.993C16.5028 2.68605 17.0124 2.68367 17.5221 2.68605C17.6005 2.68605 17.6767 2.69062 17.755 2.70216C17.6627 2.69062 17.5705 2.67671 17.4784 2.66517C17.6122 2.68586 17.7389 2.72047 17.8634 2.77119C17.7805 2.73658 17.6974 2.70197 17.6166 2.66737C17.7457 2.72267 17.868 2.79426 17.981 2.87959C17.9118 2.82649 17.8404 2.77119 17.7711 2.71809C17.8726 2.79884 17.9649 2.89112 18.0456 2.99257C17.9925 2.92335 17.9372 2.85194 17.8841 2.78273C17.9695 2.8957 18.0409 3.01564 18.0963 3.1471C18.0617 3.06416 18.0271 2.98103 17.9925 2.90028C18.0432 3.02479 18.0779 3.15388 18.0985 3.28535C18.087 3.19306 18.0731 3.10078 18.0616 3.00868C18.0962 3.26924 18.0777 3.54371 18.0777 3.80663V5.35407V8.95191V9.77991C18.0777 10.045 18.193 10.3265 18.3822 10.5133C18.562 10.6931 18.8573 10.8293 19.1155 10.8178C19.383 10.8062 19.6621 10.7185 19.8489 10.5133C20.0357 10.3104 20.1534 10.0612 20.1534 9.77991V7.17854V3.58069C20.1534 2.96949 20.1003 2.36068 19.7474 1.83019C19.367 1.25818 18.7697 0.787787 18.0801 0.670225C17.8748 0.635618 17.6742 0.610352 17.4667 0.610352H15.3634H11.5119H7.47135H4.80075C4.48947 0.610352 4.19887 0.614929 3.88523 0.679567C3.20025 0.817993 2.59139 1.29297 2.23162 1.88111C1.98022 2.29164 1.86028 2.77596 1.85808 3.25568C1.8557 4.22669 1.85808 5.19991 1.85808 6.17074V9.58164V9.77995C1.85808 10.3404 2.33326 10.8178 2.89594 10.8178H3.32954H4.51037H6.25627H8.38487H10.7187H13.0734H15.2691H17.1256H18.4586C18.6684 10.8178 18.8806 10.8202 19.0905 10.8178H19.1181C19.3832 10.8178 19.6647 10.7025 19.8515 10.5133C20.0313 10.3335 20.1675 10.0381 20.156 9.77994C20.1444 9.51243 20.0567 9.23338 19.8515 9.04659C19.6418 8.86403 19.3928 8.74648 19.1114 8.74648L19.1112 8.74641Z" fill="#6D9773"/>
<path d="M8.57373 8.05944V9.78448C8.91962 9.4386 9.2657 9.09251 9.6116 8.74662H8.23244H6.03006H5.5181C5.86398 9.09251 6.21006 9.43859 6.55595 9.78448V8.87572C6.55595 8.56663 6.52831 8.24145 6.56511 7.93254C6.55357 8.02483 6.53966 8.11712 6.52812 8.20922C6.53966 8.12627 6.56273 8.04772 6.59276 7.97173C6.55815 8.05467 6.52354 8.13781 6.48894 8.21855C6.52117 8.14476 6.56273 8.07555 6.61125 8.01091C6.55815 8.08013 6.50286 8.15154 6.44976 8.22075C6.50047 8.1585 6.55577 8.10082 6.62041 8.0501C6.55119 8.1032 6.47978 8.1585 6.41057 8.2116C6.4752 8.16326 6.54442 8.12169 6.61821 8.08928C6.53527 8.12389 6.45213 8.1585 6.37139 8.1931C6.44976 8.16087 6.52813 8.14 6.60887 8.12846C6.51659 8.14 6.4243 8.15392 6.3322 8.16545C6.61125 8.13322 6.90183 8.1563 7.18087 8.1563H8.43094C8.55325 8.1563 8.67776 8.14934 8.7999 8.16545C8.70761 8.15392 8.61532 8.14 8.52322 8.12846C8.60617 8.14 8.68472 8.16307 8.76071 8.1931C8.67777 8.15849 8.59463 8.12388 8.51389 8.08928C8.58768 8.12151 8.65689 8.16307 8.72153 8.2116C8.65231 8.1585 8.5809 8.1032 8.51169 8.0501C8.57394 8.10082 8.63162 8.15612 8.68234 8.22075C8.62924 8.15154 8.57394 8.08013 8.52084 8.01091C8.56918 8.07555 8.61075 8.14476 8.64316 8.21855C8.60855 8.13561 8.57394 8.05247 8.53934 7.97173C8.57157 8.0501 8.59244 8.12847 8.60398 8.20922C8.59244 8.11693 8.57853 8.02464 8.56699 7.93254C8.56919 7.97411 8.57373 8.01549 8.57373 8.05944C8.57831 8.32933 8.68674 8.60141 8.87827 8.7928C9.05808 8.9726 9.35344 9.10884 9.61163 9.0973C9.87914 9.08576 10.1582 8.99806 10.345 8.7928C10.5296 8.59211 10.6541 8.33851 10.6495 8.05944C10.638 7.36292 10.276 6.70794 9.66934 6.3529C9.33499 6.1568 8.96363 6.08301 8.58076 6.08301H7.19007H6.57427C6.19836 6.08301 5.85249 6.15442 5.51335 6.32507C5.2158 6.47504 4.97593 6.72644 4.79157 7.00073C4.59785 7.28894 4.5149 7.62567 4.48487 7.96697C4.47333 8.11693 4.48029 8.26909 4.48029 8.41905V9.78907C4.48029 10.3496 4.95546 10.8269 5.51815 10.8269H6.89731H9.09968H9.61165C10.1721 10.8269 10.6495 10.3518 10.6495 9.78907V8.06402C10.6495 7.79889 10.5342 7.51746 10.345 7.33066C10.1652 7.15085 9.86983 7.01462 9.61164 7.02616C9.34413 7.03769 9.06508 7.1254 8.87828 7.33066C8.69152 7.52897 8.57373 7.778 8.57373 8.05944Z" fill="#6D9773"/>
<path d="M15.4419 8.05944V9.78448C15.7878 9.4386 16.1338 9.09251 16.4797 8.74662H15.1006H12.8982H12.3862C12.7321 9.09251 13.0782 9.43859 13.4241 9.78448V8.87572C13.4241 8.56663 13.3964 8.24145 13.4332 7.93254C13.4217 8.02483 13.4078 8.11712 13.3963 8.20922C13.4078 8.12627 13.4309 8.04772 13.4609 7.97173C13.4263 8.05467 13.3917 8.13781 13.3571 8.21855C13.3893 8.14476 13.4309 8.07555 13.4794 8.01091C13.4263 8.08013 13.371 8.15154 13.3179 8.22075C13.3686 8.1585 13.4239 8.10082 13.4885 8.0501C13.4193 8.1032 13.3479 8.1585 13.2787 8.2116C13.3433 8.16326 13.4126 8.12169 13.4863 8.08928C13.4034 8.12389 13.3203 8.1585 13.2395 8.1931C13.3179 8.16087 13.3963 8.14 13.477 8.12846C13.3847 8.14 13.2924 8.15392 13.2003 8.16545C13.4794 8.13322 13.77 8.1563 14.049 8.1563H15.2991C15.4214 8.1563 15.5459 8.14934 15.668 8.16545C15.5757 8.15392 15.4835 8.14 15.3914 8.12846C15.4743 8.14 15.5529 8.16307 15.6288 8.1931C15.5459 8.15849 15.4628 8.12388 15.382 8.08928C15.4558 8.12151 15.525 8.16307 15.5897 8.2116C15.5204 8.1585 15.449 8.1032 15.3798 8.0501C15.4421 8.10082 15.4998 8.15612 15.5505 8.22075C15.4974 8.15154 15.4421 8.08013 15.389 8.01091C15.4373 8.07555 15.4789 8.14476 15.5113 8.21855C15.4767 8.13561 15.4421 8.05247 15.4075 7.97173C15.4397 8.0501 15.4606 8.12847 15.4721 8.20922C15.4606 8.11693 15.4467 8.02464 15.4351 7.93254C15.4395 7.97411 15.4419 8.01549 15.4419 8.05944C15.4464 8.32933 15.5549 8.60141 15.7464 8.7928C15.9262 8.9726 16.2216 9.10884 16.4798 9.0973C16.7473 9.08576 17.0263 8.99806 17.2131 8.7928C17.3977 8.59211 17.5222 8.33851 17.5176 8.05944C17.5061 7.36292 17.1441 6.70794 16.5375 6.3529C16.2031 6.1568 15.8318 6.08301 15.4489 6.08301H14.0582H13.4424C13.0665 6.08301 12.7206 6.15442 12.3815 6.32507C12.0839 6.47504 11.8441 6.72644 11.6597 7.00073C11.466 7.28894 11.383 7.62567 11.353 7.96697C11.3415 8.11693 11.3484 8.26909 11.3484 8.41905V9.78907C11.3484 10.3496 11.8236 10.8269 12.3863 10.8269H13.7654H15.9678H16.4798C17.0403 10.8269 17.5176 10.3518 17.5176 9.78907V8.06402C17.5176 7.79889 17.4023 7.51746 17.2131 7.33066C17.0333 7.15085 16.738 7.01462 16.4798 7.02616C16.2123 7.03769 15.9332 7.1254 15.7464 7.33066C15.5595 7.52897 15.4419 7.778 15.4419 8.05944Z" fill="#6D9773"/>
<path d="M2.2639 16.3476V14.8716C2.2639 14.6064 2.14854 14.325 1.95939 14.1382C1.77959 13.9584 1.48422 13.8222 1.22604 13.8337C0.95852 13.8452 0.679473 13.9329 0.492676 14.1382C0.305908 14.3411 0.188171 14.5903 0.188171 14.8716V16.3476C0.188171 16.6127 0.303526 16.8941 0.492676 17.0809C0.672484 17.2607 0.967849 17.397 1.22604 17.3854C1.49355 17.3739 1.7726 17.2862 1.95939 17.0809C2.14616 16.878 2.2639 16.629 2.2639 16.3476Z" fill="#6D9773"/>
<path d="M19.7361 14.874V16.35C19.7361 16.6151 19.8514 16.8966 20.0406 17.0834C20.2204 17.2632 20.5158 17.3994 20.7739 17.3879C21.0415 17.3763 21.3205 17.2886 21.5073 17.0834C21.6941 16.8805 21.8118 16.6313 21.8118 16.35V14.874C21.8118 14.6089 21.6965 14.3274 21.5073 14.1406C21.3275 13.9608 21.0321 13.8246 20.7739 13.8361C20.5064 13.8477 20.2274 13.9354 20.0406 14.1406C19.8538 14.3435 19.7361 14.5925 19.7361 14.874Z" fill="#6D9773"/>
</svg>
