<svg width="24" height="24" viewBox="0 0 24 24" fill="none" xmlns="http://www.w3.org/2000/svg">
<path d="M17 9H18H17ZM12 4V5C14.2091 5 16 6.79086 16 9H17H18C18 5.68629 15.3137 3 12 3V4ZM17 9H16V11.76H17H18V9H17ZM18.1752 13.9365L17.4507 14.6258C17.7921 14.9846 18 15.4666 18 16H19H20C20 14.9327 19.5803 13.9625 18.8996 13.2471L18.1752 13.9365ZM18 17V16H6V17V18H18V17ZM5 16H6C6 15.4666 6.20789 14.9846 6.54929 14.6258L5.82484 13.9365L5.10038 13.2471C4.41966 13.9625 4 14.9327 4 16H5ZM7 11.76H8V9H7H6V11.76H7ZM7 9H8C8 6.79086 9.79086 5 12 5V4V3C8.68629 3 6 5.68629 6 9H7ZM6 17V16H6H5H4C4 17.1046 4.89543 18 6 18V17ZM19 16H18V17V18C19.1046 18 20 17.1046 20 16H19ZM5.82484 13.9365L6.54929 14.6258C7.10988 14.0366 8 13.0536 8 11.76H7H6C6 12.1612 5.70804 12.6085 5.10038 13.2471L5.82484 13.9365ZM17 11.76H16C16 13.0536 16.8901 14.0366 17.4507 14.6258L18.1752 13.9365L18.8996 13.2471C18.292 12.6085 18 12.1612 18 11.76H17Z" fill="#6D9773"/>
<path d="M13.7976 19.8767C13.6312 20.2179 13.3712 20.5046 13.048 20.7035C12.7247 20.9023 12.3516 21.0051 11.9721 20.9998C11.5926 20.9945 11.2224 20.8813 10.9049 20.6735C10.5873 20.4657 10.3354 20.1718 10.1786 19.8262" stroke="#6D9773" stroke-width="2" stroke-linecap="round" stroke-linejoin="round"/>
<path d="M12 3V4" stroke="#6D9773" stroke-width="2" stroke-linecap="round" stroke-linejoin="round"/>
</svg>
