<svg width="24" height="24" viewBox="0 0 24 24" fill="none" xmlns="http://www.w3.org/2000/svg">
<path d="M10.5328 13.6819L10.3539 12.8588L5.55905 12.859C5.80954 13.0022 5.88114 13.2168 5.88114 13.3241C5.88114 13.4672 5.80954 13.6103 5.73795 13.6818C5.63065 13.968 5.27286 14.0755 4.98649 14.0755C4.59282 14.0755 4.41392 14.0398 4.23504 13.8607C4.05615 13.646 4.05615 13.3597 4.09185 13.2524C4.09185 13.1451 4.09185 13.0019 4.05615 12.8588L1.83765 12.8589V14.6122H6.20307V22.4126H7.95629V14.6478H12.3217V13.5743C12.2144 13.6459 12.0712 13.6816 11.928 13.6816C11.5704 14.0038 10.9622 13.8606 10.5328 13.6817L10.5328 13.6819Z" fill="#2D2D2D"/>
<path d="M12 5.80968C12 5.66649 12.0716 5.55919 12.1432 5.48759C12.1432 5.45189 12.1789 5.45189 12.2148 5.416H12.1075C11.7497 5.34441 11.3919 5.5949 11.3203 5.98858C11.3203 6.09588 11.3203 6.20336 11.356 6.31066C11.642 6.06017 11.8568 5.88129 12 5.80968Z" fill="#2D2D2D"/>
<path d="M15.292 6.41812C15.2563 6.56131 15.3636 6.95479 15.0058 7.2412L16.5087 6.91911V5.84558C16.5087 5.70239 16.5444 5.59509 16.6519 5.5235L14.8628 5.91717L14.3977 5.84558C14.4334 5.91717 14.4334 5.98877 14.4693 6.06036C14.7553 6.16766 15.0772 6.31063 15.292 6.41812Z" fill="#2D2D2D"/>
<path d="M3.44807 8.85094C3.44807 8.85094 3.94907 8.88664 4.66461 8.06377C4.66461 8.06377 4.91511 7.92058 5.05829 8.06377C5.05829 8.06377 4.44999 8.31426 5.094 9.85289C5.094 9.85289 5.2013 10.8189 4.44984 11.6061C4.34254 11.7134 4.27094 11.8566 4.30665 12.0355C4.37824 12.3576 4.44984 12.93 4.48554 13.2879C4.48554 13.2879 4.41395 13.753 4.77174 13.7173C4.77174 13.7173 5.52319 13.8246 5.52319 13.5384C5.52319 13.5384 5.80939 13.3595 5.4516 13.1806C5.4516 13.1806 4.66443 13.2164 5.1654 11.9282C5.1654 11.9282 6.34623 10.6044 6.41786 9.99587C6.41786 9.99587 6.77565 9.31599 8.09969 9.63808C8.09969 9.63808 9.74561 10.5685 10.6044 10.2822V12.5723C10.6044 12.5723 10.7833 12.6439 10.7833 12.8585L10.9265 13.4668C10.9265 13.4668 11.6779 13.7173 11.8569 13.3595C11.8569 13.3595 12.4294 13.3595 12.2862 13.0733C12.2862 13.0733 12.1074 12.8585 11.7496 12.9301C11.7496 12.9301 11.3559 12.7512 11.5348 11.4988L11.7853 10.0317C11.7853 10.0317 12.0358 9.74555 12.2504 9.31615C12.1788 9.24456 12.1431 9.13726 12.1072 9.06566C11.9999 8.81517 12.0356 8.52899 12.1429 8.27849C12.3218 7.9207 12.6796 7.67019 13.0733 7.67019C13.3238 7.4913 13.6099 7.384 13.932 7.527C13.932 7.527 14.3971 7.84909 14.5403 7.527H14.7551C14.7551 7.527 14.6119 7.24081 14.3257 7.09762C14.433 7.09762 15.0413 7.16921 15.0772 6.63253C15.0772 6.63253 14.5762 6.41775 14.29 6.20315C14.29 6.20315 14.3973 5.70215 13.6101 5.48755C13.6101 5.48755 12.3577 5.38025 12.4651 5.98855C12.3578 6.02426 10.676 7.63447 8.45752 7.4556C7.67035 7.41989 6.27493 7.3483 5.66644 7.59879C5.66644 7.59879 4.73607 7.5272 4.27097 8.17137C4.27097 8.17137 3.91319 8.56504 2.94713 8.56504C2.44613 8.92246 2.76824 8.99406 3.44813 8.85087L3.44807 8.85094Z" fill="#2D2D2D"/>
<path d="M18.4049 17.4745C17.9398 17.4388 17.5105 17.3313 17.0811 17.1524L16.4012 22.3049C16.3296 22.8775 16.7233 23.3785 17.2957 23.4499C17.904 23.4856 18.4407 23.1278 18.4407 22.4479L18.4408 17.4745L18.4049 17.4745Z" fill="#2D2D2D"/>
<path d="M18.7271 17.5101V22.4123C18.7271 22.9849 19.1921 23.45 19.7647 23.45C20.3373 23.45 20.8024 22.9849 20.8024 22.4123V17.1881C20.0868 17.4386 19.4426 17.5459 18.7271 17.5102L18.7271 17.5101Z" fill="#2D2D2D"/>
<path d="M21.0169 2.55374C21.0169 3.66023 20.1197 4.55746 19.013 4.55746C17.9065 4.55746 17.0093 3.66023 17.0093 2.55374C17.0093 1.44707 17.9065 0.549835 19.013 0.549835C20.1197 0.549835 21.0169 1.44707 21.0169 2.55374Z" fill="#2D2D2D"/>
<path d="M21.1242 9.63843V5.88131C21.1242 5.70241 21.0526 5.55922 20.9095 5.48763C19.6213 4.73618 18.3689 4.73618 17.0807 5.48763C16.9375 5.55922 16.8659 5.73812 16.8659 5.88131V7.67043L18.1541 6.52546C18.5834 6.13179 19.2276 6.20338 19.5854 6.63276C19.9791 7.06215 19.9075 7.70629 19.5138 8.06409L16.7231 10.5688L15.8286 15.936C15.8286 16.0076 15.8643 16.1149 15.9359 16.1508C17.9039 17.5105 20.1224 17.5105 22.0545 16.1508C22.1261 16.1151 22.1618 16.0076 22.1618 15.936L21.1242 9.63843Z" fill="#2D2D2D"/>
<path d="M19.2637 7.84922C19.5499 7.59873 19.5858 7.16934 19.3353 6.88317C19.0848 6.59698 18.6554 6.56109 18.3692 6.81158L15.6856 9.17328L13.2523 8.06403C12.8946 7.92084 12.5009 8.06403 12.3579 8.38612C12.2147 8.7439 12.3579 9.13757 12.68 9.28058L15.5424 10.6044C15.7929 10.7117 16.0791 10.676 16.2939 10.4971L19.2637 7.84922Z" fill="#2D2D2D"/>
</svg>
