<svg width="166" height="182" viewBox="0 0 166 182" fill="none" xmlns="http://www.w3.org/2000/svg">
<g clip-path="url(#clip0_993_16751)">
<path d="M99.6709 103.356C94.937 94.7165 88.8514 87.1949 79.6595 83.8371C70.4681 80.4795 60.9991 82.201 51.8632 85.7266C32.9974 93.4455 16.5739 103.516 23.8273 126.732C27.2924 137.658 38.9982 145.184 55.2779 151.106C71.5588 157.029 85.2419 159.049 94.914 152.955C105.017 146.601 108.709 138.807 108.659 130.37C108.609 121.931 104.706 112.539 99.6695 103.357L99.6709 103.356Z" fill="#A4D4AE"/>
<path d="M63.1835 75.3468C72.7622 77.2061 82.4845 67.9321 84.897 54.6004C87.311 41.2683 81.4379 29.1302 71.8858 27.2234C62.3345 25.3167 52.545 34.7098 50.1213 48.0038C47.6975 61.2979 53.5397 73.6067 63.1836 75.3466L63.1835 75.3468Z" fill="#A4D4AE"/>
<path d="M96.0866 86.3527C104.965 90.5022 116.747 83.9287 122.427 71.6931C128.107 59.4579 125.542 46.1662 116.663 42.0167C107.785 37.8672 95.9544 44.4136 90.3233 56.6763C84.692 68.9376 87.1593 82.176 96.0866 86.3527Z" fill="#A4D4AE"/>
<mask id="mask0_993_16751" style="mask-type:luminance" maskUnits="userSpaceOnUse" x="108" y="77" width="43" height="47">
<path d="M126.72 77.5233L150.759 90.8675L132.624 123.537L108.585 110.192L126.72 77.5233Z" fill="white"/>
</mask>
<g mask="url(#mask0_993_16751)">
<path d="M141.426 86.1053C135.61 81.4748 125.686 84.1886 119.213 92.1842C112.741 100.18 112.27 110.415 118.062 115.032C123.854 119.649 133.827 116.963 140.275 108.953C146.722 100.944 147.189 90.8315 141.426 86.1053Z" fill="#A4D4AE"/>
</g>
<mask id="mask1_993_16751" style="mask-type:luminance" maskUnits="userSpaceOnUse" x="6" y="44" width="45" height="46">
<path d="M23.8688 44.7646L50.4547 59.5229L33.5789 89.9232L6.99302 75.1649L23.8688 44.7646Z" fill="white"/>
</mask>
<g mask="url(#mask1_993_16751)">
<path d="M42.1189 66.7697C41.5052 56.4302 35.1061 48.3299 27.7052 48.6129C20.3046 48.8974 14.7782 57.4793 15.3564 67.7679C15.9346 78.0565 22.3693 86.2078 29.7702 85.9247C37.1717 85.6408 42.6838 77.0823 42.1189 66.7697Z" fill="#A4D4AE"/>
</g>
</g>
<defs>
<clipPath id="clip0_993_16751">
<rect width="135.486" height="132.854" fill="white" transform="translate(47.4805) rotate(29.0354)"/>
</clipPath>
</defs>
</svg>
