<svg width="13" height="13" viewBox="0 0 13 13" fill="none" xmlns="http://www.w3.org/2000/svg">
<g clip-path="url(#clip0_207_17206)">
<path d="M9.19155 6.36391C8.39205 5.84955 7.53123 5.49507 6.60374 5.64434C5.6763 5.79361 4.96208 6.3906 4.35984 7.12611C3.13662 8.68248 2.22782 10.3241 3.91749 11.9658C4.71699 12.736 6.04951 12.8239 7.69104 12.5574C9.3327 12.2909 10.5747 11.8139 11.1023 10.8332C11.6539 9.8098 11.6007 8.96764 11.2035 8.24815C10.8064 7.52858 10.0416 6.91037 9.19143 6.36399L9.19155 6.36391Z" fill="#6D9773"/>
<path d="M4.82619 5.70044C5.71636 5.40459 6.10009 4.14943 5.68162 2.89427C5.26326 1.63901 4.20528 0.879473 3.31514 1.16999C2.42507 1.46049 2.04124 2.72903 2.45701 3.9815C2.87278 5.23396 3.93612 6.00957 4.82619 5.70042V5.70044Z" fill="#6D9773"/>
<path d="M8.09907 5.07939C9.03713 5.01274 9.7194 3.89081 9.62609 2.57425C9.53286 1.2577 8.69864 0.242376 7.76056 0.309026C6.82251 0.375676 6.13488 1.49761 6.23354 2.81417C6.33213 4.13062 7.15563 5.14604 8.09907 5.07939Z" fill="#6D9773"/>
<mask id="mask0_207_17206" style="mask-type:luminance" maskUnits="userSpaceOnUse" x="10" y="2" width="3" height="5">
<path d="M10.2578 2.86914H12.8959V6.52539H10.2578V2.86914Z" fill="white"/>
</mask>
<g mask="url(#mask0_207_17206)">
<path d="M11.8912 2.90494C11.1876 2.78503 10.4815 3.48852 10.3109 4.47995C10.1403 5.47138 10.5774 6.36947 11.2783 6.48939C11.9792 6.6093 12.6907 5.90581 12.8587 4.91438C13.0266 3.92296 12.5948 3.03558 11.8912 2.90494Z" fill="#6D9773"/>
</g>
<mask id="mask1_207_17206" style="mask-type:luminance" maskUnits="userSpaceOnUse" x="0" y="4" width="4" height="5">
<path d="M0.10376 4.95117H3.0214V8.35352H0.10376L0.10376 4.95117Z" fill="white"/>
</mask>
<g mask="url(#mask1_207_17206)">
<path d="M2.65951 5.96705C2.12651 5.11162 1.21245 4.72251 0.604752 5.09821C-0.00284608 5.47402 -0.066805 6.4707 0.460838 7.32347C0.98848 8.17624 1.9079 8.56802 2.5156 8.19231C3.1233 7.81651 3.18716 6.82252 2.65951 5.96705Z" fill="#6D9773"/>
</g>
</g>
<defs>
<clipPath id="clip0_207_17206">
<rect width="13" height="13" fill="white"/>
</clipPath>
</defs>
</svg>
