<svg width="24" height="24" viewBox="0 0 24 24" fill="none" xmlns="http://www.w3.org/2000/svg">
<g clip-path="url(#clip0_1242_1187)">
<path d="M12.3506 11.4077C13.7015 11.1903 15.0308 11.6909 16.4288 12.5903C17.9738 13.5833 19.2018 14.6129 19.8077 15.7104H19.8087C20.3638 16.7162 20.4872 17.9092 19.6163 19.5249V19.5259C18.8913 20.8734 17.0681 21.7041 14.0391 22.1958C11.0295 22.6844 9.02749 22.4291 7.92877 21.3735H7.92975C6.59577 20.0774 6.36709 18.9024 6.60358 17.7681C6.86289 16.5247 7.70583 15.2131 8.8233 13.7896C9.87157 12.5094 10.9918 11.6264 12.3506 11.4077Z" stroke="#B0B0B0" stroke-width="2"/>
<path d="M6.43063 3.11035C6.87114 2.96662 7.44003 3.05327 8.04391 3.49121C8.64618 3.92804 9.21306 4.6754 9.54099 5.65918C9.86933 6.64404 9.86783 7.58942 9.64938 8.30566C9.43132 9.02037 9.03207 9.42513 8.60153 9.57129L8.582 9.5791C8.15092 9.72883 7.58809 9.64917 6.98239 9.20898C6.37847 8.76997 5.81104 8.01634 5.48532 7.03516C5.1596 6.05378 5.16101 5.10329 5.38083 4.38086C5.60205 3.6541 6.00469 3.24937 6.43063 3.11035Z" stroke="#B0B0B0" stroke-width="2"/>
<path d="M14.398 1.56763C14.8559 1.53509 15.3839 1.75843 15.8618 2.33911C16.3382 2.918 16.7008 3.79098 16.774 4.82349C16.8471 5.85594 16.6119 6.7706 16.2222 7.4104C15.88 7.97207 15.4607 8.26767 15.0542 8.35474L14.8814 8.38013C14.418 8.41272 13.893 8.18853 13.4185 7.60962C12.9443 7.03098 12.583 6.15701 12.5054 5.12036C12.4283 4.09047 12.663 3.17755 13.0533 2.53833C13.445 1.89681 13.9387 1.60031 14.398 1.56763Z" stroke="#B0B0B0" stroke-width="2"/>
<mask id="mask0_1242_1187" style="mask-type:luminance" maskUnits="userSpaceOnUse" x="18" y="5" width="6" height="8">
<path d="M22.8076 6.29688V11.0469H19.9375V6.29688H22.8076Z" stroke="white" stroke-width="2"/>
</mask>
<g mask="url(#mask0_1242_1187)">
<path d="M21.7807 6.34814C22.0376 6.39968 22.3296 6.60243 22.5492 7.05713C22.7712 7.51699 22.8779 8.17032 22.7533 8.90576C22.6293 9.63837 22.309 10.2233 21.9438 10.5864C21.5759 10.9521 21.2334 11.0363 20.9897 10.9946C20.7451 10.9526 20.45 10.7592 20.225 10.2935C20.0015 9.83054 19.8948 9.17275 20.0209 8.43994C20.1475 7.70457 20.4674 7.11819 20.8315 6.75537C21.195 6.3933 21.5341 6.30776 21.7807 6.34814Z" stroke="#B0B0B0" stroke-width="2"/>
</g>
<mask id="mask1_1242_1187" style="mask-type:luminance" maskUnits="userSpaceOnUse" x="0" y="9" width="6" height="7">
<path d="M4.57843 10.1406V14.4219H1.19171L1.19171 10.1406H4.57843Z" stroke="white" stroke-width="2"/>
</mask>
<g mask="url(#mask1_1242_1187)">
<path d="M1.6427 10.2629C1.85582 10.1312 2.20116 10.0818 2.67493 10.2825C3.14638 10.4822 3.662 10.9055 4.05872 11.5403V11.5413C4.45007 12.1758 4.59862 12.8258 4.56555 13.3381C4.53646 13.788 4.38036 14.066 4.19836 14.217L4.11829 14.2737C3.90648 14.4045 3.55952 14.454 3.08313 14.2522C2.6087 14.0511 2.09237 13.6264 1.70129 12.9944C1.31089 12.3634 1.16332 11.7137 1.19641 11.2004C1.22967 10.6849 1.42944 10.395 1.6427 10.2629Z" stroke="#B0B0B0" stroke-width="2"/>
</g>
</g>
<defs>
<clipPath id="clip0_1242_1187">
<rect width="24" height="24" fill="white"/>
</clipPath>
</defs>
</svg>
