<svg width="352" height="353" viewBox="0 0 352 353" fill="none" xmlns="http://www.w3.org/2000/svg">
<path fill-rule="evenodd" clip-rule="evenodd" d="M209.516 47.4482C209.193 50.0255 208.552 52.9718 207.59 56.2952C206.309 59.9391 205.028 63.1036 203.742 65.7807C200.111 72.6402 195.352 78.9183 189.468 84.598C187.435 86.4185 185.404 88.1422 183.374 89.7419C185.727 88.565 188.289 87.2265 191.074 85.7264C193.636 84.0081 195.134 83.044 195.564 82.8285L199.254 80.095C200.854 78.9181 202.723 77.4692 204.869 75.7536C206.258 74.7868 207.216 74.4689 207.753 74.7868C208.183 75.1073 208.073 76.0741 207.434 77.6792L206.953 79.1282L205.989 80.7333C205.245 82.1283 204.44 83.308 203.586 84.2775C202.941 85.2389 202.407 85.8826 201.982 86.2058C201.126 87.065 200.486 87.7625 200.059 88.293C199.525 88.8317 198.029 90.1163 195.569 92.1551C191.506 95.1553 187.497 97.4095 183.541 98.9069C179.158 100.625 174.668 101.748 170.07 102.284C167.288 102.5 165.26 102.5 163.976 102.284L159.325 101.805C162 102.874 166.063 105.397 171.514 109.359C175.363 112.257 179.694 114.883 184.505 117.239C183.224 120.245 182.101 122.383 181.137 123.673C180.278 124.85 179.426 125.925 178.575 126.889C177.501 128.174 175.954 129.407 173.924 130.59C172.213 131.443 169.917 132.197 167.027 132.841C163.611 133.592 160.939 134.182 159.014 134.608C155.81 135.467 153.35 136.59 151.639 137.985C150.567 138.844 149.555 139.859 148.594 141.039C147.629 142.434 146.934 143.824 146.504 145.222C145.22 148.114 144.952 151.227 145.701 154.548C146.558 157.979 148.379 161.033 151.156 163.715C152.222 165 153.667 166.177 155.482 167.252C157.408 168.434 159.226 169.347 160.942 169.988C164.79 171.38 169.009 172.132 173.61 172.239C177.028 172.239 181.73 171.865 187.719 171.114C196.482 169.721 201.668 168.97 203.274 168.862C209.153 168.218 214.873 168.324 220.429 169.185C226.845 170.26 232.562 172.132 237.592 174.811C241.975 177.273 245.606 180.33 248.496 183.982C249.03 184.62 249.777 185.536 250.735 186.715L252.497 189.928C253.885 192.929 254.745 195.075 255.064 196.362C255.387 197.216 255.706 198.293 256.028 199.578C256.133 200.329 256.402 201.453 256.829 202.955C257.148 205.53 257.1 207.94 256.67 210.192C256.243 212.982 255.067 217.051 253.142 222.419C251.326 227.132 250.257 230.562 249.938 232.707C249.508 234.853 249.403 236.299 249.613 237.048C249.613 237.263 249.72 237.902 249.938 238.976C250.042 239.515 250.203 239.943 250.416 240.264C251.487 241.656 253.891 243.318 257.634 245.249L262.444 247.823C264.367 249.111 265.914 250.449 267.096 251.847C267.732 252.491 268.162 252.973 268.377 253.293C269.126 254.26 269.607 254.901 269.821 255.222L272.225 260.368L273.025 263.584C273.24 265.297 273.345 266.584 273.345 267.443L273.831 281.432C273.831 284.114 273.667 288.132 273.345 293.491C273.13 298.105 273.025 301.426 273.025 303.467C272.918 307.219 272.969 311.075 273.184 315.045C276.817 315.153 280.293 315.261 283.609 315.368C313.328 316.227 328.187 317.24 328.187 318.422C328.187 319.71 313.328 320.782 283.609 321.638C280.402 321.746 277.142 321.797 273.831 321.797H273.028C272.064 321.905 271.153 321.956 270.302 321.956L269.982 311.986C269.875 311.77 269.657 310.432 269.338 307.959C269.018 305.39 268.857 303.995 268.857 303.78C268.64 301.205 268.484 297.774 268.376 293.486L267.095 268.076C266.666 263.253 264.955 259.393 261.963 256.498L261.799 256.339C260.728 255.055 258.271 253.549 254.425 251.836C252.499 251.085 250.842 250.229 249.454 249.262C247.316 247.977 245.656 246.528 244.48 244.923L243.36 243.313C242.931 242.346 242.665 241.759 242.56 241.548C242.02 239.723 241.76 238.492 241.76 237.845C241.542 236.13 241.652 233.935 242.079 231.252C242.616 228.899 243.739 224.983 245.449 219.516C247.053 215.228 248.068 211.746 248.498 209.064C248.712 207.564 248.712 205.956 248.498 204.24C247.746 201.025 247.265 199.255 247.053 198.932C246.089 195.393 244.383 192.18 241.921 189.283C239.676 186.498 236.848 184.195 233.421 182.369C225.3 177.864 215.517 176.092 204.076 177.061C203.327 177.277 198.254 177.974 188.844 179.151C182.643 180.01 177.454 180.385 173.289 180.277C167.945 179.954 162.917 178.828 158.212 176.9C156.184 176.148 153.942 175.025 151.479 173.522C149.025 171.807 147.153 170.145 145.864 168.535C144.371 167.032 142.98 165.05 141.696 162.585L139.77 157.762L138.812 152.459L139.131 149.082C139.453 146.83 140.039 144.74 140.898 142.812C141.755 140.986 142.821 139.217 144.105 137.501C145.491 135.891 146.989 134.609 148.598 133.642C151.16 131.926 154.369 130.693 158.212 129.941C160.245 129.621 162.973 129.244 166.392 128.816C168.637 128.6 170.831 127.905 172.966 126.72C175.106 125.543 176.656 124.253 177.617 122.861C178.047 122.215 178.418 121.52 178.74 120.771C175.856 119.055 172.593 116.963 168.959 114.499C165.43 112.139 160.996 109.19 155.647 105.651L150.673 102.597L149.072 102.756H147.789C146.508 102.756 145.329 102.7 144.26 102.597C143.301 102.702 142.283 102.756 141.22 102.756C141.112 102.864 140.949 102.972 140.734 103.077C139.453 104.259 137.637 105.436 135.282 106.616C133.464 107.475 132.076 108.116 131.111 108.547C130.04 108.975 128.335 109.508 125.982 110.154C125.765 110.262 124.857 110.475 123.256 110.798L118.124 111.444L117.968 111.765L119.25 112.568C121.282 113.534 123.793 114.175 126.788 114.499H132.562C134.06 114.499 134.914 114.714 135.129 115.142C135.341 115.358 135.288 115.678 134.965 116.104C134.751 116.645 134.324 117.181 133.684 117.714C132.186 118.999 129.994 119.909 127.11 120.448C126.573 120.555 126.039 120.666 125.507 120.771C125.08 121.415 124.543 122.217 123.906 123.181C120.802 127.684 118.291 131.702 116.365 135.241C113.051 141.562 110.648 147.999 109.149 154.538C108.507 157.322 107.976 161.295 107.546 166.439C107.116 170.514 107.116 174.852 107.546 179.466L108.346 185.9C108.776 188.152 109.259 190.242 109.794 192.173C110.86 196.245 112.141 200.155 113.642 203.909C116.424 210.984 119.682 216.987 123.423 221.918C126.415 225.778 129.678 228.94 133.204 231.404C134.168 231.94 135.237 232.581 136.416 233.335C137.268 233.979 137.646 234.409 137.539 234.62C137.429 234.838 136.894 234.943 135.936 234.943H135.449C135.772 235.374 136.038 235.748 136.25 236.071C136.894 237.038 137.59 238.269 138.334 239.772L140.74 244.918C144.588 254.458 147.21 264.91 148.604 276.275C149.885 287.209 149.989 297.877 148.923 308.275C148.706 310.206 148.174 315.083 147.32 322.91C138.232 322.694 129.469 322.587 121.02 322.587C122.092 316.907 122.624 314.011 122.624 313.904C122.731 313.045 123.102 310.634 123.743 306.667C124.818 301.951 126.528 294.394 128.876 283.99L135.936 254.244C135.936 253.921 136.041 253.6 136.25 253.277C135.936 251.133 135.506 248.936 134.969 246.687C134.859 246.469 134.65 245.505 134.327 243.789L133.202 237.196C132.987 236.122 132.936 235.268 133.044 234.621C132.614 234.516 132.187 234.465 131.763 234.465C129.093 233.498 126.416 232.055 123.744 230.124C124.711 233.016 125.562 236.342 126.314 240.094C127.598 246.743 128.234 254.136 128.234 262.286C128.234 269.576 127.7 276.867 126.633 284.155C125.455 291.23 124.123 297.02 122.627 301.523C121.131 306.134 120.008 309.35 119.256 311.173C118.614 312.996 117.226 316.799 115.088 322.589C108.673 322.374 102.418 322.269 96.3244 322.269C86.487 322.053 77.1308 321.838 68.2607 321.625C38.6473 320.766 23.8392 319.694 23.8392 318.409C23.8392 317.227 38.6473 316.214 68.2607 315.355C77.1335 315.032 86.4877 314.765 96.3244 314.55C102.098 314.445 107.98 314.391 113.966 314.391C114.073 313.745 114.181 312.891 114.285 311.816C115.145 307.313 115.835 303.403 116.369 300.082C117.226 296.112 118.029 290.483 118.775 283.199C119.417 276.226 119.791 269.256 119.901 262.292C119.686 254.25 119.253 247.28 118.612 241.382C117.331 233.879 116.208 228.301 115.249 224.66C114.927 223.585 114.446 221.87 113.802 219.513C111.025 215.974 108.565 211.795 106.427 206.971C104.612 203.002 103.059 198.822 101.778 194.43C101.026 191.645 100.495 189.385 100.172 187.678C99.7427 185.426 99.4795 184.193 99.3721 183.983L99.0525 180.28C98.6228 174.705 98.6228 169.878 99.0525 165.809C99.8017 160.558 100.656 156.109 101.615 152.459C103.645 145.062 106.854 138.31 111.237 132.198C114.443 127.477 117.867 123.726 121.496 120.938V120.782C119.785 120.782 118.021 120.459 116.202 119.815C115.029 119.382 113.963 118.797 112.996 118.043C111.395 116.866 110.214 115.417 109.47 113.702C108.935 112.094 108.774 110.378 108.989 108.558L110.114 104.052H110.434L110.592 103.893L122.304 102.444C121.232 102.337 119.841 102.28 118.131 102.28C113.533 101.744 109.045 100.618 104.662 98.9028C100.814 97.4054 96.8043 95.1512 92.6367 92.151C90.174 90.1123 88.6782 88.8276 88.1437 88.2889L86.382 86.2018C85.6328 85.3426 85.0983 84.7016 84.7814 84.2734C83.9221 83.3066 83.0707 82.1269 82.214 80.7292L81.2473 79.1241L80.7478 77.6833C80.2187 76.0782 80.1623 75.1086 80.592 74.7908C81.019 74.4703 81.9804 74.7908 83.4816 75.7576C84.4403 76.4013 86.2558 77.8475 88.9306 80.0991L92.6206 82.8326C93.2624 83.2635 94.8093 84.225 97.2692 85.7304C99.9387 87.2306 102.506 88.5691 104.966 89.746C102.828 88.1408 100.744 86.4226 98.7138 84.602C92.8324 78.9221 88.0734 72.6496 84.4399 65.7848C83.1562 63.1078 81.8725 59.9432 80.5915 56.2993C79.7321 52.9759 79.093 50.0295 78.666 47.4522C78.0214 42.7365 77.9704 38.5003 78.5075 34.7539C79.0419 31.5328 79.6811 29.9815 80.4304 30.0893C80.8601 30.0893 81.3381 31.6379 81.8752 34.7539C82.8393 39.4669 83.7444 43.3265 84.601 46.3318C85.2456 48.6857 86.1533 51.1553 87.3296 53.7297C88.8281 57.1581 90.1601 59.9482 91.3364 62.0893C92.8323 64.4512 94.4355 66.7512 96.1462 69.0052C95.7165 67.2896 95.456 65.4125 95.3459 63.3737C95.2385 61.335 95.1874 59.9453 95.1874 59.1939L95.8293 55.4989C96.2563 53.4602 96.8445 51.8523 97.5964 50.67C98.1308 49.4931 98.7189 48.9033 99.3581 48.9033C100.003 49.1188 100.481 49.8163 100.803 50.9986C101.125 51.7446 101.447 53.2447 101.767 55.5016L102.404 58.8788C102.404 59.0942 102.675 60.22 103.204 62.256C103.738 65.1485 104.434 67.7232 105.288 69.9717C106.255 72.6487 107.321 75.0671 108.5 77.2082L111.704 82.678C112.453 83.6395 113.304 84.7679 114.271 86.0552C116.624 87.5554 119.137 89.0042 121.809 90.3966C122.451 90.7198 123.09 91.043 123.732 91.3635C122.983 89.9711 122.398 88.5733 121.971 87.181C121.221 84.7194 120.848 82.5164 120.848 80.5881C120.741 78.6571 120.955 77.1031 121.49 75.9235C121.812 74.8543 122.293 74.3157 122.935 74.3157C123.469 74.3157 124.114 74.8032 124.858 75.7647C125.287 76.3006 125.875 77.4264 126.625 79.1419L129.192 84.127C130.688 86.5939 131.81 88.3606 132.56 89.4352C134.058 91.3662 135.444 92.9202 136.73 94.0998C137.16 94.423 137.746 94.9589 138.497 95.7049C138.71 95.8153 139.08 96.0254 139.612 96.3486L140.576 96.8307C140.683 96.9384 141.003 97.0488 141.54 97.1538C142.075 97.3693 142.929 97.582 144.108 97.7975C145.066 97.7975 145.867 97.6386 146.511 97.31C147.156 97.1027 147.526 96.9384 147.636 96.8307L148.756 96.3486C148.974 96.1331 149.293 95.9204 149.72 95.7049L151.646 94.0998C152.825 92.9229 154.157 91.3662 155.653 89.4352C156.402 88.3606 157.527 86.5939 159.02 84.127L161.588 79.1419C162.447 77.4263 163.084 76.3006 163.513 75.7647C164.155 74.7979 164.741 74.3157 165.275 74.3157C165.812 74.3157 166.29 74.8544 166.72 75.9235C167.257 77.1058 167.469 78.6571 167.364 80.5881C167.364 82.5191 166.991 84.7194 166.242 87.181C165.812 88.5733 165.229 89.9658 164.48 91.3635C165.229 91.043 165.922 90.7198 166.564 90.3966C169.131 89.0043 171.589 87.5554 173.939 86.0552C175.01 84.7706 175.864 83.6422 176.506 82.678L179.874 77.2082C180.945 75.0644 181.955 72.6513 182.922 69.9717C183.773 67.7256 184.474 65.1509 185.006 62.256C185.535 60.22 185.809 59.0916 185.809 58.8788L186.451 55.5016C186.773 53.2474 187.144 51.7473 187.573 50.9986C187.893 49.8163 188.317 49.1188 188.854 48.9033C189.391 48.9033 190.028 49.4931 190.777 50.67C191.529 51.8469 192.066 53.4548 192.383 55.4989L193.025 59.1939C193.025 59.9453 192.974 61.3323 192.867 63.3737C192.759 65.4125 192.493 67.2896 192.066 69.0052C193.777 66.751 195.386 64.4483 196.881 62.0893C198.055 59.9455 199.392 57.1608 200.886 53.7297C202.064 51.155 202.969 48.6854 203.614 46.3318C204.471 43.3262 205.376 39.467 206.34 34.7539C206.877 31.6406 207.355 30.0893 207.785 30.0893C208.537 29.9816 209.173 31.5356 209.71 34.7539C210.317 38.5001 210.264 42.7336 209.514 47.4494L209.516 47.4482ZM216.254 214.854C216.469 215.923 216.788 217.855 217.212 220.645C217.749 223.322 218.287 225.737 218.816 227.881C220.526 234.318 223.625 239.462 228.115 243.321C229.931 244.824 233.086 246.917 237.58 249.594C240.147 251.094 242.013 252.271 243.187 253.13C245.115 254.522 246.987 256.187 248.805 258.118C250.728 260.154 252.331 262.567 253.612 265.354V265.519C255.216 268.516 256.717 272.27 258.105 276.776C259.064 279.884 259.921 283.474 260.673 287.551C261.846 293.231 262.649 299.237 263.074 305.561C263.184 308.776 263.56 314.297 264.199 322.129H262.437H261.792C242.87 322.449 221.81 322.713 198.615 322.929H198.292H198.129H196.367C197.863 313.815 199.197 307.707 200.371 304.596C201.553 301.383 202.831 297.631 204.222 293.342C205.611 288.944 208.5 282.833 212.88 275.009C214.911 271.362 216.248 268.575 216.887 266.649C217.207 265.68 217.317 264.775 217.207 263.913C217.207 263.059 216.836 261.877 216.087 260.377L213.686 254.896L213.044 252.165C212.722 251.414 212.402 250.127 212.086 248.306C211.868 246.483 211.712 245.193 211.605 244.447C211.175 240.264 211.497 236.51 212.569 233.187C212.781 232.333 212.996 231.581 213.205 230.935C213.101 230.396 212.993 229.809 212.886 229.163C212.778 228.094 212.671 227.019 212.566 225.95C212.029 226.701 211.178 227.666 209.999 228.843C206.9 232.163 203.103 235.487 198.615 238.813L188.03 244.926L183.701 246.855C181.134 247.393 178.835 247.657 176.805 247.657C174.772 247.765 172.581 247.716 170.228 247.501C167.666 247.393 165.738 247.501 164.457 247.821C163.815 248.034 163.278 248.252 162.854 248.465L162.212 248.947L161.731 249.594C161.087 250.663 160.66 252.271 160.45 254.417C160.233 256.13 160.343 258.117 160.77 260.366C160.985 261.756 161.463 263.902 162.215 266.8C162.752 269.8 163.122 272.103 163.337 273.716C163.659 276.07 163.659 278.486 163.337 280.953C163.122 282.776 162.91 283.953 162.695 284.491L155.32 314.079C161.951 313.971 168.789 313.92 175.846 313.92H188.836C189.054 312.207 189.424 310.168 189.959 307.809C190.386 305.881 191.457 301.698 193.165 295.267C194.766 289.156 195.942 284.12 196.691 280.15C197.763 274.578 198.297 269.59 198.297 265.192C198.297 260.695 197.76 256.779 196.691 253.458C196.049 251.419 194.983 248.898 193.487 245.898C192.523 243.967 192.15 242.841 192.362 242.521C192.899 242.09 194.073 242.464 195.891 243.647C198.136 245.147 200.22 247.614 202.146 251.044C204.391 254.796 205.728 259.353 206.152 264.712C206.69 269.967 206.311 275.595 205.033 281.595C203.429 290.071 200.33 299.449 195.73 309.742C195.088 311.131 193.7 315.529 191.559 322.927H175.844H150.667C150.989 313.065 151.311 305.936 151.631 301.539L155.16 282.727C155.267 282.296 155.372 281.44 155.479 280.152C155.589 278.437 155.538 276.613 155.324 274.688C155.004 273.185 154.521 271.203 153.879 268.733C153.135 265.728 152.649 263.425 152.437 261.817C151.902 259.032 151.744 256.299 151.959 253.616L152.278 251.521C152.386 250.344 152.544 249.593 152.759 249.269L153.403 247.023L154.684 244.933C155.111 244.179 155.643 243.541 156.288 243.002C157.037 242.251 157.73 241.661 158.369 241.23C159.972 240.371 161.524 239.838 163.02 239.622C164.838 239.302 167.403 239.194 170.714 239.302C173.606 239.622 175.583 239.784 176.652 239.784C178.47 239.784 180.181 239.679 181.781 239.461L186.755 237.853L193.493 234.799L195.416 233.512C197.341 232.442 199.745 231.104 202.632 229.488C205.516 227.88 207.334 226.811 208.083 226.275C210.226 225.098 211.725 224.395 212.576 224.185C212.466 221.072 212.576 217.964 212.896 214.856C213.43 211.425 214.018 209.712 214.658 209.712C215.181 209.71 215.718 211.422 216.253 214.854L216.254 214.854ZM217.535 243.48L221.225 253.289C222.291 255.218 222.986 256.561 223.306 257.313C224.27 259.028 224.912 260.744 225.231 262.457C225.554 263.534 225.602 264.66 225.39 265.839L225.231 267.603L224.912 269.052C224.163 271.406 222.613 274.684 220.261 278.858C218.015 283.041 214.916 288.667 210.961 295.75C208.286 300.463 205.987 305.074 204.062 309.58C203.742 310.442 203.154 311.934 202.303 314.083C223.043 314.083 242.014 314.298 259.228 314.729C258.699 312.478 258.055 309.693 257.305 306.364C255.807 299.184 254.472 293.445 253.293 289.157C252.335 285.406 251.319 282.136 250.248 279.351C248.964 275.492 247.578 272.168 246.077 269.378L245.913 269.219V269.06C245.164 267.237 244.047 265.468 242.551 263.752C240.838 261.932 237.685 259.57 233.087 256.677C228.387 253.677 224.961 251.102 222.828 248.959C220.583 246.923 218.708 244.561 217.213 241.883C217.323 242.411 217.427 242.944 217.535 243.48ZM137.358 285.774C135.113 294.993 132.495 302.604 129.5 308.61C128.641 310.541 127.626 312.472 126.452 314.4C132.011 314.184 137.678 314.077 143.452 314.077C143.24 312.472 143.022 310.541 142.81 308.286C141.851 295.636 140.992 285.29 140.248 277.25C140.031 275.858 139.816 274.352 139.601 272.747C139.281 275.537 138.532 279.879 137.358 285.774Z" fill="#6D9773"/>
</svg>
