<svg width="249" height="237" viewBox="0 0 249 237" fill="none" xmlns="http://www.w3.org/2000/svg">
<ellipse cx="124.5" cy="118.5" rx="96.5" ry="99.5" fill="#A4D4AE" fill-opacity="0.5"/>
<path d="M10.1474 133.148L11.9999 125.775L13.8522 133.148L21.2252 135L13.8522 136.852L11.9999 144.225L10.1474 136.852L2.7749 135L10.1474 133.148Z" fill="#6D9773"/>
<path d="M183.115 151.154C174.281 140.497 168.044 135.072 168.044 105.691C168.044 78.7855 154.106 69.1999 142.634 64.5444C141.11 63.9273 139.676 62.5099 139.211 60.9671C137.199 54.2162 131.558 48.2688 124.059 48.2688C116.56 48.2688 110.915 54.2196 108.923 60.9739C108.459 62.5337 107.024 63.9273 105.5 64.5444C94.0147 69.2067 80.09 78.7584 80.09 105.691C80.0728 135.072 73.8363 140.497 65.0027 151.154C61.3426 155.569 64.5486 162.198 70.9502 162.198H177.201C183.569 162.198 186.754 155.549 183.115 151.154Z" fill="#6D9773" stroke="#6D9773" stroke-width="1.00189" stroke-linecap="round" stroke-linejoin="round"/>
<path d="M146.08 162.198V167.624C146.08 173.38 143.76 178.9 139.63 182.971C135.501 187.041 129.901 189.328 124.061 189.328C118.221 189.328 112.621 187.041 108.492 182.971C104.363 178.9 102.043 173.38 102.043 167.624V162.198" fill="#6D9773"/>
<path d="M146.08 162.198V167.624C146.08 173.38 143.76 178.9 139.63 182.971C135.501 187.041 129.901 189.328 124.061 189.328C118.221 189.328 112.621 187.041 108.492 182.971C104.363 178.9 102.043 173.38 102.043 167.624V162.198" stroke="#6D9773" stroke-width="1.00189" stroke-linecap="round" stroke-linejoin="round"/>
<circle cx="3.5" cy="3.5" r="3.5" transform="matrix(1 0 0 -1 21 122)" fill="#A4D4AE" fill-opacity="0.5"/>
<path d="M206.369 65.6902C207.007 62.0224 208.03 61.0003 211.697 60.3619C211.901 60.3619 212.066 60.1966 212.066 59.9928C212.066 59.789 211.901 59.6238 211.697 59.6238C208.022 59.0001 207 57.9781 206.369 54.3101C206.369 54.1063 206.204 53.9409 206 53.9409C205.796 53.9409 205.631 54.1063 205.631 54.3101C205 57.9778 203.978 58.9999 200.31 59.6308C200.106 59.6308 199.941 59.7962 199.941 60C199.941 60.2038 200.106 60.3689 200.31 60.3689C203.978 61.0072 205 62.0295 205.638 65.6972C205.666 65.8789 205.823 66.0123 206.007 66.0105C206.191 66.0087 206.345 65.8719 206.369 65.6899L206.369 65.6902Z" fill="#6D9773"/>
<circle cx="3.5" cy="3.5" r="3.5" transform="matrix(1 0 0 -1 212 70)" fill="#A4D4AE" fill-opacity="0.5"/>
<path d="M28.3689 148.69C29.0072 145.022 30.0295 144 33.6972 143.362C33.901 143.362 34.0662 143.197 34.0662 142.993C34.0662 142.789 33.901 142.624 33.6972 142.624C30.0219 142 28.9999 140.978 28.3689 137.31C28.3689 137.106 28.2038 136.941 28 136.941C27.7962 136.941 27.6308 137.106 27.6308 137.31C26.9999 140.978 25.9777 142 22.3101 142.631C22.1063 142.631 21.9409 142.796 21.9409 143C21.9409 143.204 22.1063 143.369 22.3101 143.369C25.9778 144.007 26.9999 145.03 27.6383 148.697C27.666 148.879 27.8231 149.012 28.0068 149.011C28.1906 149.009 28.3449 148.872 28.3689 148.69L28.3689 148.69Z" fill="#6D9773"/>
</svg>
