<svg width="249" height="237" viewBox="0 0 249 237" fill="none" xmlns="http://www.w3.org/2000/svg">
<ellipse cx="130.5" cy="118.5" rx="96.5" ry="99.5" fill="#A4D4AE" fill-opacity="0.5"/>
<path d="M107.411 21.6031C87.1216 21.6031 69.8266 28.7543 55.521 43.059C41.2963 57.3614 34.1826 74.6208 34.1826 94.8287C34.1826 115.118 41.2959 132.415 55.521 146.719C69.8252 160.945 87.1206 168.059 107.411 168.059C124.59 168.059 139.672 162.927 152.653 152.666L159.882 160.128C157.551 165.96 158.173 171.089 161.748 175.521L199.645 212.834C203.92 216.1 208.7 216.178 213.987 213.068C219.506 208.947 223.471 204.632 225.88 200.125C227.901 194.682 227.124 189.979 223.549 186.016L186.236 148.818C182.193 145.942 177.529 145.515 172.243 147.536L165.014 140.307C175.43 127.325 180.638 112.167 180.638 94.8303C180.638 74.6205 173.487 57.3616 159.184 43.0606C144.88 28.7564 127.622 21.6047 107.41 21.6047M47.007 95.6487C47.007 78.8583 52.8764 64.4758 64.6149 52.504C76.3533 40.5342 90.6182 34.5471 107.409 34.5471C124.277 34.5471 138.582 40.5342 150.32 52.504C162.057 64.4758 167.926 78.8583 167.926 95.6487C167.926 112.439 162.057 126.82 150.32 138.791C138.582 150.763 124.277 156.748 107.409 156.748C90.6182 156.748 76.3533 150.763 64.6149 138.791C52.8764 126.82 47.007 112.439 47.007 95.6487ZM124.55 54.4875C111.412 50.289 99.5182 51.2617 88.8699 57.4023C124.706 59.1128 143.13 78.6629 144.139 116.055C150.979 104.938 152.69 92.9685 149.269 80.1414C145.848 67.1587 137.608 58.6077 124.55 54.4889L124.55 54.4875Z" fill="#6D9773"/>
<path d="M24.3689 146.69C25.0072 143.022 26.0295 142 29.6972 141.362C29.901 141.362 30.0662 141.197 30.0662 140.993C30.0662 140.789 29.901 140.624 29.6972 140.624C26.0219 140 24.9999 138.978 24.3689 135.31C24.3689 135.106 24.2038 134.941 24 134.941C23.7962 134.941 23.6308 135.106 23.6308 135.31C22.9999 138.978 21.9777 140 18.3101 140.631C18.1063 140.631 17.9409 140.796 17.9409 141C17.9409 141.204 18.1063 141.369 18.3101 141.369C21.9778 142.007 22.9999 143.03 23.6383 146.697C23.666 146.879 23.8231 147.012 24.0068 147.011C24.1906 147.009 24.3449 146.872 24.3689 146.69L24.3689 146.69Z" fill="#6D9773"/>
<path d="M200.369 52.6902C201.007 49.0224 202.03 48.0003 205.697 47.3619C205.901 47.3619 206.066 47.1966 206.066 46.9928C206.066 46.789 205.901 46.6238 205.697 46.6238C202.022 46.0001 201 44.9781 200.369 41.3101C200.369 41.1063 200.204 40.9409 200 40.9409C199.796 40.9409 199.631 41.1063 199.631 41.3101C199 44.9778 197.978 45.9999 194.31 46.6308C194.106 46.6308 193.941 46.7962 193.941 47C193.941 47.2038 194.106 47.3689 194.31 47.3689C197.978 48.0072 199 49.0295 199.638 52.6972C199.666 52.8789 199.823 53.0123 200.007 53.0105C200.191 53.0087 200.345 52.8719 200.369 52.6899L200.369 52.6902Z" fill="#6D9773"/>
<circle cx="3.5" cy="3.5" r="3.5" transform="matrix(1 0 0 -1 64 210)" fill="#A4D4AE" fill-opacity="0.5"/>
<circle cx="3.5" cy="3.5" r="3.5" transform="matrix(1 0 0 -1 208 56)" fill="#A4D4AE" fill-opacity="0.5"/>
<circle cx="3.5" cy="3.5" r="3.5" transform="matrix(1 0 0 -1 24 129)" fill="#A4D4AE" fill-opacity="0.5"/>
<path d="M10.1474 133.148L11.9999 125.775L13.8522 133.148L21.2252 135L13.8522 136.852L11.9999 144.225L10.1474 136.852L2.7749 135L10.1474 133.148Z" fill="#6D9773"/>
</svg>
