<svg width="19" height="33" viewBox="0 0 19 33" fill="none" xmlns="http://www.w3.org/2000/svg">
<path d="M18.7151 9.1182C18.6136 4.24317 14.5715 0.305786 9.66831 0.305786C4.76511 0.305786 0.886919 4.24317 0.988394 9.1182C1.08402 13.7121 4.65078 17.4619 9.18644 17.9306L9.33474 25.0553H4.90297L4.94006 26.8368H9.37182L9.48303 32.1793H11.2749L11.1636 26.8354H15.5954L15.5583 25.0538H11.1265L10.9782 17.9291C15.4015 17.5548 18.8107 13.7113 18.7151 9.1182ZM2.68587 9.1182C2.60391 5.18081 5.7433 1.9935 9.70344 1.9935C13.6636 1.9935 16.9357 5.18081 17.0176 9.1182C17.0996 13.0556 13.9602 16.2429 10 16.2429C6.0399 16.2429 2.76781 13.0548 2.68587 9.1182Z" fill="#6D9773"/>
</svg>
