<svg width="144" height="144" viewBox="0 0 144 144" fill="none" xmlns="http://www.w3.org/2000/svg">
<mask id="mask0_320_16207" style="mask-type:luminance" maskUnits="userSpaceOnUse" x="62" y="44" width="82" height="100">
<path d="M62.7087 44.7439H143.665V143.665H62.7087V44.7439Z" fill="white"/>
</mask>
<g mask="url(#mask0_320_16207)">
<path d="M139.176 71.8338H125.707V67.3437C125.707 54.9705 115.642 44.8965 103.26 44.8965C90.8779 44.8965 80.8127 54.9705 80.8127 67.3437V71.8338H67.3437C64.8653 71.8338 62.8547 73.8444 62.8547 76.3227V125.706C62.8547 135.61 70.9093 143.664 80.813 143.664H125.708C135.611 143.664 143.666 135.61 143.666 125.706L143.665 76.3227C143.665 73.8443 141.655 71.8338 139.176 71.8338ZM116.728 71.8338H89.7906L89.7917 67.3437C89.7917 59.9185 95.8345 53.8758 103.26 53.8758C110.685 53.8758 116.728 59.9185 116.728 67.3437L116.728 71.8338Z" fill="#6D9773"/>
</g>
<mask id="mask1_320_16207" style="mask-type:luminance" maskUnits="userSpaceOnUse" x="0" y="0" width="90" height="144">
<path d="M0 0H89.7986V143.665H0V0Z" fill="white"/>
</mask>
<g mask="url(#mask1_320_16207)">
<path d="M53.8746 76.3223C53.8746 68.8971 59.9173 62.8544 67.3425 62.8544H72.1557C73.6549 52.3937 80.3895 43.6933 89.5479 39.2032C89.0177 37.3263 87.3569 35.9174 85.3005 35.9174H71.8326V26.9384C71.8326 12.0869 59.7468 0.00109863 44.8953 0.00109863C30.0438 0.00109863 17.958 12.0869 17.958 26.9384V35.9174H4.48893C2.01164 35.9174 0 37.928 0 40.4063V125.708C0 135.611 8.05453 143.666 17.9583 143.666H60.8772C56.5764 138.89 53.874 132.631 53.874 125.708L53.8746 76.3223ZM26.9373 26.939C26.9373 17.0355 34.9918 8.98067 44.8956 8.98067C54.7991 8.98067 62.8539 17.0352 62.8539 26.939V35.918H26.9384L26.9373 26.939Z" fill="#6D9773"/>
</g>
</svg>
