<svg width="48" height="42" viewBox="0 0 48 42" fill="none" xmlns="http://www.w3.org/2000/svg">
<path d="M8.01337 30.0169L10.5077 29.0506L11.4741 31.5453C11.5594 31.7657 11.7293 31.9433 11.9457 32.0389C12.162 32.134 12.4073 32.1401 12.628 32.0545L13.4595 31.7324L16.3586 39.2163C16.444 39.4366 16.6134 39.6144 16.8298 39.71C17.0462 39.8055 17.2918 39.811 17.5121 39.7256L20.8383 38.4371C21.059 38.3516 21.2364 38.1823 21.332 37.9659C21.4275 37.7495 21.433 37.5039 21.3476 37.2836L18.4485 29.7998L23.5643 27.818C25.5342 27.0501 27.6423 26.7028 29.7545 26.7981L34.268 27.3802C34.4158 27.3993 34.5659 27.381 34.7051 27.3276C34.9254 27.2422 35.103 27.0723 35.1986 26.8559C35.2943 26.6399 35.2998 26.3944 35.2143 26.1736L27.4831 6.21655C27.3695 5.92318 27.1096 5.71161 26.7994 5.6595C26.4893 5.60739 26.1747 5.72261 25.971 5.96239L23.0747 9.37981C21.5694 10.8973 19.76 12.0799 17.7657 12.8497L6.82962 17.0862C6.37036 17.2641 6.14211 17.781 6.32002 18.2403L7.28644 20.735L4.79199 21.7009C4.33273 21.8788 4.10447 22.3957 4.28238 22.855L6.85944 29.5073C6.94479 29.7277 7.11468 29.9053 7.33108 30.0009C7.54732 30.096 7.79263 30.1021 8.01338 30.0165L8.01337 30.0169ZM11.6316 17.1392L18.4103 14.5133C20.6585 13.6432 22.6964 12.3047 24.3881 10.5869L26.3618 8.25962L33.0098 25.4206L29.9121 25.0229L29.912 25.0224C27.528 24.9039 25.1454 25.2902 22.9202 26.1549L16.1416 28.7809L11.6316 17.1392ZM19.3628 37.0963L17.6995 37.7406L15.1224 31.0882L16.7853 30.4441L19.3628 37.0963ZM11.8488 27.5744L8.30532 18.4273L9.96819 17.7831L14.478 29.4248L12.8152 30.069L11.8488 27.5744ZM6.26773 23.042L7.93059 22.3979L9.86327 27.3869L8.20041 28.0311L6.26773 23.042Z" fill="#6D9773"/>
<path d="M29.7058 8.38515L35.2572 0.496419L36.716 1.523L31.1646 9.41172L29.7058 8.38515Z" fill="#6D9773"/>
<path d="M32.689 14.7189L37.678 12.7863L38.3221 14.4491L33.3331 16.3818L32.689 14.7189Z" fill="#6D9773"/>
<path d="M35.3335 23.0573L35.8464 21.3481L45.5855 24.2696L45.0727 25.9788L35.3335 23.0573Z" fill="#6D9773"/>
</svg>
