<svg width="355" height="355" viewBox="0 0 355 355" fill="none" xmlns="http://www.w3.org/2000/svg">
<g clip-path="url(#clip0_154_31118)">
<path d="M355 0H0V355H355V0Z" fill="white"/>
<path d="M302.217 254.795C300.245 293.26 269.426 328.117 231.647 335.615C193.868 343.113 152.522 323.17 134.114 289.338C132.082 285.605 130.273 281.689 128.465 277.773C123.795 267.665 119.126 257.56 110.637 250.607C100.944 242.668 88.4788 240.544 75.8876 238.4C67.8921 237.038 59.8459 235.667 52.4269 232.793C34.5424 225.866 20.6561 209.454 16.7851 190.669C10.5121 160.229 30.3818 129.149 56.879 112.905C83.3758 96.6599 115.215 92.1353 146.1 88.6492C157.914 87.3158 167.511 78.4124 174.365 68.6977C177.019 64.9371 179.406 60.9847 181.792 57.0362C185.568 50.7844 189.34 44.5401 194.157 39.0724C214.552 15.9204 252.532 12.0136 278.51 28.6613C304.487 45.309 316.921 79.5413 310.013 109.612C308.823 114.791 307.134 119.835 305.445 124.878L305.445 124.879C303.828 129.707 302.211 134.535 301.031 139.483C298.511 150.06 298.03 161.005 297.743 171.874C297.401 184.833 297.32 197.826 298.534 210.733C298.956 215.223 299.534 219.707 300.113 224.191C301.428 234.378 302.742 244.561 302.217 254.795Z" fill="#F4A259"/>
<path d="M146.057 79.4622C160.183 72.4351 171.425 60.2307 178.505 46.1313C179.434 44.2826 180.313 42.3184 180.281 40.25C180.248 38.1816 179.045 35.9907 177.044 35.4654C174.176 34.7127 171.711 37.4619 169.922 39.8265C157.639 56.0701 139.761 68.8222 119.587 71.603C111.839 72.6713 103.972 72.2699 96.161 71.8667L83.9604 71.2367C74.134 70.7292 64.1708 70.2322 54.5522 72.3059C44.9335 74.3791 35.5349 79.3662 30.252 87.6675C28.5705 90.3096 27.311 93.4232 27.7763 96.5207C28.253 99.6944 30.5091 102.388 33.2267 104.096C35.9442 105.803 39.1015 106.658 42.2304 107.372C44.5212 107.896 46.8611 108.359 49.2049 108.195C53.0375 107.925 56.5151 106.019 59.8989 104.165C60.1247 104.041 60.3495 103.918 60.5744 103.795C66.4887 100.569 72.6169 97.7031 79.0088 95.574C88.3302 92.4694 98.131 90.95 107.908 89.4344C121.079 87.3925 134.207 85.3576 146.057 79.4622Z" fill="black"/>
<path d="M72.5985 266.674L72.607 266.674C73.1826 266.697 73.7581 266.72 74.3318 266.75C83.4089 267.222 92.3914 269.447 100.639 273.267C103.784 274.724 106.968 276.546 108.735 279.528C110.92 283.218 113.543 286.647 116.531 289.722C117.691 290.915 118.946 292.082 120.494 292.691C122.042 293.301 123.954 293.245 125.209 292.154C126.735 290.829 126.834 288.475 126.364 286.51C125.593 283.289 123.672 280.482 121.77 277.771C115.529 268.874 108.958 259.979 100.273 253.446C91.5881 246.913 80.3796 242.958 69.749 245.215C66.0783 245.994 62.4402 247.582 60.0068 250.438C57.573 253.294 56.6111 257.593 58.3639 260.911C59.7546 263.543 62.5733 265.163 65.4596 265.893C67.7856 266.48 70.1949 266.577 72.5985 266.674Z" fill="black"/>
<path d="M318.121 132.858C315.694 131.943 312.946 133.048 310.892 134.631C306.835 137.758 304.436 142.65 303.344 147.654C302.252 152.659 302.34 157.835 302.433 162.956L303.235 206.958C303.294 210.172 303.437 213.637 305.414 216.173C306.032 216.966 306.879 217.663 307.88 217.765C309.093 217.889 310.216 217.123 311.092 216.275C315.883 211.635 316.512 204.328 317.085 197.668L317.106 197.426C317.949 187.649 319.408 177.925 321.472 168.332C322.053 165.634 322.691 162.919 323.905 160.441C327.711 152.672 326.801 142.81 321.637 135.869C320.702 134.614 319.585 133.41 318.121 132.858Z" fill="black"/>
<path d="M231.203 192.418C233.763 193.123 236.056 195.255 236.308 197.899C236.794 196.847 237.86 196.087 239.013 195.972L237.339 197.75L239.457 197.792L236.543 199.419C238.349 202.759 238.057 206.88 236.899 210.496C236.191 212.71 235.166 214.927 235.365 217.243C235.562 219.521 237.584 221.847 239.795 221.381L239.906 221.355C242.563 220.684 245.473 221.073 247.861 222.418C251.292 224.351 253.373 227.94 255.731 231.094C257.813 233.878 260.277 236.467 263.356 238.08C266.436 239.693 270.212 240.226 273.42 238.886C275.011 238.222 276.437 237.122 278.125 236.772C279.814 236.422 281.545 237.361 282.165 238.961C282.44 239.669 281.85 242.293 280.347 245.358C280.591 245.288 280.847 245.242 281.115 245.225C289.015 244.712 296.989 242.994 303.789 238.937C305.95 237.648 307.969 236.137 309.973 234.614L311.141 233.723L311.848 233.179C316.246 229.772 320.588 225.974 322.397 220.792L322.491 220.512L322.692 219.9C323.078 218.741 323.569 217.542 324.688 217.182C326.237 216.683 327.648 218.183 328.59 219.51L335.377 229.078C335.551 229.323 335.729 229.578 335.795 229.872C336.089 231.172 334.149 231.829 332.898 231.367C330.624 230.528 328.799 228.026 326.413 228.455C324.736 228.757 323.734 230.381 322.905 231.911L322.695 232.301C317.673 241.703 309.223 249.225 299.302 253.124C296.745 254.128 294.103 254.898 291.464 255.667L286.135 257.219L287.074 257.386C295.026 258.781 303.51 259.632 310.732 256.108C315.54 253.762 319.244 249.723 322.738 245.641L324.006 244.151L324.529 243.529C326.673 240.956 328.711 238.202 329.336 234.942C329.577 233.69 331.157 233.093 332.386 233.432C333.615 233.771 334.551 234.744 335.421 235.675L342.018 242.736C342.538 243.292 343.085 243.906 343.161 244.664C343.237 245.421 342.558 246.279 341.827 246.066L334.673 243.988C334.002 243.794 333.259 243.603 332.627 243.902C332.143 244.131 331.83 244.6 331.553 245.063L323.863 258.05C321.697 261.707 317.683 263.828 313.74 265.414C304.283 269.217 294.021 271.004 283.836 270.621C282.73 270.579 281.622 270.512 280.529 270.34C276.42 269.693 272.709 267.603 269.116 265.49C269.747 267.794 269.185 269.738 265.443 269.885C262.129 270.016 254.012 256.371 251.487 255.663C237.708 251.799 235.445 244.171 231.019 238.961C231.019 238.961 222.073 240.118 216.167 238.886C202.322 236 193.017 227.12 189.663 226.555C186.308 225.99 184.096 228.14 183.061 226.836V225.891C183.221 225.631 184.824 224.133 189.396 225.106C195.782 226.465 205.989 231.593 213.783 232.551C221.966 233.556 228.898 232.225 228.86 232.002C228.782 231.546 230.839 229.61 229.196 228.632C227.552 227.655 203.695 218.079 198.509 210.1L198.447 210C197.556 208.52 196.878 204.843 198.672 206.527L199.174 205.636C201.106 207.458 207.448 211.622 214.037 215.726C221.002 220.067 230.839 222.846 231.019 222.725C235.028 220.013 231.472 218.05 230.809 217.474C229.256 216.125 227.193 215.389 225.855 213.827C222.646 210.08 224.938 203.377 221.269 200.077C220.714 199.578 220.04 199.185 219.638 198.556C218.949 197.478 219.288 195.979 220.123 195.01C220.957 194.04 222.178 193.499 223.386 193.077C225.893 192.201 228.642 191.713 231.203 192.418Z" fill="white"/>
<path d="M233.353 212.527C233.876 212.527 234.3 212.103 234.3 211.58C234.3 211.057 233.876 210.633 233.353 210.633C232.831 210.633 232.407 211.057 232.407 211.58C232.407 212.103 232.831 212.527 233.353 212.527Z" fill="#FFB61D"/>
<path d="M227.582 212.527C227.969 212.527 228.284 212.103 228.284 211.58C228.284 211.057 227.969 210.633 227.582 210.633C227.194 210.633 226.879 211.057 226.879 211.58C226.879 212.103 227.194 212.527 227.582 212.527Z" fill="#FFB61D"/>
<path d="M193.276 216.167C184.474 213.891 175.224 213.366 166.221 214.631C166.902 211.267 167.755 207.937 168.775 204.659C165.846 205.604 162.387 202.92 162.577 199.847C162.766 196.775 166.528 194.536 169.319 195.834C170.277 193.622 170.338 191.035 169.485 188.78C169.075 187.699 170.707 187.075 171.864 187.075L178.255 187.073C179.149 187.073 180.394 186.658 180.172 185.793C179.646 183.74 181.057 181.396 183.117 180.9C185.139 180.413 187.415 181.798 187.937 183.805L187.965 183.917C188.45 186.072 191.18 186.756 193.388 186.714L194.488 186.687C196.398 186.647 198.389 186.709 199.668 188.045C201.197 189.644 200.855 192.188 200.351 194.358L200.318 194.502C199.603 197.513 198.842 200.514 198.033 203.502C199.603 216.136 195.716 216.798 193.276 216.167Z" fill="white"/>
<path d="M119.865 205.619C118.932 199.547 118.934 193.332 119.869 187.259L119.916 186.965C120.149 185.587 120.556 184.133 121.708 183.374C122.57 182.805 123.658 182.763 124.697 182.762L132.646 182.784C133.008 182.785 133.405 182.798 133.677 183.037C133.949 183.276 133.941 183.823 133.593 183.92C132.76 184.151 132.282 185.111 132.382 185.969C132.484 186.827 133.042 187.57 133.697 188.133C135.259 189.477 137.688 189.954 139.418 188.834C141.148 187.714 141.555 184.829 139.915 183.58C143.629 183.504 147.344 183.516 151.057 183.615L152.449 183.656C152.899 183.67 153.396 183.706 153.711 184.029C153.947 184.271 154.025 184.622 154.078 184.956C154.489 187.527 154.039 190.227 152.818 192.525C152.623 192.891 152.172 193.295 151.865 193.016C150.561 191.832 148.367 191.993 147.032 193.143C145.697 194.293 145.181 196.203 145.417 197.949C145.644 199.63 146.869 201.425 148.563 201.34C149.897 201.273 151.38 200.107 152.388 200.983L150.69 208.571C150.388 209.919 149.846 211.518 148.496 211.807C140.698 213.475 132.522 213.349 124.779 211.441L124.403 211.346C123.464 211.1 122.528 210.782 121.795 210.154C120.519 209.062 120.12 207.279 119.865 205.619Z" fill="white"/>
<path d="M181.043 146.073L199.887 146.452L200.194 146.46C200.761 146.478 201.33 146.527 201.84 146.765C202.992 147.303 203.52 148.628 203.87 149.85C205.74 156.373 205.51 163.48 203.22 169.867L203.124 170.129C202.826 170.915 202.437 171.699 201.733 172.141C201.154 172.505 200.448 172.581 199.761 172.618L199.615 172.625C196.812 172.758 194.001 172.686 191.209 172.411C192.663 171.516 193.03 169.336 192.107 167.9C191.184 166.464 189.233 165.865 187.591 166.331C186.59 166.615 185.657 167.3 185.295 168.275C184.933 169.251 185.283 170.504 186.208 170.98C186.848 171.309 186.738 172.347 186.178 172.799C185.618 173.251 184.839 173.283 184.119 173.294L174.665 173.448C173.954 173.459 173.207 173.462 172.583 173.122C171.698 172.639 171.292 171.599 171.042 170.622C170.441 168.266 170.36 165.779 170.806 163.389C171.343 165.276 173.67 166.423 175.494 165.699C177.319 164.975 178.227 162.545 177.323 160.802C176.42 159.059 173.912 158.4 172.268 159.473L172.2 158.864C171.964 156.729 171.781 154.566 172.191 152.463C172.64 150.16 173.921 147.898 176.021 146.852C177.553 146.088 179.322 146.046 181.043 146.073Z" fill="white"/>
<path d="M123.891 167.272C121.237 167.282 118.583 167.173 115.94 166.945L115.683 166.921C114.736 166.826 113.743 166.637 113.123 165.933C112.286 164.983 112.49 163.55 112.742 162.297L112.767 162.172C113.891 156.672 114.332 151.033 114.079 145.425L114.031 144.458C113.961 142.719 114.072 140.748 115.516 139.854C115.956 139.582 116.466 139.455 116.974 139.353L117.143 139.32C126.391 137.518 136.019 137.701 145.191 139.851C146.399 140.135 146.735 141.77 146.335 142.945C145.934 144.119 145.074 145.106 144.752 146.304C144.431 147.502 145.02 149.124 146.26 149.162C148.841 149.243 151.028 151.865 150.681 154.423C150.334 156.981 147.569 158.922 145.038 158.414C144.444 158.295 144.234 159.173 144.299 159.775L145.021 166.453C145.139 167.543 143.592 167.888 142.499 167.802L136.122 167.306C135.12 167.228 133.776 167.401 133.622 168.394C133.238 170.866 130.703 172.797 128.217 172.511C125.731 172.224 123.702 169.767 123.891 167.272Z" fill="white"/>
<path fill-rule="evenodd" clip-rule="evenodd" d="M106.725 208.372C107.433 208.544 108.446 208.849 108.39 209.519C107.257 223.004 102.383 220.523 98.0363 224.389C96.888 225.411 96.2017 227.828 95.7085 227.883C97.5374 228.728 100.192 232.117 104.76 232.272C117.49 232.703 122.123 223.416 122.123 223.416C122.422 220.437 120.912 215.074 122.797 216.576C124.099 217.613 123.841 212.562 125.619 213.065C126.153 213.216 125.22 216.574 125.619 216.775C125.839 216.886 126.165 215.97 126.734 215.242C127.208 214.635 127.939 214.185 128.091 214.318C128.193 214.408 128.095 215.276 127.668 216.01C127.068 217.042 126.064 218.035 126.205 218.201C126.359 218.383 129.005 215.921 129.166 216.136C130.237 217.564 123.456 234.003 112.013 237.106L111.106 237.35C104.436 239.122 101.635 239.364 95.4543 237.106C92.5239 236.036 90.7015 246.033 89.0723 249.361C88.0438 251.462 83.0482 256.611 80.7672 255.054C77.7578 253 75.3035 249.175 72.7423 247.241L72.5776 247.12C70.8324 245.869 66.8843 243.969 60.7339 241.423L61.0112 241.294C62.2944 240.711 65.5992 239.285 68.1373 237.106C71.7431 234.01 73.6966 227.36 76.21 223.774C78.6921 220.233 82.0225 220.754 80.0127 220.127C80.0127 220.127 74.9192 217.429 72.5776 217.182C64.7577 216.357 54.564 220.053 51.3027 222.434C46.8282 225.702 51.2738 230.511 45.0912 228.154C43.0306 227.369 48.5536 217.191 56.1719 213.065C66.7608 207.329 76.7732 205.752 86.8117 214.882C90.897 218.598 91.3012 221.905 92.3965 224.427L92.1727 223.81C104.282 223.011 86.1381 210.887 101.286 207.853C102.877 207.534 104.546 207.866 106.141 208.235L106.725 208.372Z" fill="white"/>
<path d="M98.9266 217.733C99.4495 217.733 99.8733 217.309 99.8733 216.787C99.8733 216.264 99.4495 215.84 98.9266 215.84C98.4038 215.84 97.98 216.264 97.98 216.787C97.98 217.309 98.4038 217.733 98.9266 217.733Z" fill="#FFB61D"/>
<path d="M104.133 219.627C104.656 219.627 105.08 219.203 105.08 218.68C105.08 218.157 104.656 217.733 104.133 217.733C103.61 217.733 103.187 218.157 103.187 218.68C103.187 219.203 103.61 219.627 104.133 219.627Z" fill="#FFB61D"/>
<path fill-rule="evenodd" clip-rule="evenodd" d="M49.176 253.499C59.4374 260.605 46.3085 250.79 57.5199 262.486C59.7839 264.848 71.2471 251.359 72.4299 259.353C72.8612 262.269 71.9206 265.304 72.4939 268.196C73.0292 270.893 84.7631 269.274 85.6696 268.094C88.9554 263.817 78.73 252.829 76.5863 251.072C64.6218 241.271 60.6733 241.951 49.4941 252.092L49.176 253.499Z" fill="white"/>
<path fill-rule="evenodd" clip-rule="evenodd" d="M316.109 75.9009C318.122 76.1418 319.993 76.3652 319.993 74.0194C319.993 73.4613 313.219 68.5585 311.212 70.4467C308.631 72.8749 306.581 75.659 304.596 78.3561C300.428 84.0176 296.543 89.2943 288.622 90.0805L288.526 90.091C285.456 90.4616 291.177 93.1866 297.601 90.0805C302.017 87.9444 307.894 81.1871 310.685 77.9779C311.415 77.1377 311.935 76.5408 312.161 76.3335L312.22 76.2834C313.171 75.5497 314.676 75.7296 316.109 75.9009ZM325.665 82.2497L332.367 87.5695C333.672 88.6061 332.143 90.8393 330.48 90.9463C329.514 91.0088 328.589 90.7115 327.658 90.4128C326.985 90.197 326.309 89.9802 325.615 89.8978C321.679 89.4326 318.678 93.1392 316.236 96.2613C314.006 99.1141 311.562 101.801 308.934 104.293L308.578 104.627L308.208 104.968C306.094 106.89 303.723 108.631 300.934 109.133C296.827 109.872 292.748 107.769 289.393 105.287C288.575 104.681 287.771 104.046 286.966 103.411C284.475 101.441 281.98 99.4696 279.025 98.3643C276.465 99.7612 274.069 101.45 271.881 103.375L271.978 103.298C275.652 106.98 278.221 111.751 279.273 116.845L278.57 116.722L278.106 116.643C273.765 115.915 269.116 115.484 265.448 117.807C264.155 118.625 263.002 119.768 261.862 120.899C261.068 121.686 260.281 122.466 259.457 123.127C259.666 123.252 259.88 123.381 260.099 123.515C264.159 125.176 268.461 126.239 272.827 126.661C273.494 126.726 274.169 126.777 274.845 126.828C277.976 127.066 281.148 127.307 283.824 128.879L284.763 129.44C286.269 130.331 287.945 131.18 289.207 130.148C289.57 129.85 289.807 129.444 290.046 129.035C290.191 128.786 290.336 128.537 290.511 128.311C290.972 127.714 291.887 127.294 292.46 127.784L292.692 129.608C292.861 128.435 293.993 127.481 295.178 127.514C296.363 127.547 297.441 128.562 297.544 129.743C297.731 131.886 295.301 133.169 293.238 133.852L282.546 137.297C278.726 138.529 274.49 137.891 270.807 136.295C267.378 134.809 264.353 132.548 261.462 130.17L260.822 129.641C258.638 127.824 255.688 125.85 253.211 127.24C257.515 127.502 260.654 131.211 263.221 134.719L263.467 135.058C263.883 135.63 264.311 136.233 264.413 136.933C264.701 138.894 262.474 140.195 260.593 140.818C262.178 141.667 261.393 144.132 260.165 145.445C258.378 147.356 256.038 148.73 253.514 149.411L253.284 150.209C253.269 150.263 253.263 150.29 253.264 150.291C254.455 150.209 255.189 151.808 254.704 152.898C254.219 153.988 253.022 154.569 251.873 154.894C248.09 155.963 243.816 155.119 240.723 152.691L240.122 153.005C237.508 154.357 234.805 155.615 231.901 156.041C228.773 156.501 225.33 155.856 223.069 153.646L223.218 153.972C223.537 154.681 223.825 155.415 223.835 156.188C223.846 157.079 223.385 158.042 222.541 158.328C221.147 158.8 219.93 157.31 219.207 156.029C218.811 157.016 219.219 158.126 219.616 159.205C220.07 160.436 220.508 161.627 219.72 162.549C218.9 163.51 217.344 163.264 216.215 162.697C211.986 160.576 209.999 155.237 210.915 150.595C211.831 145.954 215.169 142.067 219.143 139.5C216.445 137.522 214.471 134.578 213.667 131.33C213.881 131.607 214.837 130.718 216.196 129.454C218.682 127.144 222.514 123.582 225.611 123.616C226.204 123.622 227.162 124.081 228.099 124.53H228.1C228.779 124.856 229.448 125.176 229.961 125.316C230.004 125.262 230.055 125.212 230.114 125.169L229.529 124.748C228.35 123.911 227.12 123.124 225.725 122.777C224.097 122.372 222.169 122.705 221.132 124.023C218.596 127.247 215.383 129.936 211.763 131.864L213.909 135.826C213.022 136.249 211.917 136.172 211.094 135.637L210.993 135.568L211.056 135.648C212.292 137.26 211.206 140.071 209.183 140.39C207.129 141.251 205.058 138.678 205.261 136.46C205.402 134.906 206.172 133.528 206.944 132.149C207.273 131.559 207.602 130.97 207.883 130.366C208.833 128.326 209.25 126.06 209.665 123.807C210.234 120.721 210.797 117.662 212.719 115.249C214.065 113.559 215.95 112.384 217.883 111.421C225.556 107.596 234.636 106.682 242.917 108.899C244.328 103.846 247.124 99.1865 250.92 95.5651L251.146 95.3525C252.599 94.0144 254.405 92.8193 256.331 93.0389L256.484 93.0592C258.396 93.3508 260.059 91.875 261.449 90.5089L261.878 90.0881L262.213 89.7644C264.972 87.1293 268.175 84.6978 271.944 84.4356C275.297 84.2022 278.507 85.7415 281.401 87.4507C284.675 89.3847 287.79 91.5886 290.703 94.0334L291.215 94.4674L291.365 94.5957L291.532 94.7386L291.627 94.821C294.374 97.1805 297.38 99.7626 300.956 99.5486C304.622 99.329 307.301 96.2855 309.769 93.4814L309.769 93.4805L309.771 93.4796C309.969 93.2533 310.167 93.0285 310.364 92.8069C313.409 89.38 316.875 86.3625 320.384 83.407L321.889 82.1432C322.345 81.7617 322.835 81.3641 323.424 81.2874C324.254 81.18 325.01 81.73 325.665 82.2497ZM259.4 140.342C258.656 140.194 257.639 140.259 256.351 140.537C257.199 140.54 257.913 140.525 258.493 140.491C258.774 140.457 259.053 140.413 259.327 140.358L259.4 140.342ZM231.804 123.933C232.075 123.654 232.362 123.36 232.68 123.108C233.272 122.796 233.938 122.638 234.609 122.702C236.88 122.918 238.599 125.332 238.302 127.594C237.104 130.563 234.138 132.258 231.204 133.934C229.397 134.966 227.602 135.992 226.241 137.305C226.582 136.741 226.956 136.291 227.335 136.015C228.52 135.153 229.757 134.406 230.924 133.702C231.905 133.11 232.836 132.549 233.642 131.975C234.91 131.072 235.761 130.214 236.421 129.549H236.421C236.926 129.041 237.318 128.645 237.699 128.429C237.73 128.412 239.161 125.511 235.702 123.616C233.091 122.184 231.927 123.995 231.302 124.968C231.099 125.284 230.953 125.511 230.832 125.511C230.801 125.511 230.757 125.506 230.702 125.497C230.789 125.188 230.92 124.89 231.088 124.611C231.322 124.426 231.557 124.186 231.804 123.933ZM232.542 123.185C231.948 123.529 231.438 124.029 231.088 124.611L231.002 124.676C230.83 124.801 230.657 124.893 230.479 124.935C230.12 125.02 229.264 124.364 228.539 123.807C228.105 123.475 227.718 123.178 227.512 123.097C226.157 122.565 225.998 122.558 225.058 122.513C224.899 122.506 224.718 122.497 224.505 122.485L224.115 122.46C224.03 122.456 223.935 122.452 223.835 122.448C223.056 122.415 221.934 122.368 222.158 121.762C226.163 110.921 243.277 108.562 240.447 120.816C240.213 121.829 239.599 122.716 238.985 123.603C238.677 124.047 238.37 124.49 238.111 124.95C237.005 123.378 235.8 122.55 234.496 122.465C233.769 122.417 233.185 122.709 232.68 123.108L232.542 123.185ZM263.584 113.46L263.587 113.454C262.646 115.244 261.634 117.399 260.553 119.918C261.366 117.68 262.384 115.517 263.584 113.46ZM271.214 115.111L271.083 115.116C270.039 115.16 269.102 115.316 268.273 115.585C267.353 115.883 266.374 116.381 265.336 117.08C267.152 116.074 269.159 115.401 271.214 115.111Z" fill="white"/>
<path fill-rule="evenodd" clip-rule="evenodd" d="M217.817 160.514C216.996 161.474 215.807 161.165 214.717 160.103C212.438 157.88 211.521 153.591 212.438 148.949C213.354 144.308 216.924 142.396 220.898 139.829C219.115 139.094 215.884 134.437 215.56 129.911C216.659 131.33 216.717 133.875 217.817 135.294C218.859 136.64 220.944 138.278 221.987 139.624C222.12 139.796 222.235 140.085 222.046 140.192C218.236 142.356 215.768 143.073 213.52 148.949C211.273 154.826 215.835 160.263 216.442 160.103C217.188 159.905 216.924 158.915 216.495 158.272C215.285 156.46 216.436 154.044 217.422 152.101C217.95 152.692 216.682 154.388 216.949 156.151C217.21 157.873 218.547 159.659 217.817 160.514Z" fill="#E7EAEE"/>
<path d="M233.353 142C233.876 142 234.3 141.576 234.3 141.053C234.3 140.53 233.876 140.107 233.353 140.107C232.831 140.107 232.407 140.53 232.407 141.053C232.407 141.576 232.831 142 233.353 142Z" fill="#FFB61D"/>
<path d="M230.04 138.213C230.563 138.213 230.987 137.79 230.987 137.267C230.987 136.744 230.563 136.32 230.04 136.32C229.517 136.32 229.093 136.744 229.093 137.267C229.093 137.79 229.517 138.213 230.04 138.213Z" fill="#FFB61D"/>
<path d="M88.4707 146.563C89.0184 147.584 88.1579 149.045 86.9991 149.062C86.007 143.483 84.9368 137.711 81.7077 133.055C75.5251 124.141 62.7839 121.213 57.4906 111.743C53.8862 114.308 48.3747 113.654 45.4708 110.316C43.6649 108.241 40.5169 107.986 37.8047 108.449C35.0926 108.912 32.4429 109.936 29.6929 109.849C28.4997 109.811 27.1996 109.49 26.5051 108.519C25.8106 107.548 26.2118 105.839 27.3936 105.67C32.5423 104.933 37.691 104.196 42.8396 103.459C43.244 103.401 43.673 103.332 43.9799 103.063C44.3272 102.758 44.4363 102.27 44.5264 101.817C45.2718 98.0661 45.8088 93.5941 43.0466 90.9486C40.7573 88.7566 37.1441 88.8319 34.0339 89.4434C30.9237 90.0554 27.7183 91.0618 24.6532 90.2538C21.5881 89.4463 19.0248 85.8054 20.6771 83.1003C21.7839 81.2884 20.5359 78.8725 18.8288 77.6101C17.1217 76.3482 14.9972 75.7267 13.3425 74.3966C11.6878 73.0661 10.6377 70.4997 11.9557 68.8354C12.5353 68.1037 13.4429 67.7179 14.3334 67.4367C17.2804 66.5071 20.5665 66.4366 23.4073 67.6526C26.248 68.869 28.5549 71.4762 29.0172 74.5315C29.3938 77.0208 28.6782 79.9167 30.3238 81.8218C32.4752 84.313 36.4515 82.9157 39.7429 82.8859C43.1092 82.8551 46.438 84.64 48.2753 87.4606C50.1127 90.2817 50.4001 94.0475 49.0113 97.1143C52.9215 93.1359 58.1878 90.0838 63.7623 90.2916C68.9112 90.4838 73.6421 93.4455 77.0856 97.278C80.5291 101.111 82.8783 105.778 85.182 110.387C86.0402 112.104 88.217 113.035 90.0512 112.469C91.8854 111.903 93.1591 109.907 92.9007 108.005C94.4991 108.354 94.6657 110.514 94.7149 112.15C94.8181 115.586 96.0625 118.978 98.2053 121.666C98.9219 120.343 99.4691 118.929 99.8284 117.469C101.392 119.267 101.976 121.869 101.329 124.163C100.683 126.457 98.8263 128.371 96.5534 129.088C95.344 129.469 93.8648 129.653 93.2646 130.77C95.5329 134.741 97.4835 138.894 99.0923 143.175C99.9548 145.47 100.577 148.424 98.7615 150.073C96.6622 148.523 95.469 146.064 94.3552 143.704C92.6181 140.023 90.8805 136.342 89.1429 132.661" fill="white"/>
<path fill-rule="evenodd" clip-rule="evenodd" d="M94.2019 109.715C93.7456 114.173 95.4141 118.801 98.6096 121.942C99.7489 121.255 100.478 119.935 100.452 118.605C101.65 120.574 100.979 123.243 99.49 125.002C98.0009 126.761 95.8647 127.816 93.7915 128.822C92.6039 129.398 91.3709 129.987 90.0508 130.026C88.0372 130.086 86.2333 128.875 84.5871 127.714L79.7567 124.309C82.2526 128.966 87.9326 131.678 93.1232 130.69C96.7323 135.753 98.9423 141.804 99.4464 148.001L98.4761 146.208C98.4671 146.187 98.4557 146.165 98.4411 146.143L98.4761 146.208C98.6157 146.552 98.0704 146.933 97.7031 146.755C97.3126 146.566 97.1654 146.095 97.0499 145.677C95.629 140.525 93.0825 135.685 89.6399 131.597L94.8522 142.64C95.9665 145 97.1593 147.458 99.2585 149.008C101.075 147.36 100.452 144.406 99.5894 142.111C97.9805 137.829 96.0299 133.677 93.7622 129.706C94.2492 128.799 95.3161 128.507 96.3475 128.226H96.348C96.5861 128.16 96.8232 128.096 97.0504 128.024C99.3233 127.307 101.18 125.393 101.826 123.099C102.473 120.805 101.889 118.203 100.325 116.404C99.9661 117.865 99.419 119.279 98.7023 120.602C96.5596 117.913 95.3156 114.522 95.212 111.086C95.1627 109.45 94.9961 107.29 93.3977 106.941C93.6561 108.843 92.3824 110.839 90.5482 111.405C88.7141 111.97 86.5372 111.04 85.679 109.323C83.3753 104.714 81.0262 100.047 77.5827 96.2135C74.1392 92.3809 69.4082 89.4198 64.2593 89.2276C58.6848 89.0198 53.4185 92.0718 49.5083 96.0502C50.8971 92.9835 50.6098 89.2172 48.7728 86.3966C46.9351 83.576 43.6063 81.7911 40.24 81.8218C39.3861 81.8294 38.4861 81.9293 37.5838 82.0291C35.0083 82.315 32.4141 82.6023 30.8209 80.7578C29.6956 79.4547 29.6745 77.6887 29.6531 75.9061C29.6433 75.082 29.6334 74.2542 29.5143 73.4675C29.052 70.4121 26.7452 67.805 23.9044 66.5885C21.0636 65.3721 17.7776 65.4431 14.8305 66.3727C13.9401 66.6538 13.0325 67.0391 12.4528 67.7714C11.1348 69.4356 12.185 72.002 13.8396 73.3321C14.7105 74.0322 15.7115 74.5363 16.7133 75.0404C17.6149 75.4943 18.5173 75.9482 19.3259 76.546C21.0331 77.8084 22.281 80.2243 21.1743 82.0362C19.5219 84.7413 22.0852 88.3822 25.1504 89.1897C27.6841 89.8576 30.3138 89.2853 32.9062 88.7216C33.4498 88.6033 33.9919 88.4854 34.531 88.3794C37.6412 87.7678 41.2544 87.6921 43.5437 89.8846C46.3059 92.53 45.7689 97.0016 45.0235 100.753C44.9335 101.206 44.8244 101.694 44.4771 101.999C44.1702 102.268 43.7411 102.337 43.3368 102.395L27.8908 104.606C26.7089 104.775 26.3078 106.484 27.0022 107.455C27.6967 108.426 28.9968 108.747 30.1901 108.785C32.0146 108.843 33.7949 108.411 35.5786 107.979C36.4835 107.76 37.3891 107.541 38.3018 107.385C41.014 106.922 44.162 107.176 45.9679 109.252C48.8717 112.59 54.3832 113.244 57.9876 110.679C60.7732 115.661 65.6206 118.833 70.4898 122.019C74.8738 124.888 79.2753 127.767 82.2048 131.991C85.4339 136.647 86.5041 142.419 87.4962 147.997C88.6549 147.981 89.5154 146.52 88.9682 145.499L87.8796 146.935C87.4772 138.143 82.9867 129.622 75.9615 124.321C74.222 123.007 72.314 121.857 70.4103 120.708C66.2269 118.185 62.0635 115.673 59.7475 111.481C59.5387 111.104 59.3447 110.704 59.3106 110.274C59.268 109.73 59.4848 109.206 59.694 108.699L59.7238 108.627C60.5588 106.601 61.1424 104.379 60.732 102.227C60.3221 100.074 58.7019 98.0396 56.535 97.7154C60.2028 100.062 60.9545 105.884 58.0032 109.084C55.0515 112.285 49.1879 112.007 46.5527 108.541C44.4409 105.763 40.2179 106.104 36.8187 106.891C33.4195 107.679 29.4166 108.504 26.7907 106.206C32.4086 104.661 38.1895 103.71 44.0061 103.374C45.3917 103.293 45.9353 101.565 46.1219 100.19C46.4088 98.0751 46.6957 95.9267 46.3814 93.8166C46.0671 91.706 45.064 89.601 43.2732 88.4409C41.1227 87.0479 38.3465 87.2637 35.7982 87.5307L29.0262 88.2393C27.567 88.3917 26.0674 88.5417 24.6526 88.1531C23.2379 87.7645 21.9067 86.7095 21.6355 85.2677C21.4642 84.357 21.7248 83.4605 21.9877 82.5564C22.1769 81.9056 22.3672 81.251 22.3983 80.5845C22.4866 78.6869 21.2609 76.9484 19.7715 75.7698C18.8589 75.0475 17.8421 74.479 16.8243 73.9105C16.1809 73.5508 15.5371 73.1911 14.9191 72.792C13.7558 72.0409 12.5621 70.8272 12.8856 69.4806C13.0924 68.6196 13.8716 68.0227 14.655 67.61C17.2999 66.2155 20.606 66.1531 23.3018 67.4457C25.9977 68.7389 28.0184 71.3564 28.5868 74.2916C28.727 75.0158 28.7907 75.7721 28.8543 76.5271C29.0014 78.2728 29.1478 80.0104 30.2387 81.3224C31.5417 82.8892 33.7938 83.2839 35.8294 83.1869C36.5273 83.1538 37.2252 83.0757 37.9225 82.9976C39.259 82.848 40.5933 82.6984 41.922 82.8655C46.39 83.4283 49.9102 88.0769 49.2404 92.53C49.2035 92.7766 49.1557 93.0251 49.1079 93.2741C48.9375 94.1626 48.7652 95.0595 49.0686 95.8935C49.4572 96.9623 51.1565 97.5313 51.6951 96.5297C54.1077 92.0434 59.6419 89.7828 64.7014 90.3754C69.7608 90.968 74.2887 94.0144 77.6106 97.8768C80.932 101.739 83.1917 106.386 85.2526 111.045C85.9787 112.686 88.1399 113.28 89.8661 112.792C91.5929 112.304 92.9632 111.013 94.2019 109.715ZM85.1352 117.534C85.1844 117.528 85.298 117.75 85.4698 118.086C85.892 118.913 86.6645 120.425 87.6827 120.885C87.6372 121.313 86.9637 121.083 86.6835 120.756C85.8873 119.826 85.0424 118.756 85.1352 117.534ZM87.5388 124.878C88.0646 125.648 84.9165 126.032 83.8704 125.359C84.0546 125.324 84.2974 125.343 84.5662 125.364C84.8853 125.388 85.2407 125.416 85.5787 125.359C86.0733 125.276 86.5509 125.124 86.9116 125.01C87.2614 124.898 87.5009 124.822 87.5388 124.878ZM86.7833 122.015C85.5304 122.23 83.9907 120.561 83.9907 118.992C84.3518 120.152 85.635 121.073 86.3441 121.581C86.7048 121.84 86.9168 121.993 86.7833 122.015ZM91.2729 128.579C89.6039 128.579 88.8475 125.765 89.6039 125.584C89.7847 125.502 89.7933 125.754 89.806 126.126C89.8193 126.518 89.8368 127.042 90.0645 127.45C90.3172 127.904 90.8526 128.207 91.165 128.384C91.4012 128.518 91.51 128.579 91.2729 128.579ZM93.1321 124.747C93.4985 124.949 93.8327 125.262 93.9278 125.669C94.0225 126.077 93.7948 126.571 93.3849 126.655C93.2566 126.467 93.3262 126.347 93.3996 126.22C93.5075 126.035 93.6235 125.835 93.1321 125.383C92.9253 125.192 92.6844 125.109 92.5154 125.051C92.3857 125.006 92.2981 124.976 92.3015 124.923C92.3228 124.585 92.8349 124.583 93.1321 124.747ZM90.0081 121.08C89.9258 121.137 89.869 121.177 89.9177 121.222C90.0683 121.362 90.2458 121.429 90.4233 121.328C90.5582 121.25 90.6268 121.092 90.659 120.939C90.837 120.087 89.9367 119.206 89.088 119.404C89.1633 119.602 89.3076 119.665 89.4823 119.742C89.6844 119.831 89.9272 119.938 90.153 120.292C90.4569 120.768 90.1781 120.962 90.0081 121.08ZM89.7227 129.117C88.7401 128.831 87.7683 126.511 88.2914 126.335C88.618 126.225 88.6161 126.243 88.5971 126.426C88.5796 126.594 88.5479 126.902 88.7401 127.378C88.9791 127.969 89.3133 128.449 89.5263 128.755C89.6721 128.964 89.7611 129.092 89.7227 129.117ZM314.803 76.4277C312.694 76.6871 311.031 78.3887 309.982 80.2376C309.475 81.1312 309.07 82.0774 308.664 83.0231L308.664 83.0236C308.23 84.0342 307.797 85.0443 307.241 85.9905C304.586 90.5056 299.542 92.9731 294.708 94.9899C293.875 95.3378 292.415 95.1741 292.675 94.3093C300.588 92.8079 307.402 86.5419 309.559 78.7811C309.813 77.8671 308.624 77.0951 307.706 77.337C306.876 77.5557 306.285 78.2481 305.751 78.9354L305.585 79.1517C301.176 84.8852 294.848 89.7322 287.623 90.0455C287.112 90.0673 286.38 89.7554 286.605 89.2957C291.956 89.1164 297.001 86.4747 300.975 82.8859C304.949 79.2971 307.979 74.7985 310.813 70.2559C311.252 69.5535 312.305 69.7035 313.089 69.971C315.494 70.7913 317.802 71.8974 319.947 73.2592C321.099 73.9905 320.187 75.9411 318.877 76.3236C318.125 76.5437 317.339 76.4902 316.549 76.4367C315.965 76.3969 315.379 76.3572 314.803 76.4277ZM312.748 71.9538L312.563 71.8979C312 71.7365 311.371 71.6466 310.918 71.9964C310.743 72.1317 310.617 72.3187 310.501 72.5095L308.995 75.0489C309.786 75.2316 310.544 75.5558 311.222 76.0008C311.777 76.3643 312.54 76.3785 313.108 76.0353C313.675 75.6921 314.017 75.0091 313.952 74.3493C313.928 74.1032 314.331 74.0364 314.5 74.2172C314.626 74.3526 314.663 74.5382 314.701 74.7232V74.7237C314.713 74.7862 314.726 74.8482 314.742 74.9088C314.806 75.1478 315.001 75.4048 315.243 75.3561C315.489 75.1223 315.623 74.7763 315.599 74.4383C315.687 74.0894 316.232 74.4004 316.316 74.7502C316.4 75.1 316.558 75.5975 316.906 75.5042C317.416 75.3779 317.577 74.6664 317.328 74.203C317.079 73.7392 316.579 73.4774 316.101 73.2559C315.012 72.7513 313.892 72.3163 312.748 71.9538ZM308.17 76.0822C308.957 76.8736 310.101 77.2944 311.212 77.2016C310.531 76.3439 309.372 75.8957 308.291 76.0613L308.17 76.0822ZM251.873 154.893C248.09 155.963 243.816 155.119 240.723 152.691C237.923 154.159 235.028 155.582 231.901 156.041C228.773 156.501 225.33 155.856 223.069 153.646C223.442 154.456 223.823 155.296 223.835 156.187C223.846 157.079 223.385 158.041 222.541 158.328C221.148 158.8 219.93 157.31 219.207 156.029C218.811 157.015 219.219 158.126 219.616 159.205C220.07 160.436 220.508 161.627 219.72 162.549C218.9 163.51 217.344 163.264 216.215 162.697C211.986 160.576 209.999 155.237 210.915 150.595C211.831 145.954 215.169 142.067 219.143 139.5C216.445 137.522 214.471 134.578 213.667 131.33C214.216 132.039 214.624 132.863 215.032 133.687C215.439 134.51 215.847 135.335 216.397 136.044C216.918 136.717 217.581 137.275 218.245 137.834H218.245C218.909 138.392 219.572 138.95 220.094 139.623C220.227 139.795 220.342 140.084 220.153 140.191C216.343 142.355 213.084 145.803 212.003 150.05C210.922 154.295 212.426 159.308 216.157 161.605C216.815 162.01 217.599 162.335 218.345 162.137C219.092 161.941 219.652 161.003 219.223 160.361C218.014 158.549 217.866 156.079 218.853 154.136L221.979 157.642C222.698 157.457 222.876 156.49 222.684 155.773C222.624 155.545 222.541 155.321 222.458 155.097L222.458 155.097C222.279 154.614 222.101 154.134 222.149 153.629C222.219 152.89 223.184 152.229 223.693 152.769C225.727 154.924 228.993 155.535 231.917 155.061C234.842 154.586 237.521 153.182 240.14 151.799L243.233 150.166C243.009 151.058 242.287 151.807 241.403 152.061C244.388 154.205 248.379 154.879 251.902 153.834C252.509 153.654 253.132 153.404 253.526 152.908C253.919 152.413 253.983 151.606 253.507 151.188C253.45 151.137 253.385 151.092 253.32 151.048C253.193 150.96 253.066 150.873 252.994 150.739C252.884 150.538 253.054 150.199 253.264 150.291C254.455 150.208 255.189 151.807 254.704 152.898C254.219 153.988 253.022 154.568 251.873 154.893ZM230.749 139.068C230.069 138.849 229.306 139.318 229.011 139.968C228.715 140.618 228.799 141.382 229.022 142.06C229.093 141.295 229.191 140.719 229.481 140.216C229.605 139.999 229.992 139.794 230.332 139.614C230.771 139.382 231.132 139.191 230.749 139.068ZM230.172 137.145C231.164 136.898 232.284 137.28 232.918 138.082C233.553 138.883 233.667 140.061 233.2 140.969C233.087 140.833 233.06 140.587 233.027 140.278C232.929 139.367 232.772 137.91 230.172 137.145ZM229.312 144.19C228.998 144.581 230.091 145.616 231.8 144.902C232.117 144.77 231.859 144.755 231.451 144.731C231.08 144.709 230.585 144.68 230.289 144.549C230.04 144.437 229.912 144.259 229.816 144.125C229.674 143.927 229.602 143.828 229.312 144.19ZM232.775 145.5C233.871 144.954 233.183 146.554 230.892 146.358C230.686 146.34 230.415 146.26 230.417 146.052C230.418 145.979 230.612 145.962 230.913 145.936C231.381 145.895 232.109 145.832 232.775 145.5ZM226.017 142.463C226.429 142.866 227.03 142.876 227.43 142.799C227.674 142.752 227.794 142.533 227.57 142.463C227.518 142.446 227.431 142.433 227.327 142.417C227.089 142.379 226.76 142.327 226.539 142.194C226.398 142.108 226.317 141.817 226.248 141.567C226.177 141.31 226.118 141.097 226.017 141.197C225.819 141.394 225.605 142.06 226.017 142.463ZM226.383 143.825C226.582 144.129 225.823 144.024 225.659 143.825C225.496 143.626 225.335 142.876 225.609 142.876C225.688 142.876 225.715 142.994 225.747 143.136C225.778 143.266 225.812 143.417 225.896 143.513C226.061 143.699 226.171 143.726 226.251 143.747C226.306 143.76 226.347 143.771 226.383 143.825ZM260.567 142.317C260.976 143.136 260.26 144.054 259.568 144.653C256.758 147.093 253.4 148.897 249.815 149.895C253.679 149.921 257.526 148.267 260.164 145.445C261.393 144.132 262.178 141.667 260.593 140.818C262.474 140.195 264.701 138.894 264.413 136.933C264.311 136.233 263.883 135.63 263.467 135.057L263.221 134.719C260.654 131.211 257.515 127.502 253.211 127.24C255.688 125.85 258.638 127.824 260.822 129.641L261.462 130.17C264.353 132.548 267.378 134.809 270.807 136.295C274.49 137.891 278.726 138.529 282.546 137.297L293.238 133.852C295.301 133.169 297.731 131.886 297.544 129.743C297.441 128.562 296.363 127.546 295.178 127.514C293.994 127.48 292.861 128.434 292.692 129.608L292.46 127.784C291.887 127.294 290.972 127.714 290.511 128.311C290.337 128.537 290.191 128.786 290.046 129.034C289.807 129.443 289.57 129.85 289.207 130.147C287.945 131.18 286.269 130.331 284.763 129.44L283.824 128.879C281.148 127.306 277.976 127.065 274.845 126.828C274.169 126.776 273.494 126.725 272.827 126.661C268.461 126.239 264.159 125.175 260.099 123.515C263.822 126.568 268.686 127.08 273.592 127.597C276.065 127.858 278.548 128.119 280.902 128.707C282.768 129.174 284.832 130.125 285.29 131.995C285.955 134.708 282.731 136.81 279.949 137.064C275.398 137.479 270.964 135.544 267.101 133.074L266.666 132.792C265.267 131.874 263.912 130.887 262.557 129.9C260.072 128.089 257.589 126.279 254.845 124.904C257.679 125.046 259.748 122.995 261.862 120.899C263.002 119.768 264.155 118.625 265.448 117.807C269.247 115.401 274.098 115.949 278.57 116.721L279.273 116.845C278.221 111.751 275.652 106.98 271.978 103.298L278.291 115.709C271.645 113.494 263.674 116.262 259.829 122.118C262.797 112.103 269.856 103.367 279.025 98.3639C281.98 99.4691 284.475 101.441 286.966 103.411L286.968 103.412C287.772 104.047 288.576 104.682 289.393 105.287C292.748 107.769 296.827 109.871 300.934 109.133C303.887 108.602 306.372 106.681 308.579 104.627L308.934 104.293C311.562 101.801 314.006 99.1141 316.236 96.2608C318.678 93.1392 321.679 89.4325 325.615 89.8978C326.309 89.9802 326.985 90.197 327.658 90.4128C328.589 90.7115 329.514 91.0083 330.48 90.9463C332.143 90.8393 333.673 88.6056 332.367 87.5695L325.665 82.2497C325.01 81.7295 324.254 81.1795 323.424 81.2874C322.835 81.3636 322.345 81.7612 321.889 82.1432L320.384 83.407C316.875 86.3625 313.409 89.3795 310.364 92.8069C310.167 93.0289 309.969 93.2542 309.769 93.481C307.301 96.2855 304.622 99.329 300.956 99.5481C297.38 99.7621 294.374 97.1805 291.627 94.8205C291.489 94.7022 291.352 94.5843 291.215 94.4669L290.703 94.0333C287.79 91.5886 284.675 89.3843 281.401 87.4507C278.507 85.7415 275.297 84.2017 271.944 84.4351C268.021 84.7082 264.712 87.3314 261.878 90.0876L261.449 90.5084C260.059 91.8745 258.396 93.3508 256.484 93.0587L256.331 93.0384C254.405 92.8192 252.599 94.0144 251.146 95.3525L250.92 95.5646C247.124 99.1865 244.328 103.846 242.918 108.899C234.636 106.682 225.556 107.596 217.883 111.42C215.95 112.384 214.065 113.559 212.719 115.249C210.797 117.661 210.234 120.721 209.665 123.807C209.251 126.06 208.833 128.325 207.883 130.365C207.602 130.969 207.273 131.559 206.944 132.148C206.172 133.528 205.402 134.905 205.261 136.46C205.058 138.678 207.129 141.251 209.183 140.39C211.24 140.065 212.328 137.165 210.993 135.568C211.825 136.164 212.985 136.267 213.909 135.825L211.763 131.864C215.383 129.936 218.596 127.247 221.132 124.023C222.169 122.705 224.097 122.372 225.725 122.777C227.12 123.123 228.35 123.911 229.529 124.748L230.114 125.169C229.432 125.665 229.825 126.985 230.668 127.027C230.124 124.812 232.339 122.486 234.609 122.702C236.88 122.917 238.599 125.332 238.302 127.593C237.104 130.563 234.137 132.258 231.203 133.934C228.02 135.752 224.876 137.549 224.069 140.93C223.256 144.335 225.882 148.149 229.354 148.604C232.825 149.059 236.346 146.052 236.439 142.552C236.439 142.552 236.952 142.605 237.134 142.06C237.421 141.202 237.692 140.251 237.961 139.309C238.466 137.537 238.963 135.795 239.537 134.755C241.147 131.838 244.142 129.528 247.473 129.447C248.531 129.421 249.582 129.264 250.631 129.108H250.632C251.973 128.908 253.313 128.707 254.662 128.782C257.069 128.915 259.707 130.323 260.054 132.708C257.385 132.19 254.601 132.278 251.97 132.963L261.284 134.07C263.33 134.314 263.712 137.481 262.254 138.936C260.88 140.308 258.786 140.533 256.826 140.621L256.471 140.635C256.814 141.334 257.665 141.406 258.518 141.478C259.368 141.551 260.219 141.623 260.567 142.317ZM310.112 101.616C307.225 104.822 303.849 108.267 299.537 108.428C295.767 108.569 292.469 106.139 289.419 103.892L289.193 103.726L288.465 103.194C285.057 100.722 281.527 98.4174 277.893 96.2921C275.078 94.6463 271.841 93.0569 268.684 93.8729L273.682 95.4458C272.839 95.8978 272.539 97.1275 273.078 97.917C273.194 96.7351 274.561 95.9835 275.734 96.1681C276.908 96.3531 277.862 97.2141 278.588 98.1537C272.288 100.569 266.929 105.352 263.813 111.337C263.234 112.45 262.73 113.601 262.226 114.752C261.544 116.312 260.861 117.871 259.992 119.333C258.481 121.873 256.245 124.185 253.367 124.858C252.964 124.952 252.55 125.013 252.138 125.075C251.311 125.199 250.486 125.323 249.75 125.706C249.71 125.727 249.67 125.748 249.629 125.77L249.551 125.811L249.494 125.842C248.63 126.303 247.564 126.872 247.032 126.122C246.159 124.893 244.769 124.045 243.277 123.833C245.743 115.544 252.09 108.501 260.078 105.187C260.53 105 260.357 104.323 260.11 103.901L256.477 97.6837C256.141 97.1095 256.534 96.329 257.125 96.0242C257.716 95.7194 258.421 95.7653 259.081 95.8476C263.284 96.3707 267.33 98.0955 270.618 100.765C271.144 101.192 272.006 101.61 272.391 101.053C268.639 97.27 263.274 95.5158 257.994 94.8091C262.558 94.3633 267.278 95.8003 270.819 98.7146L270.991 98.8561C271.837 99.5429 272.861 100.273 273.837 99.8516C269.882 96.0583 264.475 93.8199 258.996 93.7077C260.124 92.8694 261.176 91.9374 262.229 91.0054L262.23 91.005H262.23C263.299 90.0583 264.369 89.1116 265.516 88.2629C267.794 86.5793 270.516 85.2644 273.343 85.4296C275.396 85.5493 277.321 86.4354 279.137 87.3996C282.976 89.4377 286.591 91.8986 289.895 94.7225C290.13 94.9223 290.365 95.1253 290.602 95.3293C293.743 98.0358 297.169 100.989 301.228 100.607C303.704 100.375 305.897 98.8793 307.639 97.1053C308.603 96.1241 309.462 95.0491 310.322 93.9742C311.016 93.1061 311.711 92.238 312.46 91.4182C313.542 90.2363 314.794 89.1244 316.331 88.6733C317.868 88.2218 319.741 88.5957 320.655 89.912L310.112 101.616ZM210.632 123.573C211.189 120.527 211.739 117.514 213.798 115.296C214.806 114.211 216.096 113.428 217.409 112.741C224.126 109.228 231.96 107.891 239.462 108.976C241.298 109.242 243.573 110.272 243.543 112.015C243.532 112.122 243.522 112.229 243.513 112.335C243.531 112.226 243.541 112.119 243.543 112.015C244.291 104.727 248.537 97.8697 254.739 93.9647C255.289 97.8006 256.969 101.467 259.516 104.388C252.767 107.23 247.164 112.695 244.153 119.371L244.106 119.477C243.251 121.348 241.895 123.646 239.915 123.18L240.895 117.123C240.985 116.568 241.068 115.967 240.805 115.47C240.511 114.914 239.882 114.659 239.27 114.474L239.054 114.411C235.506 113.407 231.524 112.442 228.283 114.203C226.569 115.134 225.338 116.695 224.188 118.297L223.333 119.497C221.305 122.329 219.035 124.987 216.554 127.433C215.555 128.417 214.475 129.396 213.138 129.82C211.801 130.244 210.139 129.959 209.345 128.802C209.978 127.149 210.306 125.355 210.632 123.573ZM232.502 147.174C230.395 147.956 228.681 147.571 227.036 146.613C226.332 146.203 225.67 145.675 225.273 144.964C224.679 143.897 224.768 142.573 225.111 141.4C225.623 139.648 226.672 138.057 228.08 136.894C229.053 136.09 230.174 135.501 231.295 134.911L231.295 134.91C231.682 134.707 232.068 134.503 232.449 134.291C236.165 132.218 239.371 129.237 241.709 125.681C242.175 124.971 243.159 124.741 243.982 124.951C244.805 125.16 245.492 125.724 246.085 126.332C246.51 126.767 246.825 127.631 246.258 127.851C242.289 129.387 239.094 132.797 237.817 136.856C237.782 136.967 237.748 137.078 237.715 137.19C237.521 137.833 237.324 138.482 236.908 139.002C236.419 139.612 235.437 141.76 235.938 142.779C235.938 142.779 234.609 146.393 232.502 147.174ZM238.008 115.018C238.651 115.162 239.351 115.369 239.704 115.926C239.993 116.382 239.974 116.961 239.929 117.498C239.75 119.625 239.303 121.729 238.602 123.744C238.483 124.085 238.117 124.495 237.85 124.252C237.548 122.726 236.154 121.485 234.603 121.362C233.053 121.239 231.48 122.244 230.941 123.703C230.835 123.991 230.46 124.098 230.164 124.019C229.942 123.959 229.752 123.824 229.57 123.68L229.39 123.533C227.543 122.032 225.043 121.366 222.694 121.749C223.945 119.643 225.533 117.737 227.378 116.126C228.133 115.466 228.952 114.844 229.906 114.535C230.804 114.244 231.768 114.247 232.71 114.294C234.492 114.385 236.267 114.628 238.008 115.018ZM322.236 88.2165C321.338 87.259 320.108 86.6186 318.808 86.4368L320.282 84.5629C320.751 83.9755 321.297 83.3729 322.035 83.2806C322.567 83.2134 323.09 83.4321 323.574 83.6626C325.195 84.4346 326.722 85.4016 328.113 86.5362C328.577 86.9149 329.044 87.3376 329.245 87.9018C329.447 88.4655 329.285 89.2039 328.744 89.4619C328.204 89.7199 327.425 89.1547 327.647 88.5985L327.668 88.5361C327.759 88.2194 327.616 87.8459 327.329 87.6793L326.807 88.6804C326.76 88.768 326.703 88.8527 326.617 88.9005C326.269 89.0932 325.985 88.5512 325.963 88.1536L325.959 88.0987C325.921 87.7068 325.716 87.2074 325.356 87.3295C325.307 88.0002 324.827 88.6198 324.19 88.8347C323.553 89.0496 322.796 88.8475 322.351 88.3429L322.236 88.2165ZM209.762 137.643L209.132 135.251C208.832 135.167 208.54 135.468 208.497 135.776C208.469 135.981 208.515 136.185 208.576 136.385L208.673 136.684C208.997 137.699 208.989 138.817 208.651 139.827C208.026 138.548 207.7 137.124 207.705 135.7C207.298 135.477 207.02 136.159 207.05 136.623L207.226 139.392C206.371 138.622 206.07 137.372 206.216 136.231C206.362 135.09 206.898 134.037 207.5 133.057C207.815 132.546 208.163 132.033 208.663 131.7C209.163 131.368 209.852 131.254 210.363 131.57C210.787 131.832 210.984 132.298 211.184 132.77C211.335 133.126 211.487 133.487 211.741 133.766C211.831 133.865 211.936 133.967 212.042 134.069C212.455 134.467 212.896 134.893 212.608 135.322C211.719 134.776 210.906 134.107 210.199 133.339C209.943 134.925 210.178 136.585 210.861 138.038C211.002 138.335 210.539 138.618 210.248 138.466C209.957 138.313 209.846 137.961 209.762 137.643ZM295.144 129.818C295.6 129.415 296.016 129.047 296.217 129.147C296.804 129.44 295.21 130.726 294.366 131.089C294.427 131.497 295.018 131.314 295.364 131.089C295.709 130.864 296.676 130.622 296.487 130.867C295.307 132.393 293.03 133.605 290.924 133.843C290.071 133.939 289.015 133.711 288.743 132.896C288.495 132.153 289.047 131.42 289.631 130.867L289.772 130.738C290.018 130.518 290.412 130.304 290.638 130.543C291.24 131.18 292.291 130.659 292.984 130.124C292.984 130.124 294.786 128.386 295.088 128.497C295.388 128.607 294.189 130.567 294.189 130.567C294.486 130.4 294.825 130.101 295.144 129.818V129.818ZM286.522 131.431C286.737 131.382 286.962 131.469 287.148 131.588C287.825 132.023 288.148 132.939 287.894 133.702C287.639 134.465 286.832 135.004 286.029 134.946C285.915 134.938 285.796 134.917 285.707 134.845C285.52 134.695 285.544 134.408 285.585 134.172L285.888 132.443C285.961 132.026 286.109 131.525 286.522 131.431ZM248.368 127.506C249.529 127.31 250.73 127.358 251.871 127.646C251.805 128.117 251.255 128.331 250.79 128.427C249.354 128.723 247.87 128.787 246.414 128.616C246.779 127.93 247.602 127.636 248.368 127.506ZM321.12 89.1779L318.074 87.3797C319.575 87.1553 321.175 87.9434 321.912 89.2697C321.701 89.4624 321.366 89.3232 321.12 89.1779ZM254.384 125.248C253.093 125.59 251.817 125.987 250.56 126.439C251.865 127.161 253.719 126.584 254.384 125.248ZM241.764 123.615C242.119 123.689 241.958 124.248 241.675 124.474C240.812 125.164 239.501 125.223 238.578 124.615L241.764 123.615ZM322.809 81.8975C323.018 81.8478 323.233 81.9326 323.429 82.0211C324.701 82.5952 325.866 83.4051 326.847 84.3977L322.471 82.1631C322.538 82.0315 322.665 81.9316 322.809 81.8975ZM256.131 93.9704L256.174 94.0007C256.569 93.9439 256.977 93.977 257.357 94.0977C257.025 94.7249 256.563 95.2834 256.009 95.7269C255.732 95.1769 255.78 94.4769 256.131 93.9704ZM331.022 87.8298L331.032 87.8573C331.515 88.0537 331.845 88.5787 331.811 89.0993C330.815 88.5829 330.009 87.7087 329.574 86.6744C330.169 86.8803 330.689 87.2954 331.022 87.8298ZM240.406 126.029L240.334 126.128C240.081 126.471 239.781 126.843 239.358 126.892C238.935 126.941 238.502 126.394 238.8 126.091C239.301 125.866 239.889 125.843 240.406 126.029ZM210.453 130.276C210.831 130.364 211.257 130.639 211.198 131.022C210.333 130.909 209.48 130.709 208.656 130.426C209.22 130.19 209.858 130.137 210.453 130.276ZM290.721 130.202C290.524 130.287 290.347 129.929 290.533 129.824C290.533 129.824 291.822 127.564 291.878 129.147C291.906 129.541 291.073 130.023 290.721 130.202ZM236.265 141.807C236.361 141.121 236.541 139.827 236.908 139.827C237.427 139.772 237.227 140.657 237.087 141.28C237.048 141.452 237.013 141.604 237 141.711C236.953 142.085 236.603 142.379 236.202 142.199C236.218 142.144 236.238 142 236.265 141.807ZM115.466 165.524C118.11 165.752 120.764 165.861 123.417 165.851C123.229 168.346 125.258 170.803 127.744 171.09C130.229 171.376 132.764 169.446 133.149 166.974C133.303 165.98 134.647 165.808 135.649 165.885L142.026 166.382C143.119 166.467 144.666 166.123 144.548 165.033L143.826 158.354C143.76 157.752 143.971 156.874 144.565 156.993C147.096 157.501 149.861 155.561 150.208 153.003C150.555 150.444 148.367 147.822 145.787 147.742C144.547 147.703 143.957 146.081 144.279 144.883C144.452 144.239 144.781 143.656 145.11 143.072C145.393 142.569 145.676 142.067 145.861 141.524C146.262 140.35 145.926 138.714 144.718 138.431C135.546 136.28 125.918 136.098 116.67 137.899L116.501 137.932C115.992 138.035 115.482 138.161 115.043 138.433C113.599 139.327 113.487 141.299 113.558 143.038L113.605 144.004C113.858 149.612 113.417 155.251 112.294 160.751L112.269 160.876C112.017 162.129 111.813 163.562 112.65 164.512C113.27 165.217 114.263 165.406 115.21 165.501L115.466 165.524ZM131.734 166.869C131.808 167.23 131.716 167.606 131.571 167.945L131.524 168.048C130.671 169.85 128.13 170.622 126.428 169.568C124.694 168.495 124.268 165.797 125.589 164.241C122.234 164.643 118.835 164.67 115.475 164.32C114.435 164.212 113.076 163.651 113.288 162.627C114.751 155.588 115.207 148.34 114.64 141.172C114.538 139.873 116.137 139.199 117.418 138.964C125.687 137.446 134.243 137.509 142.489 139.148C143.544 139.358 144.902 140.16 144.434 141.128C143.333 143.409 142.894 146.003 143.181 148.519C143.254 149.16 143.757 150 144.317 149.678C145.825 148.812 148.008 149.507 148.738 151.085C149.468 152.664 148.585 154.777 146.948 155.366C145.311 155.954 143.284 154.888 142.842 153.206C142.446 156.67 142.587 160.195 143.258 163.617C143.49 164.803 141.763 165.25 140.558 165.16L130.938 164.444C130.643 164.908 130.945 165.388 131.263 165.893C131.461 166.208 131.665 166.532 131.734 166.869ZM181.516 145.127L200.36 145.506L200.668 145.514C201.234 145.532 201.804 145.581 202.314 145.819C203.465 146.357 203.993 147.682 204.344 148.904C206.213 155.427 205.983 162.534 203.694 168.921L203.597 169.183C203.3 169.969 202.91 170.752 202.207 171.195C201.627 171.559 200.922 171.634 200.235 171.671L200.088 171.678C197.286 171.811 194.474 171.74 191.683 171.465C193.136 170.569 193.503 168.39 192.58 166.954C191.657 165.518 189.707 164.918 188.064 165.385C187.063 165.669 186.131 166.353 185.769 167.329C185.406 168.305 185.756 169.557 186.682 170.034C187.322 170.363 187.211 171.401 186.651 171.853C186.091 172.305 185.312 172.336 184.592 172.348L175.138 172.502C174.428 172.513 173.68 172.516 173.056 172.175C172.172 171.693 171.765 170.653 171.516 169.676C170.914 167.32 170.833 164.833 171.279 162.442C171.817 164.33 174.143 165.476 175.968 164.753C177.792 164.028 178.7 161.599 177.797 159.856C176.894 158.113 174.385 157.454 172.742 158.527L172.673 157.918C172.438 155.783 172.255 153.62 172.664 151.517C173.114 149.214 174.394 146.952 176.495 145.905C178.026 145.142 179.795 145.1 181.516 145.127ZM202.086 147.098C201.614 146.814 201.046 146.766 200.492 146.742L200.354 146.737C194.492 146.518 188.627 146.407 182.761 146.404L180.806 146.408C179.568 146.412 178.291 146.429 177.16 146.928C175.47 147.672 174.376 149.397 173.929 151.188C173.482 152.979 173.589 154.856 173.7 156.698C176.67 155.88 179.865 158.898 179.513 161.959C179.16 165.02 175.767 167.23 172.743 166.64C172.606 167.607 172.471 168.611 172.755 169.545C173.039 170.48 173.868 171.324 174.844 171.293L183.61 171.011C184.153 170.994 184.902 170.713 184.745 170.193C183.849 167.243 186.433 163.799 189.517 163.833C192.599 163.868 195.105 167.37 194.143 170.3C196.07 170.733 198.073 170.825 200.031 170.568C200.667 170.484 201.33 170.349 201.818 169.932C202.297 169.522 202.532 168.902 202.732 168.304C204.765 162.208 204.988 155.521 203.364 149.304C203.154 148.5 202.863 147.635 202.19 147.165L202.086 147.098ZM118.918 205.145C117.985 199.073 117.987 192.857 118.922 186.785L118.97 186.491C119.202 185.113 119.609 183.659 120.761 182.899C121.623 182.331 122.712 182.288 123.75 182.288L131.7 182.31C132.061 182.311 132.458 182.324 132.73 182.563C133.002 182.801 132.995 183.349 132.646 183.446C131.813 183.677 131.335 184.637 131.436 185.495C131.537 186.353 132.095 187.096 132.75 187.659C134.313 189.002 136.742 189.48 138.471 188.36C140.201 187.24 140.608 184.354 138.969 183.106C142.682 183.03 146.397 183.042 150.11 183.141L151.502 183.182C151.952 183.197 152.45 183.232 152.764 183.554C153 183.796 153.078 184.148 153.131 184.482C153.542 187.052 153.093 189.753 151.871 192.051C151.676 192.417 151.226 192.821 150.919 192.542C149.614 191.358 147.42 191.519 146.085 192.669C144.751 193.819 144.234 195.729 144.47 197.475C144.698 199.155 145.922 200.95 147.616 200.866C148.093 200.842 148.59 200.677 149.076 200.516C149.95 200.226 150.794 199.946 151.441 200.509L149.743 208.097C149.441 209.445 148.9 211.044 147.549 211.332C139.751 213 131.575 212.875 123.833 210.967L123.457 210.872C122.517 210.626 121.581 210.308 120.848 209.68C119.572 208.588 119.174 206.805 118.918 205.145ZM149.936 201.866C147.73 202.903 144.856 202.013 143.475 200.004C142.095 197.994 142.23 195.123 143.647 193.139C145.063 191.155 147.609 190.101 150.039 190.308L150.241 190.326C150.582 190.355 150.931 190.368 151.22 190.197C151.585 189.982 151.742 189.539 151.843 189.127C152.249 187.484 152.226 185.736 151.779 184.104L141.502 184.179C141.689 187.032 139.34 189.816 136.497 190.112C133.653 190.408 130.782 188.168 130.377 185.338L130.32 184.917C130.259 184.493 130.164 184.073 129.847 183.804C129.624 183.615 129.332 183.54 129.043 183.482L128.935 183.462C125.945 182.896 122.154 182.662 120.585 185.269C120.05 186.157 119.907 187.219 119.798 188.25C119.174 194.166 119.322 200.163 120.239 206.042L120.283 206.317C120.432 207.191 120.665 208.09 121.316 208.677C121.764 209.08 122.351 209.28 122.935 209.444L123.08 209.485C130.537 211.536 138.476 211.81 146.056 210.282L146.477 210.195C146.85 210.116 147.237 210.026 147.53 209.782C147.911 209.465 148.058 208.953 148.186 208.474L149.936 201.866ZM205.397 216.9C205.397 216.9 205.439 215.717 205.589 215.329C205.858 214.627 206.653 213.63 206.653 213.63C206.598 213.9 206.521 214.189 206.441 214.487C206.167 215.509 205.865 216.638 206.325 217.473C206.678 218.117 211.856 221.51 213.636 222.305C221.246 225.706 228.894 228.784 236.578 231.876H236.579L236.58 231.877L236.587 231.879C239.726 233.143 242.872 234.409 246.024 235.7C240.607 235.04 235.619 232.517 230.759 230.036C229.71 235.855 232.953 241.722 237.328 245.7C240.514 248.598 244.264 250.745 248.013 252.892H248.014L248.014 252.893C249.414 253.694 250.813 254.495 252.183 255.335L252.687 255.647C257.548 258.69 262.197 262.532 264.343 267.83C264.737 268.802 265.946 269.355 266.938 269.018C267.931 268.681 268.553 267.506 268.274 266.496C269.313 267.349 268.713 269.254 267.454 269.726C266.195 270.197 264.752 269.557 263.823 268.586C263.123 267.854 262.634 266.96 262.146 266.067L262.145 266.066V266.065L262.144 266.063C261.985 265.772 261.826 265.481 261.659 265.196C258.659 260.052 253.358 256.857 248.099 253.932L245.63 252.566C239.924 249.379 234.077 245.551 231.632 239.519C222.759 240.927 213.522 239.972 205.124 236.778C203.327 236.095 201.569 235.312 199.811 234.529C197.01 233.282 194.212 232.036 191.267 231.197C189.627 230.73 187.366 230.679 186.752 232.271C186.752 232.27 186.751 232.271 186.749 232.275C186.732 232.306 186.615 232.51 186.092 232.555C185.846 232.576 185.621 232.146 185.551 231.861C185.491 231.781 185.471 231.556 185.471 231.093C185.471 230.844 185.979 229.754 186.935 229.08C187.6 228.611 188.348 228.441 188.74 228.352C188.917 228.311 189.021 228.288 189.013 228.261C188.993 228.198 188.313 228.022 187.695 228.321C187.218 228.552 186.767 228.858 186.352 229.139L186.351 229.139C185.71 229.574 185.154 229.949 184.728 229.899C184.15 229.833 183.74 229.563 183.733 228.981C183.727 228.4 183.882 227.692 184.33 227.327C185.289 226.546 186.527 226.116 187.763 226.134C188.031 226.137 188.327 226.176 188.501 226.378C188.675 226.58 188.589 226.985 188.322 226.996C186.72 227.068 184.867 227.337 184.243 228.981C184.061 229.46 185.208 229.537 185.651 229.282C185.909 229.134 186.13 228.934 186.351 228.735C186.511 228.591 186.672 228.446 186.846 228.321C187.367 227.946 188.014 227.75 188.656 227.773C188.914 227.782 189.199 227.842 189.352 228.051C189.505 228.26 189.397 228.64 189.138 228.644C187.476 228.671 185.96 230.111 185.846 231.769C185.852 231.829 185.898 232.103 186.092 232.168C186.318 232.244 186.568 232.06 186.578 232.041C187.443 230.496 189.022 229.464 190.72 229.981C191.362 230.177 191.98 230.474 192.595 230.77C193.671 231.289 194.738 231.803 195.911 231.759L195.207 228.026C192.353 225.41 188.052 224.488 184.377 225.704C183.983 225.834 183.558 226.023 183.398 226.405C183.237 226.787 183.589 227.342 183.976 227.194C183.368 227.757 182.339 226.801 182.571 226.005C182.802 225.209 183.675 224.8 184.477 224.591C188.979 223.421 193.466 225.461 197.802 227.432L197.806 227.433C198.609 227.799 199.408 228.161 200.2 228.501C209.029 232.285 219.005 233.344 228.432 231.497C228.023 232.616 226.629 232.954 225.445 233.087C217.048 234.032 208.424 232.876 200.572 229.755C199.613 230.973 200.07 232.866 201.161 233.968C202.253 235.069 203.797 235.569 205.282 236.013C213.607 238.501 222.434 240.405 230.94 238.635L229.561 230.569L229.534 230.422C229.465 230.1 229.34 229.767 229.039 229.665L228.963 229.639C218.06 225.936 209.75 223.114 198.96 212.829C198.939 212.808 198.917 212.787 198.897 212.765C198.818 215.857 197.837 216.537 193.749 215.694C184.83 213.855 175.697 212.893 166.694 214.158C167.375 210.793 168.228 207.463 169.248 204.186C166.319 205.131 162.86 202.447 163.05 199.374C163.239 196.302 167.001 194.062 169.792 195.361C170.751 193.148 170.812 190.562 169.958 188.307C169.548 187.226 171.181 186.602 172.337 186.601L178.728 186.6C179.622 186.6 180.867 186.185 180.645 185.319C180.119 183.268 181.53 180.923 183.59 180.427C185.612 179.94 187.889 181.325 188.411 183.331L188.438 183.444C188.923 185.599 191.653 186.283 193.862 186.241L194.961 186.214C196.872 186.174 198.863 186.236 200.141 187.573C201.67 189.17 201.329 191.716 200.824 193.885L200.791 194.029C200.545 195.066 200.186 195.908 199.826 196.755C199.139 198.369 198.445 200.001 198.507 203.028C198.532 204.262 198.576 205.395 198.627 206.432C198.804 205.704 198.96 205.223 198.96 205.223C198.96 205.223 219.791 220.732 232.656 222.838C234.198 221.476 233.308 218.822 231.755 217.473C231.101 216.905 230.356 216.445 229.613 215.986C228.593 215.357 227.576 214.73 226.802 213.826C225.264 212.031 224.99 209.557 224.717 207.104C224.421 204.437 224.127 201.795 222.216 200.076C222.045 199.923 221.864 199.78 221.682 199.636C221.273 199.313 220.863 198.991 220.585 198.555C219.896 197.478 220.234 195.978 221.069 195.008C221.904 194.039 223.125 193.498 224.333 193.076C226.84 192.2 229.589 191.712 232.149 192.417C234.709 193.122 237.003 195.254 237.255 197.898C237.74 196.847 238.807 196.086 239.959 195.971L238.286 197.749L240.403 197.791L237.49 199.418C239.296 202.758 239.004 206.879 237.846 210.495C237.704 210.938 237.549 211.381 237.395 211.825C236.776 213.6 236.152 215.389 236.312 217.242C236.509 219.52 238.531 221.846 240.742 221.38L240.853 221.354C243.51 220.683 246.42 221.072 248.808 222.417C251.592 223.986 253.488 226.646 255.364 229.278C255.799 229.889 256.234 230.499 256.678 231.093C258.76 233.877 261.223 236.466 264.303 238.079C267.382 239.692 271.158 240.224 274.366 238.885C274.956 238.639 275.523 238.333 276.089 238.027C277.051 237.509 278.009 236.991 279.072 236.771C280.761 236.421 282.912 237.247 283.112 238.96C282.238 237.501 280.168 237.242 278.54 237.734C277.621 238.012 276.773 238.466 275.924 238.921C275.269 239.271 274.613 239.623 273.923 239.894C270.468 241.25 266.445 240.428 263.265 238.515C260.184 236.662 257.77 233.895 255.593 231.028L255.383 230.75C255.162 230.457 254.942 230.162 254.722 229.866L254.722 229.866L254.722 229.865L254.721 229.864L254.72 229.864V229.863L254.72 229.862L254.719 229.862L254.718 229.861C253.187 227.804 251.645 225.731 249.625 224.166C247.358 222.411 244.314 221.373 241.585 222.216L241.418 222.27C238.808 223.154 236.043 220.657 235.573 217.941C235.104 215.225 236.211 212.512 237.294 209.977C238.412 207.364 236.359 204.313 233.772 203.135C231.372 202.042 228.488 202.066 226.107 203.201C225.335 203.568 225.195 204.581 225.221 205.447L225.225 205.542C225.359 208.598 226.175 211.81 228.406 213.903C229.069 214.526 229.835 215.028 230.6 215.529C231.557 216.157 232.513 216.783 233.261 217.641C234.607 219.184 234.814 222.075 232.944 222.909C236.152 223.489 239.326 224.255 242.445 225.205C225.665 223.489 210.237 215.574 199.161 206.014C198.934 206.457 198.774 206.925 198.677 207.405C198.703 207.884 198.729 208.341 198.754 208.775C198.79 209.388 198.822 209.958 198.848 210.486C199.381 212.24 200.628 213.787 202.339 214.467C202.203 213.235 202.619 211.952 203.451 211.032C202.911 212.24 202.054 214.556 205.397 216.9ZM231.171 193.278C229.678 193 228.16 192.852 226.641 192.836C226.538 193.027 226.499 193.253 226.532 193.467C228.225 193.608 229.893 194.054 231.431 194.778C230.788 195.42 229.726 195.036 228.864 194.723L228.813 194.705C227.339 194.171 225.721 194.042 224.182 194.335C223.397 194.485 222.611 194.753 222.007 195.276C221.402 195.799 221.006 196.612 221.141 197.4C221.313 198.407 222.26 199.094 223.205 199.481C225.547 200.441 228.354 200.17 230.47 198.782C230.641 198.669 230.883 198.857 230.893 199.062C230.903 199.267 230.765 199.448 230.619 199.592C229.776 200.432 228.522 200.699 227.334 200.768C226.987 200.788 226.638 200.795 226.289 200.802C225.444 200.818 224.599 200.835 223.782 201.042C223.892 201.715 224.733 201.947 225.414 201.996C228.016 202.185 230.654 201.835 233.117 200.974C233.733 200.759 234.3 201.377 234.664 201.919L237.316 205.877C238.187 205.057 238.134 203.64 237.724 202.516C237.563 202.077 237.359 201.654 237.155 201.231C236.837 200.571 236.519 199.913 236.37 199.2C236.288 198.807 236.258 198.403 236.228 198.001C236.187 197.435 236.145 196.871 235.958 196.339C235.298 194.464 233.125 193.642 231.171 193.278ZM199.133 229.407L196.725 228.024C196.458 227.87 195.966 227.844 195.993 228.151C195.911 229.394 196.013 230.916 196.811 231.952C197.315 232.604 197.678 232.938 199.456 233.38L199.325 229.899C199.318 229.715 199.293 229.498 199.133 229.407ZM235.791 210.475C236.084 210.305 236.271 210.002 236.445 209.712C236.756 209.193 237.077 208.644 237.091 208.039C237.105 207.434 236.687 206.774 236.082 206.75C235.781 206.738 235.495 206.882 235.25 207.055C234.704 207.442 234.283 208.001 234.063 208.632C234.342 209.033 234.971 208.674 235.251 208.274C235.532 207.875 235.947 207.369 236.393 207.568C236.098 208.589 235.578 209.543 234.88 210.343C235.066 210.626 235.498 210.644 235.791 210.475ZM240.607 239.87C239.938 238.807 239.215 237.659 238.022 237.313C240.668 242.294 244.77 246.491 249.689 249.25C251.407 250.214 253.218 251.005 255.028 251.796C257.552 252.899 260.072 254 262.33 255.564C265.158 257.525 267.497 260.186 269.08 263.241C268.458 258.884 264.814 255.548 260.925 253.488C259.164 252.556 257.314 251.804 255.465 251.053C253.229 250.144 250.995 249.237 248.921 248.01C245.616 246.056 242.784 243.308 240.729 240.063C240.689 239.999 240.648 239.935 240.607 239.87ZM248.92 241.343L248.994 241.507C249.319 242.261 249.545 243.208 248.934 243.718C248.447 244.125 247.708 243.97 247.133 243.7C245.891 243.117 244.863 242.086 244.284 240.842C245.009 240.698 245.689 240.334 246.21 239.809C246.643 239.372 247.408 239.461 247.896 239.834C248.384 240.208 248.66 240.787 248.92 241.343ZM248.526 243.127C249.151 242.003 247.874 240.345 247.251 240.237C246.979 240.191 246.699 240.459 246.398 240.748C246.089 241.044 245.759 241.361 245.394 241.38C245.394 241.38 247.899 244.251 248.526 243.127ZM280.1 246.359C295.302 245.859 310.143 238.453 319.683 226.607C320.177 225.993 321.155 225.983 321.841 226.368C322.527 226.754 322.991 227.431 323.43 228.085C323.909 228.015 323.923 227.272 323.593 226.918C323.431 226.744 323.227 226.617 323.023 226.49C322.812 226.36 322.603 226.23 322.438 226.048C321.774 225.313 322.129 224.156 322.518 223.245L324.253 219.184C324.485 218.639 324.849 218.005 325.44 218.013C325.873 218.019 326.206 218.381 326.481 218.715C329.474 222.362 332.25 226.186 334.791 230.16C333.224 230.403 331.719 229.631 330.233 228.87C328.574 228.02 326.941 227.183 325.277 227.786C323.827 228.312 322.973 229.772 322.205 231.109C319.695 235.484 316.818 239.697 313.174 243.186C304.713 251.287 292.905 254.793 281.402 257.01C288.518 259.703 296.355 260.459 303.854 259.174C308.145 258.439 312.424 256.991 315.769 254.204C317.123 253.075 318.298 251.75 319.467 250.43L328.081 240.707C328.585 240.138 329.516 240.684 329.986 241.282C330.456 241.88 331.093 242.625 331.81 242.37C331.297 241.222 330.407 240.246 329.31 239.63C329.245 238.258 329.204 236.789 329.933 235.626C330.662 234.462 332.48 233.895 333.426 234.891C336.528 238.153 339.5 241.54 342.333 245.039C340.671 245.3 339.091 244.585 337.523 243.874H337.523H337.522C337.038 243.654 336.555 243.436 336.07 243.246C334.019 242.444 331.143 242.461 330.207 244.455C327.648 249.911 324.989 255.505 320.597 259.629C313.261 266.517 302.542 268.072 292.543 269.206C288.109 269.709 283.554 270.186 279.236 269.057C276.093 268.235 273.234 266.6 270.417 264.983L268.181 263.7C267.523 263.864 268.052 264.861 268.636 265.206C272.379 267.413 276.237 269.662 280.529 270.339C281.622 270.511 282.73 270.578 283.836 270.62C294.021 271.003 304.283 269.216 313.74 265.413C317.683 263.827 321.697 261.706 323.863 258.049L331.494 245.161C331.787 244.667 332.108 244.146 332.627 243.901C333.259 243.602 334.002 243.792 334.673 243.987L341.827 246.065C342.558 246.277 343.237 245.42 343.161 244.663C343.085 243.905 342.538 243.291 342.018 242.735L335.421 235.674C334.551 234.743 333.615 233.77 332.386 233.431C331.157 233.092 329.577 233.689 329.336 234.941C328.627 238.638 326.102 241.683 323.665 244.551C319.894 248.99 315.967 253.552 310.732 256.107C303.225 259.77 294.354 258.706 286.135 257.218L291.465 255.666C294.103 254.897 296.745 254.127 299.302 253.123C309.223 249.224 317.673 241.702 322.695 232.3C323.567 230.668 324.592 228.782 326.413 228.454C327.909 228.185 329.185 229.069 330.49 229.972C331.265 230.509 332.05 231.053 332.898 231.366C334.149 231.828 336.089 231.171 335.795 229.871C335.729 229.577 335.551 229.322 335.377 229.077L328.59 219.509C327.648 218.182 326.237 216.683 324.688 217.18C323.443 217.581 322.977 219.018 322.565 220.285L322.527 220.401L322.51 220.453L322.491 220.511C320.559 226.398 315.365 230.509 310.436 234.261C308.279 235.902 306.116 237.548 303.789 238.936C296.989 242.993 289.015 244.71 281.115 245.224C278.882 245.368 277.479 247.462 276.195 249.379C276.043 249.607 275.892 249.832 275.741 250.052C273.542 253.256 270.411 255.813 266.831 257.325C267.43 257.987 268.521 257.59 269.277 257.117C272.869 254.872 275.916 251.762 278.087 248.125C278.566 247.323 279.167 246.389 280.1 246.359ZM232.404 212.017C232.054 212.782 231.275 213.333 230.437 213.408C229.598 213.482 228.734 213.078 228.255 212.386C228.079 212.131 228.081 211.635 228.389 211.662C229.03 212.513 230.367 212.733 231.247 212.132C231.628 211.872 232.289 211.57 232.404 212.017ZM225.665 206.453C225.741 205.812 226.282 205.255 226.921 205.16C227.559 205.065 228.239 205.44 228.499 206.031C228.032 206.031 227.719 205.946 227.458 205.876C226.928 205.733 226.615 205.649 225.665 206.453ZM230.615 210.026L229.889 210.337L229.846 210.313C229.658 210.672 229.103 210.266 229.06 209.862C229.052 209.779 229.047 209.691 229.043 209.602C229.027 209.26 229.01 208.905 228.728 208.752C228.375 209.26 228.213 209.929 228.419 210.513C228.624 211.096 229.249 211.539 229.857 211.429C230.466 211.319 230.903 210.573 230.615 210.026ZM231.487 205.071C232.407 205.145 232.651 205.195 232.905 205.799C232.955 205.918 232.562 205.806 232.188 205.699C231.913 205.621 231.647 205.545 231.575 205.566C228.499 206.478 230.568 204.997 231.487 205.071ZM231.228 206.66C231.736 207.062 231.589 208.667 230.839 208.365C230.525 208.238 230.149 205.805 231.228 206.66ZM255.543 249.608C255.301 249.306 255.576 248.767 255.963 248.786C256.133 248.897 256.25 249.088 256.269 249.29C256.123 249.529 255.82 249.659 255.546 249.601L255.543 249.608ZM248.635 246.482L249.164 246.401L249.206 246.386C249.389 246.043 248.79 245.652 248.55 245.958C248.498 246.134 248.53 246.332 248.635 246.482ZM252.396 248.565C252.09 248.648 252.049 248.122 252.221 247.856L252.952 248.189C252.84 248.386 252.63 248.526 252.405 248.554L252.396 248.565ZM243.265 240.901C243.184 240.7 242.894 240.624 242.724 240.758L242.771 240.805C242.624 240.996 242.74 241.324 242.975 241.38C243.191 241.359 243.346 241.102 243.265 240.901ZM227.202 208.402C226.908 208.402 226.6 208.114 226.615 207.614C226.631 207.114 226.766 206.652 227.202 206.897C227.638 207.143 227.506 208.402 227.202 208.402ZM90.1109 147.635C90.2884 147.868 90.6935 147.766 90.8493 147.518C91.0055 147.27 90.9856 146.955 90.9577 146.663C90.5496 142.449 89.4558 138.302 87.7324 134.434C87.2415 133.333 86.7251 131.959 87.4768 131.016C89.2144 135.359 90.9662 139.755 91.599 144.389C91.7718 145.654 91.8338 147.039 91.1285 148.104C90.4233 149.168 88.6662 149.576 87.8829 148.567C89.088 148.316 90.01 147.096 89.9229 145.868C90.4796 146.247 90.5752 147.147 90.1109 147.635ZM104.155 231.315C110.46 230.969 117.763 230.059 121.071 224.68C121.928 223.285 121.745 221.093 121.594 219.285C121.473 217.834 121.373 216.631 121.85 216.292C122.919 215.529 123.776 217.496 123.776 217.496C123.789 217.439 123.804 217.377 123.819 217.31C123.839 217.222 123.86 217.126 123.883 217.023C124.182 215.682 124.732 213.214 125.597 213.678C125.953 213.869 125.83 215.068 125.746 215.893V215.893C125.726 216.087 125.709 216.26 125.7 216.394C125.68 216.521 125.677 216.628 125.692 216.703C125.704 216.698 125.717 216.691 125.73 216.682C125.735 216.682 125.741 216.678 125.748 216.673C125.752 216.669 125.758 216.664 125.763 216.657C125.903 216.539 126.094 216.247 126.308 215.923C126.749 215.251 127.283 214.438 127.641 214.737C128.202 215.206 126.205 218.201 126.205 218.201C126.205 218.201 128.577 215.594 128.777 216.703C128.978 217.813 123.575 227.834 118.697 231.764C113.82 235.695 106.948 237.895 100.734 237.107C100.873 234.643 101.69 231.45 104.155 231.315ZM125.763 216.657C125.751 216.666 125.741 216.675 125.73 216.682C125.692 216.688 125.688 216.577 125.7 216.394C125.746 216.104 125.881 215.707 126.098 215.327C126.057 215.457 126.016 215.583 125.977 215.702C125.804 216.233 125.679 216.618 125.809 216.588C125.798 216.607 125.788 216.623 125.779 216.636C125.773 216.644 125.768 216.651 125.763 216.657ZM126.937 214.395C126.588 214.616 126.306 214.963 126.098 215.327C126.422 214.302 126.749 213.009 125.953 212.905C124.601 212.73 123.281 214.929 123.515 216.097C123.14 215.167 121.579 215.57 121.202 216.499C120.912 217.213 121.035 217.994 121.158 218.769V218.77C121.195 219.005 121.232 219.239 121.257 219.471C121.663 223.178 118.884 226.643 115.515 228.242C112.338 229.749 108.733 229.961 105.207 230.07L104.385 230.094C102.372 230.147 100.191 230.101 98.655 228.815C97.0722 227.492 97.0741 224.35 99.0616 223.795C104.107 222.386 107.956 217.469 108.113 212.233C108.159 210.685 109.163 209.397 110.133 208.153C110.22 208.041 110.307 207.93 110.393 207.818L110.606 207.54C111.692 206.099 112.584 204.115 111.673 202.559C110.26 204.371 107.614 205.102 105.471 204.271C104.577 203.925 103.785 203.345 102.998 202.77C101.945 202 100.9 201.236 99.6301 201.045C97.1479 200.671 94.6856 203.184 95.1107 205.658C94.4386 205.094 93.3958 205.948 93.3229 206.822C93.2803 207.336 93.4152 207.836 93.551 208.338C93.6462 208.69 93.7418 209.043 93.7764 209.404C93.8166 209.823 93.7735 210.242 93.7309 210.662C93.7016 210.946 93.6727 211.23 93.6694 211.514C93.6514 212.987 94.3074 214.35 94.9535 215.692L94.9545 215.694L94.9549 215.696C95.0198 215.83 95.0842 215.964 95.1481 216.098L95.3208 216.466C96.0569 218.061 96.6026 219.96 95.8183 221.532C95.0345 223.104 92.3653 223.596 91.6094 222.011C87.9037 214.24 79.5044 208.948 70.8949 208.962C60.9265 208.976 51.9578 215.546 46.083 223.599C45.3504 224.603 44.6333 225.685 44.4736 226.918C44.3139 228.151 44.8861 229.566 46.0589 229.978C47.2318 230.391 48.7524 229.238 48.3704 228.054C48.9654 228.749 50.1824 228.092 50.4626 227.222C50.6202 226.732 50.6183 226.216 50.6164 225.699C50.615 225.295 50.6136 224.89 50.6874 224.496C51.0509 222.565 53.0375 221.45 54.8253 220.634L55.186 220.471C59.3977 218.564 63.7855 216.863 68.392 216.54C73.1305 216.206 78.1866 217.524 81.4427 220.982C76.9995 222.036 74.4194 226.494 72.3628 230.612L72.0773 231.186C70.0008 235.356 67.281 239.906 62.7271 240.79C62.9003 241.688 63.6932 242.431 64.601 242.545L47.9066 252.471L49.1874 254.06C45.1226 260.289 40.5254 266.171 35.4623 271.621C32.7094 274.584 29.1349 277.654 25.1498 276.964C24.4291 276.84 23.7305 276.592 23.0342 276.346C22.0147 275.985 21.0004 275.626 19.9299 275.656C18.1284 275.708 16.3205 277.899 17.5434 279.223C20.2515 282.155 23.3424 284.733 26.7128 286.871L26.8002 286.926C27.2104 287.181 27.6617 287.42 28.1375 287.365C28.6184 287.31 29.01 286.968 29.3678 286.642L51.9777 266.027C53.8294 264.351 55.8671 262.676 58.3341 262.43L58.5424 262.405C60.3666 262.151 61.8694 260.997 63.377 259.841C64.033 259.337 64.69 258.832 65.3749 258.402C67.6924 256.943 71.5358 256.794 72.4371 259.379C72.9156 260.753 72.2889 262.15 71.6712 263.527V263.528C71.4871 263.938 71.3034 264.347 71.1505 264.752C70.4841 266.519 71.0303 269.237 72.9184 269.204L83.4851 269.017C83.8648 269.013 84.2647 269.034 84.5601 269.267C84.8692 269.509 84.9776 269.914 85.0367 270.311L85.0613 270.492C85.4594 273.729 85.4045 277.021 84.899 280.242C84.3509 283.733 82.893 287.573 79.5991 288.853C77.5216 289.66 75.2075 289.241 73.0193 288.74L59.7233 285.634C59.7011 284.024 61.1575 282.713 62.7105 282.287C64.0274 281.924 65.41 282.035 66.7798 282.144C66.8636 282.151 66.9478 282.158 67.0321 282.164L67.5149 282.2C70.8798 282.432 74.2816 282.119 77.5481 281.278L72.8347 269.483C73.3151 273.399 74.3744 277.243 75.9672 280.852L60.4731 281.355C59.1236 281.393 57.626 281.333 56.7186 280.349C56.4862 280.096 56.2921 279.785 56.0995 279.477C55.7047 278.844 55.3171 278.222 54.6161 278.142C54.0102 278.071 53.4616 278.476 52.9973 278.872C49.9684 281.456 47.4531 284.64 45.6409 288.185C46.2942 289.803 48.459 290.255 50.1407 289.791C51.1243 289.52 52.0222 289.03 52.9215 288.54C53.5601 288.192 54.1991 287.844 54.8702 287.573C58.6157 286.059 62.7333 287.085 66.6889 288.276L69.0381 288.991C73.681 290.386 79.3421 291.101 82.8215 287.725C84.8748 285.733 85.6227 282.769 86.0293 279.937C87.2022 271.766 86.2513 263.299 83.2949 255.592C86.5912 254.32 88.1465 250.633 89.3559 247.313L91.7244 240.812C92.5154 238.639 94.3131 235.974 96.4531 236.849C102.57 239.35 109.795 238.293 115.49 234.94C121.185 231.587 125.448 226.155 128.319 220.203L128.396 220.042C128.958 218.859 129.674 216.099 129.034 215.794C128.796 215.606 128.371 215.917 128.082 216.129C127.925 216.244 127.808 216.329 127.782 216.292C127.765 216.268 127.818 216.115 127.892 215.899C128.184 215.047 128.816 213.207 126.937 214.395ZM86.4586 250.891C85.7188 252.555 84.4943 254.513 82.6866 254.292C81.7187 254.174 80.9878 253.443 80.3304 252.692L79.9777 252.284C76.1579 247.85 70.9688 244.903 65.7531 242.19L64.015 241.293C68.2637 240.457 70.8845 236.255 72.7561 232.35L73.3525 231.106C75.0636 227.558 77.0109 223.908 80.5405 222.311C81.0285 222.09 81.588 221.914 82.0912 222.098C82.1674 222.125 82.2497 222.157 82.3354 222.19C82.9564 222.429 83.7564 222.736 83.7436 222.148C82.6114 221.691 82.4249 220.04 83.0781 219.008C83.6745 218.066 84.7078 217.523 85.7306 217.054L86.0222 216.922C85.37 216.022 83.9556 216.779 83.2168 217.609L83.1557 217.677C82.4145 218.49 81.2761 219.381 80.4203 218.72C76.8836 215.987 72.1706 215.11 67.7217 215.539C63.2733 215.968 59.029 217.595 54.9649 219.454C53.4753 220.135 51.9626 220.879 50.8573 222.088C50.002 223.023 49.9135 224.268 49.8245 225.519C49.7985 225.885 49.772 226.251 49.7265 226.611C49.6172 227.481 49.1387 227.514 48.7169 227.544C48.4911 227.559 48.2819 227.574 48.1541 227.715C48.1437 227.727 48.1106 227.777 48.0609 227.854C47.8081 228.242 47.1233 229.294 46.8141 229.189C46.3599 229.035 46.5915 228.054 46.5915 228.054C46.5915 228.054 45.2435 228.44 45.1432 228.054C44.7921 226.706 46.8141 223.948 46.8141 223.948C50.2136 218.947 55.2551 214.798 60.7973 212.386C66.4423 209.929 73.0297 209.454 78.8006 211.599C85.3065 214.017 90.4588 219.794 92.1192 226.533C92.5334 228.213 94.4878 228.955 96.1956 229.234C96.3522 229.259 96.5108 229.285 96.6703 229.31L96.6746 229.31L96.6826 229.312C98.2588 229.558 99.9344 229.819 100.939 231.023C101.235 231.378 101.153 231.903 101.051 232.353L101.022 232.483C100.647 234.09 99.9936 235.889 98.4321 236.377C97.0125 236.82 95.3313 235.675 95.2224 234.193C95.2129 234.062 95.2101 233.924 95.2072 233.784C95.1954 233.208 95.1826 232.601 94.6989 232.363L86.4586 250.891ZM73.0373 259.68C72.5062 256.953 70.8935 254.499 68.7768 252.7C68.8596 253.771 69.3131 254.811 70.0425 255.601C66.456 256.742 63.0741 258.521 60.1029 260.831C59.3082 261.45 57.9573 262.014 57.4916 261.12C55.6593 257.607 52.7431 254.668 49.2433 252.81L63.6316 244.541C64.2815 244.168 64.9698 243.783 65.7195 243.776C66.3008 243.77 66.8532 243.993 67.379 244.252L67.6398 244.384C73.024 247.157 77.8439 251.021 81.722 255.673C82.6824 256.825 83.1292 258.3 83.5098 259.759L85.2209 266.445C85.3345 266.888 85.4173 267.436 85.0703 267.733C84.8753 267.901 84.6003 267.93 84.3438 267.95L84.0437 267.973C79.7832 268.301 76.3459 268.566 72.0773 267.95C71.4407 266.729 71.9216 265.215 72.4186 263.653C72.8446 262.314 73.282 260.939 73.0373 259.68ZM51.6322 255.569C53.2287 256.975 54.6677 258.559 55.9144 260.283C56.0479 260.467 56.1852 260.673 56.171 260.9C56.1544 261.165 55.9395 261.369 55.7398 261.544L37.143 277.82C36.3676 278.499 35.1306 278.38 34.262 277.825C33.502 277.34 32.9587 276.596 32.46 275.838L32.2487 275.513C37.0952 272.966 40.2042 268.403 43.3407 263.8C45.3082 260.913 47.2865 258.009 49.7114 255.577C49.9471 255.341 50.2126 255.096 50.5445 255.059C50.9548 255.013 51.3221 255.296 51.6322 255.569ZM105.788 210.168L106.262 210.314C107.187 210.6 107.341 211.839 107.223 212.8C106.736 216.777 104.264 220.714 100.451 221.95L100.315 221.997C97.8309 222.873 96.055 225.472 96.161 228.108C94.4935 228.42 92.7057 227.086 92.5305 225.399C92.4955 225.062 92.5954 224.626 92.9296 224.574C94.4447 224.342 95.8377 223.412 96.6343 222.102C97.431 220.793 97.6156 219.128 97.1252 217.676C97.0253 217.379 96.898 217.082 96.7707 216.785C96.4081 215.939 96.0446 215.091 96.2992 214.238C96.8795 214.291 96.9898 215.087 96.9288 215.667L96.9221 215.738C96.8748 216.31 96.9756 217.043 97.5304 217.119C97.8958 216.28 97.972 215.34 98.0472 214.408C98.1424 213.23 98.237 212.064 98.912 211.126C99.684 210.053 101.069 209.56 102.391 209.545C103.547 209.531 104.677 209.831 105.788 210.168ZM22.2307 277.233L22.35 277.095C23.0155 276.95 23.6511 277.802 23.3215 278.398C23.11 278.781 23.7604 279.159 24.1235 278.916C24.4866 278.673 24.5598 278.178 24.5998 277.743C24.9651 277.628 25.2811 278.047 25.3501 278.424C25.3683 278.523 25.3796 278.626 25.391 278.729C25.4225 279.016 25.454 279.303 25.635 279.519C25.881 279.812 26.5327 279.661 26.4258 279.293C26.2664 278.745 26.9142 278.297 27.4795 278.216C27.6155 278.197 27.7558 278.185 27.8965 278.174C28.3411 278.137 28.7893 278.1 29.113 277.812L29.1618 277.773C29.5725 277.481 30.081 278.02 30.3911 278.499L30.5352 278.731C31.2169 279.791 32.3755 280.533 33.6247 280.702C33.8694 280.735 33.7449 281.117 33.5651 281.286L29.3493 285.257C29.145 285.449 28.8138 285.312 28.5744 285.166C26.072 283.634 23.7618 281.788 21.7152 279.685C21.0705 279.022 21.6173 277.965 22.2307 277.233ZM59.0981 284.622C58.9769 285.123 58.6309 285.683 58.1173 285.645C56.8791 285.554 55.6233 285.703 54.4409 286.082C54.5493 285.578 54.3288 285.019 53.9056 284.724C53.5965 285.166 53.7229 285.851 54.1692 286.154L52.9902 287.318L52.426 286.022C52.1476 286.095 52.1396 286.437 52.159 286.75L52.1727 286.945C52.229 287.765 51.5328 288.563 50.712 288.619C49.8908 288.674 49.0937 287.977 49.0393 287.156C48.9806 286.262 49.6655 285.511 50.3021 284.88L54.8243 280.403C54.9204 280.311 55.0307 280.226 55.1604 280.228C55.3038 280.231 55.4203 280.34 55.5211 280.441L57.2857 282.222C57.6279 282.568 57.4116 283.096 57.2009 283.611C56.9842 284.141 56.773 284.657 57.1825 284.944C57.5815 284.967 57.9138 284.621 58.0667 284.252C58.1452 284.064 58.1926 283.866 58.2404 283.667C58.2858 283.476 58.3317 283.285 58.4042 283.104C58.5533 282.732 58.8742 282.379 59.2737 282.388C59.6732 282.396 59.9813 282.967 59.6722 283.221C59.3428 283.491 59.2491 283.93 59.1572 284.357C59.1383 284.446 59.1194 284.536 59.0981 284.622ZM28.18 286.602C24.1154 284.428 20.5225 281.377 17.7182 277.719C18.0859 277.37 18.6389 277.741 18.9946 278.135L19.0826 278.239C21.7472 281.536 25.0936 284.28 28.8491 286.246C28.8187 286.543 28.4428 286.742 28.18 286.602ZM47.6732 285.77C49.4335 283.467 51.3846 281.31 53.499 279.327C53.827 279.02 54.5077 278.812 54.5905 279.254C52.1292 281.604 49.7743 284.066 47.5369 286.63C47.2938 286.42 47.4777 286.025 47.6732 285.77ZM34.1511 280.012C32.9225 279.575 31.8271 278.771 31.0424 277.729C30.7471 277.337 30.5609 276.657 31.0083 276.455C31.3619 276.296 31.7016 276.63 31.9482 276.954L32.1332 277.206C32.9279 278.255 34.0614 279.043 35.3222 279.42C35.3244 279.757 35.0459 280.072 34.7119 280.112C34.5216 280.134 34.3316 280.077 34.1511 280.012ZM94.4428 211.87C95.0203 211.884 95.5092 212.485 95.4046 213.054L95.4179 213.062C95.4979 213.474 95.4453 213.91 95.2702 214.291C94.6383 213.672 94.3221 212.746 94.4428 211.87ZM105.446 211.884C105.519 211.878 105.596 211.871 105.674 211.87C105.771 211.869 105.884 211.886 105.99 211.903C106.276 211.947 106.515 211.984 106.289 211.63C105.979 211.145 105.072 211.091 104.924 211.647C104.965 211.926 105.181 211.908 105.446 211.884ZM106.176 214.283C106.181 214.266 106.185 214.249 106.189 214.233C106.41 213.398 106.282 212.739 105.674 212.739C105.439 212.756 105.081 213.951 105.115 214.314C105.149 214.676 105.558 215.012 105.874 214.832C106.062 214.725 106.122 214.493 106.176 214.283ZM102.164 214.029C101.74 213.44 101.695 212.601 102.054 211.971C102.108 211.877 102.173 211.784 102.267 211.73C102.505 211.594 102.823 211.779 102.928 212.032C103.033 212.285 102.987 212.573 102.94 212.843C102.94 212.843 102.588 214.618 102.164 214.029ZM191.995 214.046C184.248 212.146 176.156 211.665 168.239 212.637C169.612 209.435 170.216 205.906 169.983 202.43C167.92 203.876 164.533 202.18 164.454 199.662C164.376 197.144 167.652 195.241 169.801 196.556C170.37 196.904 170.996 196.182 171.224 195.554C172 193.415 172.007 191.007 171.245 188.864C170.948 188.029 172.208 187.576 173.094 187.594L180.612 187.743C181.117 187.753 181.653 187.755 182.084 187.492C182.515 187.229 182.76 186.597 182.443 186.204C181.142 184.59 182.638 181.701 184.707 181.831C186.775 181.961 187.897 185.014 186.405 186.453C186.127 186.721 186.668 187.067 187.054 187.076L196.884 187.302C198.839 187.347 200.221 189.429 200.3 191.383C200.368 193.037 199.781 194.62 199.201 196.185C199.15 196.321 199.1 196.457 199.05 196.593L198.889 197.036C197.148 201.921 196.588 207.223 197.269 212.364C197.402 213.367 196.478 214.26 195.49 214.477C194.619 214.668 193.721 214.478 192.848 214.26L191.995 214.046Z" fill="#00160A"/>
<path fill-rule="evenodd" clip-rule="evenodd" d="M87.2169 124.073C87.2888 123.61 87.9061 123.342 88.3524 123.501C88.7988 123.66 89.1973 124.3 88.8703 124.662C88.3524 125.235 87.0782 124.972 87.2169 124.073Z" fill="#FFB61D"/>
<path fill-rule="evenodd" clip-rule="evenodd" d="M281.477 244.054C281.185 244.299 280.6 244.388 280.546 244.01C281.684 242.852 282.468 241.349 282.765 239.752C283.137 239.653 283.244 240.245 283.151 240.618C282.837 241.876 282.47 243.22 281.477 244.054Z" fill="#00160A"/>
<path d="M30.1163 106.038C30.1048 106.411 29.5383 106.389 29.1957 106.24C29.319 105.907 29.8189 105.796 30.0722 106.045L30.1163 106.038Z" fill="black"/>
<path fill-rule="evenodd" clip-rule="evenodd" d="M191.764 208.631C191.37 208.982 190.706 208.446 190.764 207.921C190.823 207.395 191.288 207.02 191.734 206.737C193.334 205.724 195.186 205.113 197.074 204.977C197.125 205.697 196.192 205.994 195.483 206.132C193.98 206.425 192.547 207.077 191.338 208.017C191.557 208.151 191.715 208.38 191.764 208.631Z" fill="#00160A"/>
<path fill-rule="evenodd" clip-rule="evenodd" d="M197.128 209.55C196.242 209.977 195.34 210.373 194.425 210.734C194.529 211.12 195.083 211.107 195.46 210.972C195.836 210.836 196.33 210.693 196.574 211.01C195.955 211.954 194.423 212.102 193.635 211.292C193.293 210.941 192.674 211.172 192.232 210.959C191.599 210.653 191.717 209.698 192.09 209.103C192.867 207.859 194.349 207.092 195.813 207.177C196.371 207.209 197.037 207.484 197.074 208.041C195.325 207.931 193.543 208.652 192.362 209.947C193.033 210.465 193.995 210.078 194.751 209.695C195.508 209.312 196.506 208.973 197.128 209.55Z" fill="#00160A"/>
<path fill-rule="evenodd" clip-rule="evenodd" d="M104.051 214.508C104.553 215.01 104.761 215.239 104.761 215.978C104.761 216.717 104.361 217.19 103.684 217.408C103.373 217.508 102.941 217.431 102.86 217.114C105.113 216.654 104.285 215.671 104.051 214.508Z" fill="#00160A"/>
<path fill-rule="evenodd" clip-rule="evenodd" d="M101.045 211.367C101.285 210.57 102.331 210.14 103.063 210.536C103.352 210.693 103.593 210.978 103.608 211.307C102.754 211.327 102.05 210.775 101.045 211.367Z" fill="#00160A"/>
<path fill-rule="evenodd" clip-rule="evenodd" d="M103.091 218.485C98.3246 215.84 102.056 219.23 103.091 218.485V218.485Z" fill="#00160A"/>
</g>
<defs>
<clipPath id="clip0_154_31118">
<rect width="355" height="355" fill="white"/>
</clipPath>
</defs>
</svg>
