<svg width="355" height="355" viewBox="0 0 355 355" fill="none" xmlns="http://www.w3.org/2000/svg">
<g clip-path="url(#clip0_154_31003)">
<path d="M355 0H0V355H355V0Z" fill="white"/>
<path fill-rule="evenodd" clip-rule="evenodd" d="M323.467 237.878C299.472 286.268 195.634 327.92 92.4472 283.199C33.0955 257.475 10.6445 195.491 9.46893 166.821C8.54447 144.274 25.3529 120.236 35.5 109.908C57.0688 87.9539 172.181 60.6099 198.474 62.0142C235.592 60.9729 258.749 93.187 287.965 94.7235C308.739 95.8154 370.945 142.135 323.467 237.878Z" fill="#4EB3C1"/>
<path fill-rule="evenodd" clip-rule="evenodd" d="M178.826 163.331C178.705 165.13 178.853 166.947 179.262 168.703C179.435 169.443 180.546 169.58 181.123 169.086C181.701 168.591 181.855 167.769 181.917 167.011C182.009 165.891 181.98 164.761 181.829 163.646C181.751 163.071 181.632 162.477 181.285 162.012C180.938 161.546 180.303 161.248 179.761 161.455C179.07 161.72 178.875 162.593 178.826 163.331Z" fill="white"/>
<path fill-rule="evenodd" clip-rule="evenodd" d="M91.4399 119.182C97.7817 116.042 105.355 115.479 112.091 117.648C113.783 114.396 116.277 111.565 119.288 109.474C119.869 109.071 120.7 108.707 121.223 109.183C121.013 112.525 120.802 115.877 121 119.219C121.153 121.821 121.554 124.408 121.591 127.014C121.696 134.546 118.744 141.841 114.727 148.214C124.371 154.7 131.641 164.637 134.904 175.791C133.54 176.496 97.828 177.737 78.5113 176.192C78.064 176.496 77.6451 175.763 77.594 175.225C77.0771 169.783 76.787 164.241 77.9163 158.893C79.0452 153.544 81.7437 148.345 86.202 145.181C82.0646 136.173 83.6735 125.122 78.6263 116.591C78.3267 116.085 78.0744 115.295 78.5989 115.028C78.7934 114.929 79.0258 114.959 79.2412 114.996C82.7604 115.593 86.114 117.141 88.8517 119.431C89.558 120.023 90.6144 119.591 91.4399 119.182Z" fill="white"/>
<path fill-rule="evenodd" clip-rule="evenodd" d="M228.286 175.24C228.262 175.24 231.953 169.706 234.217 167.132C236.283 164.781 237.495 161.694 237.579 158.565C230.432 158.283 223.322 157.102 216.468 155.06C215.419 154.747 214.337 154.392 213.542 153.64C211.685 151.884 212.145 148.821 213.102 146.452C214.264 143.576 215.953 140.913 218.059 138.636C218.779 137.857 219.561 137.105 220.033 136.156C220.504 135.206 220.604 133.984 219.967 133.135C218.894 131.705 218.669 129.827 218.557 128.044C218.445 126.26 218.395 124.405 217.584 122.812C216.774 121.219 214.934 119.981 213.225 120.503C212.811 119.87 213.629 119.14 214.35 118.911C217.073 118.046 220.123 118.803 222.509 120.373C224.896 121.943 226.707 124.245 228.262 126.642C228.87 127.578 229.897 128.676 230.887 128.162C237.647 124.651 245.899 124.14 253.041 126.788C254.034 127.156 255.56 127.314 255.763 126.275C256.771 121.099 261.09 116.728 266.253 115.658C264.224 117.113 264.102 120.073 264.508 122.537C264.914 125.001 265.629 127.626 264.617 129.908C263.799 131.75 265.858 133.482 267.526 134.614C270.045 136.323 272.297 138.424 274.176 140.818C276.037 143.187 277.587 146.231 276.737 149.12C275.625 152.903 271.174 154.4 267.343 155.334C263.605 156.245 259.865 157.157 256.126 158.069C256.057 161.716 257.359 165.374 259.718 168.157C261.61 170.39 264.359 172.691 263.758 175.555C265.017 177.553 253.194 177.447 228.286 175.24Z" fill="white"/>
<path fill-rule="evenodd" clip-rule="evenodd" d="M237.26 224.569C238.549 225.366 239.978 226.321 241.451 225.965C244.861 225.142 248.513 225.349 251.809 226.551C253.196 227.057 254.454 225.622 255.324 224.428C257.847 220.963 261.148 218.068 264.911 216.016C267.507 220.276 264.878 226.171 267.134 230.619C270.626 237.504 269.699 246.397 264.86 252.413C269.938 257.373 273.39 263.971 274.571 270.971C273.967 271.149 243.042 274.984 226.061 270.382C225.873 265.449 227.652 260.468 230.922 256.769C226.067 251.052 223.699 243.293 224.533 235.838C224.62 235.063 224.732 234.235 224.386 233.536C222.574 229.867 221.326 225.922 220.7 221.879C220.662 221.638 220.631 221.373 220.759 221.165C220.928 220.888 221.298 220.828 221.621 220.801C227.057 220.358 232.623 221.699 237.26 224.569Z" fill="white"/>
<path fill-rule="evenodd" clip-rule="evenodd" d="M90.1828 271.641C90.8005 267.942 91.4186 264.243 92.0363 260.543C92.1968 259.583 92.1746 258.298 91.2487 257.996C88.3619 257.058 85.9223 254.827 84.7314 252.034C84.3565 251.155 83.1987 250.842 82.2781 251.101C81.3579 251.36 80.6233 252.037 79.9266 252.692C80.3242 251.139 81.7508 249.906 83.345 249.737C83.886 248.825 83.1112 247.565 82.0845 247.301C81.0579 247.036 79.9763 247.498 79.1186 248.122C79.0519 247.134 80.2546 246.65 81.1658 246.262C82.0774 245.874 82.9673 244.648 82.1901 244.033C81.8516 243.765 81.3703 243.813 80.9428 243.874C79.707 244.051 78.4716 244.228 77.2357 244.404C77.3763 243.409 78.6689 243.154 79.671 243.077C80.6726 243 81.9662 242.512 81.8545 241.514C81.4252 237.666 82.3572 233.763 83.9121 230.218C85.2005 227.28 81.4091 224.338 81.6576 221.14C81.677 220.892 81.7361 220.621 81.9359 220.473C82.1745 220.297 82.5082 220.367 82.7917 220.455C84.7437 221.058 86.5537 222.115 88.0367 223.52C88.7561 224.202 89.9158 223.737 90.8213 223.333C94.1611 221.842 98.0756 221.688 101.522 222.911C104.635 224.015 107.395 218.689 110.48 219.869C109.692 222.46 108.905 225.051 108.118 227.642C107.901 228.356 107.695 229.177 108.09 229.811C109.42 231.948 110.227 234.408 110.42 236.918C110.556 238.686 110.898 241.074 112.666 241.213C111.896 241.551 111.047 241.973 110.78 242.771C110.514 243.568 111.425 244.621 112.115 244.14C112.71 243.725 113.672 244.071 113.866 244.771C112.846 244.671 111.74 244.782 110.942 245.426C110.145 246.07 109.832 247.372 110.508 248.143C111.991 247.532 113.742 247.612 115.163 248.356C114.316 248.978 113.153 248.794 112.104 248.731C111.054 248.669 109.777 248.911 109.405 249.894C108.166 253.177 105.121 255.709 101.668 256.329C99.9675 256.634 99.6944 258.935 99.835 260.657C100.129 264.271 100.423 267.883 100.717 271.497C100.111 272.072 93.0777 272.869 90.1828 271.641Z" fill="white"/>
<path fill-rule="evenodd" clip-rule="evenodd" d="M43.114 256.123C42.9935 257.922 43.1411 259.738 43.5504 261.494C43.723 262.235 44.8342 262.372 45.4117 261.877C45.9893 261.383 46.1432 260.561 46.2054 259.803C46.2974 258.682 46.2679 257.552 46.1176 256.438C46.04 255.863 45.9207 255.269 45.5735 254.803C45.2263 254.338 44.5917 254.039 44.0493 254.247C43.3586 254.512 43.1635 255.385 43.114 256.123Z" fill="white"/>
<path fill-rule="evenodd" clip-rule="evenodd" d="M182.801 266.04C183.016 266.161 182.985 266.508 182.804 266.676C182.622 266.843 182.359 266.879 182.114 266.907C181.257 267.006 180.315 267.085 179.606 266.596C179.967 266.338 180.327 266.081 180.688 265.824C180.461 265.498 180.016 265.433 179.623 265.384C179.229 265.336 178.781 265.242 178.589 264.895C178.397 264.548 178.816 263.996 179.131 264.237C180.103 264.981 181.532 265.066 182.585 264.442C183.279 264.031 183.935 263.318 184.726 263.472C184.174 264.549 183.078 265.329 181.88 265.499C181.908 265.918 182.422 266.22 182.801 266.04Z" fill="#00160A"/>
<path fill-rule="evenodd" clip-rule="evenodd" d="M45.3141 265.479C44.4571 265.579 43.514 265.658 42.8042 265.167C43.1677 264.91 43.5312 264.652 43.8946 264.394C43.6443 264.077 43.195 264.022 42.795 263.968C42.3951 263.913 41.94 263.79 41.7744 263.421C41.6087 263.053 42.1042 262.538 42.3868 262.826C43.0813 263.535 44.2352 263.58 45.1737 263.258C46.1122 262.936 46.9131 262.317 47.7688 261.814C47.7906 263.081 46.308 263.747 45.0876 264.085C45.1159 264.498 45.6269 264.794 45.9988 264.613C46.2148 264.732 46.1852 265.08 46.0038 265.247C45.8224 265.415 45.5594 265.451 45.3141 265.479Z" fill="#00160A"/>
<path fill-rule="evenodd" clip-rule="evenodd" d="M43.442 262.978C42.1012 262.479 41.8313 260.734 41.7762 259.304C41.7397 258.358 41.7033 257.412 41.6668 256.467C41.6464 255.937 41.6275 255.396 41.7839 254.889C42.0448 254.045 42.8199 253.382 43.695 253.256C44.5702 253.13 45.5009 253.546 45.9898 254.283C46.2693 254.704 46.4056 255.202 46.5124 255.696C46.7402 256.749 46.8539 257.827 46.8511 258.904C46.8484 259.949 46.7198 261.04 46.1402 261.909C45.5607 262.777 44.4205 263.343 43.442 262.978ZM44.6432 262.192C45.3371 261.973 45.5921 261.136 45.6904 260.415C45.8612 259.163 45.8756 257.891 45.7331 256.637C45.6614 256.005 45.5382 255.35 45.1496 254.846C44.761 254.343 44.0339 254.049 43.467 254.337C42.764 254.694 42.6831 255.648 42.6963 256.436C42.7134 257.464 42.7305 258.491 42.7477 259.518C42.7584 260.157 42.7755 260.823 43.0715 261.389C43.3676 261.956 44.0337 262.384 44.6432 262.192Z" fill="#00160A"/>
<path fill-rule="evenodd" clip-rule="evenodd" d="M179.55 254.463C180.504 253.854 181.854 254.291 182.572 255.165C183.29 256.039 183.505 257.219 183.57 258.348C183.609 259.002 183.606 259.659 183.562 260.312C183.499 261.231 183.343 262.176 182.834 262.943C182.326 263.71 181.387 264.253 180.488 264.056C179.715 263.886 179.132 263.214 178.852 262.474C178.573 261.733 178.546 260.926 178.522 260.135C178.499 259.383 178.476 258.63 178.454 257.877C178.416 256.624 178.494 255.138 179.55 254.463ZM180.684 263.191C181.204 263.319 181.755 263.001 182.051 262.554C182.346 262.107 182.437 261.558 182.493 261.025C182.616 259.852 182.601 258.665 182.45 257.495C182.373 256.896 182.249 256.276 181.88 255.798C181.511 255.32 180.832 255.032 180.283 255.284C179.625 255.588 179.476 256.444 179.444 257.168C179.383 258.54 179.428 259.917 179.577 261.282C179.663 262.063 179.921 263.002 180.684 263.191Z" fill="#00160A"/>
<path fill-rule="evenodd" clip-rule="evenodd" d="M179.434 257.07C179.313 258.868 179.461 260.685 179.87 262.441C180.043 263.182 181.154 263.319 181.732 262.824C182.309 262.329 182.463 261.507 182.525 260.749C182.617 259.629 182.588 258.499 182.438 257.385C182.36 256.809 182.24 256.216 181.893 255.75C181.547 255.284 180.912 254.986 180.369 255.194C179.679 255.459 179.484 256.331 179.434 257.07Z" fill="white"/>
<path fill-rule="evenodd" clip-rule="evenodd" d="M177.526 170.469C177.624 170.146 178.041 170.028 178.37 170.106C178.698 170.183 178.978 170.393 179.289 170.526C180.446 171.022 181.773 170.376 182.757 169.59C183.088 169.326 183.619 169.061 183.869 169.402C183.276 170.41 182.218 171.132 181.064 171.318C181.099 171.731 181.605 172.027 181.982 171.854C182.195 171.975 182.164 172.319 181.983 172.485C181.803 172.651 181.541 172.687 181.298 172.715C180.448 172.814 179.517 172.894 178.803 172.422C179.184 172.122 179.565 171.823 179.945 171.524C179.062 171.405 178.215 171.035 177.526 170.469Z" fill="#00160A"/>
<path fill-rule="evenodd" clip-rule="evenodd" d="M221.621 220.801C227.057 220.358 232.623 221.699 237.26 224.569C238.549 225.366 239.978 226.321 241.451 225.965C244.861 225.142 248.513 225.349 251.809 226.551C253.196 227.057 254.454 225.622 255.324 224.428C257.847 220.963 261.148 218.068 264.911 216.016C267.507 220.276 264.878 226.171 267.134 230.619C270.626 237.504 269.699 246.397 264.86 252.413C269.938 257.373 273.39 263.971 274.571 270.971C273.967 271.149 273.571 270.36 273.425 269.748C272.123 264.279 269.535 259.119 265.931 254.803C265.087 253.793 263.708 252.746 262.594 253.449C253.748 259.035 242.535 260.721 232.437 257.985C230.771 257.534 229.588 259.557 229.054 261.198C228.056 264.259 227.058 267.321 226.061 270.382C225.873 265.449 227.652 260.468 230.922 256.769C226.067 251.052 223.699 243.293 224.533 235.838C224.62 235.063 224.732 234.235 224.386 233.536C222.574 229.867 221.326 225.922 220.7 221.879C220.662 221.638 220.631 221.373 220.759 221.165C220.928 220.888 221.298 220.828 221.621 220.801ZM243.668 230.601C241.747 232.364 240.164 234.493 239.028 236.838C238.356 234.589 238.72 232.053 239.997 230.083C238.27 230.728 236.671 231.714 235.32 232.968C235.321 231.094 236.274 229.245 237.798 228.157C237.138 228.176 236.478 228.195 235.817 228.214C236.505 227.361 237.474 226.739 238.536 226.468C233.673 223 227.576 221.3 221.62 221.752C222.671 227.96 225.178 233.917 228.884 239.007C227.301 238.359 226.007 237.037 225.394 235.44C224.715 241.839 226.344 248.458 229.915 253.811C230.58 254.808 231.323 255.776 232.288 256.486C233.889 257.665 235.939 258.026 237.919 258.207C245.835 258.929 253.955 257.247 260.933 253.439C262.274 252.707 263.588 251.887 264.652 250.79C266.058 249.338 266.961 247.461 267.542 245.525C269.065 240.444 268.419 234.751 265.795 230.141C265.321 231.555 264.847 232.969 264.373 234.383C264.173 234.98 263.286 235.603 263.116 234.997C265.47 229.419 265.974 223.08 264.533 217.2C259.158 220.768 254.654 225.638 251.517 231.274C251.384 229.961 251.722 228.606 252.454 227.508C249.06 230.108 246.119 233.296 243.802 236.888C243.38 234.823 243.335 232.682 243.668 230.601Z" fill="#00160A"/>
<path fill-rule="evenodd" clip-rule="evenodd" d="M40.0394 171.527C40.4975 171.607 40.992 171.431 41.297 171.08C40.3714 170.915 39.4855 170.532 38.7322 169.969C39.0323 169.455 39.8011 169.764 40.3553 169.981C41.6977 170.506 43.3736 169.966 44.1577 168.757C44.3687 168.431 44.9337 168.804 44.8717 169.187C44.8097 169.57 44.4324 169.806 44.0924 169.993C43.4427 170.349 42.793 170.705 42.1433 171.061C42.6773 171.109 43.1913 171.353 43.5661 171.736C42.8579 172.313 41.8604 172.325 40.9473 172.308C40.6993 172.304 40.4373 172.295 40.2275 172.163C40.0176 172.031 39.8945 171.728 40.0394 171.527Z" fill="#00160A"/>
<path fill-rule="evenodd" clip-rule="evenodd" d="M178.242 161.451C178.977 160.301 180.828 160.101 181.791 161.068C182.345 161.623 182.576 162.418 182.722 163.187C182.92 164.23 183.001 165.295 182.963 166.355C182.928 167.332 182.777 168.346 182.225 169.154C181.674 169.962 180.633 170.501 179.699 170.21C178.301 169.773 177.985 167.971 177.916 166.508C177.88 165.735 177.843 164.962 177.807 164.189C177.762 163.251 177.735 162.244 178.242 161.451ZM178.826 163.33C178.705 165.128 178.853 166.945 179.262 168.701C179.435 169.442 180.546 169.578 181.123 169.084C181.701 168.589 181.855 167.767 181.917 167.01C182.009 165.889 181.98 164.759 181.829 163.645C181.751 163.069 181.632 162.476 181.285 162.01C180.938 161.544 180.303 161.246 179.761 161.454C179.07 161.719 178.875 162.591 178.826 163.33Z" fill="#00160A"/>
<path fill-rule="evenodd" clip-rule="evenodd" d="M40.274 162.403C40.1535 164.202 40.3011 166.019 40.7104 167.774C40.883 168.515 41.9942 168.652 42.5717 168.157C43.1493 167.663 43.3032 166.841 43.3654 166.083C43.4574 164.962 43.4279 163.832 43.2776 162.718C43.2 162.143 43.0807 161.549 42.7335 161.083C42.3863 160.618 41.7517 160.319 41.2093 160.527C40.5186 160.792 40.3235 161.665 40.274 162.403Z" fill="white"/>
<path fill-rule="evenodd" clip-rule="evenodd" d="M40.5496 169.58C39.5363 169.074 39.2587 167.777 39.1476 166.65C39.0394 165.551 38.9774 164.447 38.9619 163.343C38.9515 162.605 38.9698 161.834 39.3163 161.183C39.6931 160.474 40.4579 159.989 41.2593 159.949C42.0608 159.909 42.87 160.317 43.3151 160.984C43.6071 161.422 43.7422 161.945 43.8448 162.461C44.0561 163.525 44.1505 164.613 44.1257 165.697C44.1016 166.751 43.9454 167.853 43.3227 168.704C42.7 169.554 41.4925 170.051 40.5496 169.58ZM40.2791 167.692C40.3527 168.043 40.4547 168.409 40.715 168.655C41.226 169.138 42.1288 168.898 42.5603 168.342C42.9918 167.788 43.0709 167.043 43.0993 166.34C43.1413 165.304 43.1086 164.264 43.0016 163.232C42.9408 162.646 42.8485 162.042 42.527 161.549C42.2055 161.056 41.5945 160.705 41.0268 160.86C40.1287 161.106 39.9554 162.286 39.9587 163.217C39.9641 164.715 39.9708 166.226 40.2791 167.692Z" fill="#00160A"/>
<path fill-rule="evenodd" clip-rule="evenodd" d="M228.286 175.24C228.514 171.82 231.953 169.706 234.217 167.132C236.283 164.781 237.495 161.694 237.579 158.565C230.432 158.283 223.322 157.102 216.468 155.06C215.419 154.747 214.337 154.392 213.542 153.64C211.685 151.884 212.145 148.821 213.102 146.452C214.264 143.576 215.953 140.913 218.059 138.636C218.779 137.857 219.561 137.105 220.033 136.156C220.504 135.206 220.604 133.984 219.967 133.135C218.894 131.705 218.669 129.827 218.557 128.044C218.445 126.26 218.395 124.405 217.584 122.812C216.774 121.219 214.934 119.981 213.225 120.503C212.811 119.87 213.629 119.14 214.35 118.911C217.073 118.046 220.123 118.803 222.509 120.373C224.896 121.943 226.707 124.245 228.262 126.642C228.87 127.578 229.897 128.676 230.887 128.162C237.647 124.651 245.899 124.14 253.041 126.788C254.034 127.156 255.56 127.314 255.763 126.275C256.771 121.099 261.09 116.728 266.253 115.658C264.224 117.113 264.102 120.073 264.508 122.537C264.914 125.001 265.629 127.626 264.617 129.908C263.799 131.75 265.858 133.482 267.526 134.614C270.045 136.323 272.297 138.424 274.176 140.818C276.037 143.187 277.587 146.231 276.737 149.12C275.625 152.903 271.174 154.4 267.343 155.334C263.605 156.245 259.865 157.157 256.126 158.069C256.057 161.716 257.359 165.374 259.718 168.157C261.61 170.39 264.359 172.691 263.758 175.555C262.478 172.51 260.078 170.103 258.15 167.42C256.222 164.738 254.702 161.382 255.574 158.196C253.867 157.585 252.076 158.806 250.785 160.078C249.494 161.351 248.133 162.852 246.323 162.954C243.342 163.121 241.48 159.483 238.566 158.832C238.499 160.783 237.988 162.717 237.084 164.447C236.123 166.287 234.742 167.868 233.374 169.43C231.678 171.367 229.982 173.303 228.286 175.24ZM231.064 128.968C229.251 129.85 232.059 133.294 230.437 134.491C229.602 129.963 227.237 125.731 223.817 122.648C221.596 120.646 218.649 119.069 215.711 119.625C217.428 120.3 218.474 122.085 218.924 123.876C219.373 125.665 219.358 127.539 219.671 129.358C220.222 132.559 221.823 135.572 224.17 137.819C223.101 137.805 222.066 137.148 221.598 136.187C218.308 139.145 215.665 142.817 213.905 146.875C213.21 148.476 212.668 150.386 213.527 151.904C214.252 153.185 215.753 153.781 217.153 154.234C222.192 155.866 227.434 156.871 232.719 157.218C235.877 157.425 239.287 157.478 241.811 159.387C242.728 160.08 243.481 160.993 244.481 161.561C245.48 162.13 246.891 162.246 247.669 161.4C250.707 158.095 255.327 156.814 259.741 156.002C264.155 155.189 268.765 154.645 272.613 152.336C274.058 151.469 275.427 150.269 275.894 148.65C276.529 146.449 275.344 144.152 274.004 142.294C271.303 138.548 267.788 135.391 263.774 133.106C263.599 133.8 263.169 134.428 262.584 134.843C262.396 134.057 262.74 133.254 263.015 132.493C264.718 127.791 263.942 122.598 263.145 117.661C257.921 120.675 255.207 127.456 256.907 133.243C255.911 133.428 255.44 132.032 255.537 131.023C255.634 130.015 255.715 128.697 254.78 128.306C247.262 125.155 238.394 125.403 231.064 128.968Z" fill="#00160A"/>
<path fill-rule="evenodd" clip-rule="evenodd" d="M92.6394 236.443C93.1643 237.33 93.2225 238.476 92.7899 239.411C92.5603 239.907 91.7841 239.89 91.394 239.506C91.0045 239.123 90.9022 238.543 90.827 238.002C90.7583 237.512 90.6992 236.996 90.8857 236.538C91.0726 236.08 91.5947 235.72 92.0595 235.888C92.3166 235.98 92.5002 236.208 92.6394 236.443Z" fill="#00160A"/>
<path fill-rule="evenodd" clip-rule="evenodd" d="M100.717 271.497C99.0549 267.278 98.4997 262.628 99.1226 258.136C97.5564 259.851 94.6662 260.144 92.788 258.777C93.2372 263.196 92.3161 267.745 90.1828 271.641C90.8005 267.942 91.4186 264.243 92.0363 260.543C92.1968 259.583 92.1746 258.298 91.2487 257.996C88.3619 257.058 85.9223 254.827 84.7314 252.034C84.3565 251.155 83.1987 250.842 82.2781 251.101C81.3579 251.36 80.6233 252.037 79.9266 252.692C80.3242 251.139 81.7508 249.906 83.345 249.737C83.886 248.825 83.1112 247.565 82.0845 247.301C81.0579 247.036 79.9763 247.498 79.1186 248.122C79.0519 247.134 80.2546 246.65 81.1658 246.262C82.0774 245.874 82.9673 244.648 82.1901 244.033C81.8516 243.765 81.3703 243.813 80.9428 243.874C79.707 244.051 78.4716 244.228 77.2357 244.404C77.3763 243.409 78.6689 243.154 79.671 243.077C80.6726 243 81.9662 242.512 81.8545 241.514C81.4252 237.666 82.3572 233.763 83.9121 230.218C85.2005 227.28 81.4091 224.338 81.6576 221.14C81.677 220.892 81.7361 220.621 81.9359 220.473C82.1745 220.297 82.5082 220.367 82.7917 220.455C84.7437 221.058 86.5537 222.115 88.0367 223.52C88.7561 224.202 89.9158 223.737 90.8213 223.333C94.1611 221.842 98.0756 221.688 101.522 222.911C104.635 224.015 107.395 218.689 110.48 219.869C109.692 222.46 108.905 225.051 108.118 227.642C107.901 228.356 107.695 229.177 108.09 229.811C109.42 231.948 110.227 234.408 110.42 236.918C110.556 238.686 110.898 241.074 112.666 241.213C111.896 241.551 111.047 241.973 110.78 242.771C110.514 243.568 111.425 244.621 112.115 244.14C112.71 243.725 113.672 244.071 113.866 244.771C112.846 244.671 111.74 244.782 110.942 245.426C110.145 246.07 109.832 247.372 110.508 248.143C111.991 247.532 113.742 247.612 115.163 248.356C114.316 248.978 113.153 248.794 112.104 248.731C111.054 248.669 109.777 248.911 109.405 249.894C108.166 253.177 105.121 255.709 101.668 256.329C99.9675 256.634 99.6944 258.935 99.835 260.657C100.129 264.271 100.423 267.883 100.717 271.497ZM102.09 245.527C101.546 246.024 100.606 246.543 100.203 245.926C102.533 243.425 105.729 241.746 109.11 241.246C109.8 241.143 109.953 240.222 109.904 239.527C109.661 236.104 108.679 232.735 107.044 229.718C106.799 230.352 106.022 230.725 105.374 230.519C107.307 227.615 108.579 224.273 109.066 220.819C105.972 222.101 103.223 224.206 101.177 226.858C100.892 225.84 101.348 224.661 102.243 224.099C98.1613 222.602 93.4705 222.851 89.5712 224.775C89.673 225.407 89.7743 226.04 89.8756 226.673C87.9628 224.356 85.4703 222.522 82.6894 221.385C83.5935 224.761 84.9113 228.026 86.6044 231.083C85.8693 231.242 85.0708 230.605 85.0623 229.853C83.5263 233.195 82.6819 236.854 82.5976 240.531C82.5735 241.588 82.999 243.019 84.0507 242.909C86.922 242.612 89.9026 243.611 92.0146 245.578C90.054 245.012 88.0935 244.445 86.1329 243.879C85.289 243.635 84.3215 243.407 83.5817 243.88C82.8423 244.354 82.9299 245.823 83.8079 245.84C86.1079 245.17 88.7065 245.62 90.6466 247.025C88.3756 246.52 86.0009 246.487 83.717 246.931C83.1476 248.305 85.0821 249.381 86.5703 249.374C88.058 249.367 89.921 249.207 90.6433 250.507C88.8191 250.413 86.9949 250.318 85.1707 250.223C85.6714 253.473 88.4655 256.234 91.7216 256.695C92.3431 256.783 92.7506 257.362 93.2131 257.786C95.0529 259.473 98.5854 258.327 99.0843 255.882C103.322 255.751 107.357 252.933 108.938 249C106.789 249.305 104.64 249.61 102.49 249.915C102.994 248.945 104.189 248.573 105.275 248.46C106.363 248.346 107.512 248.384 108.476 247.869C109.439 247.354 110.066 245.995 109.375 245.147C106.69 246.091 104.005 247.035 101.319 247.979C102.213 246.647 103.622 245.671 105.182 245.302C106.27 245.044 107.427 245.07 108.468 244.662C109.509 244.255 110.44 243.182 110.145 242.104C107.177 242.293 104.286 243.522 102.09 245.527Z" fill="#00160A"/>
<path fill-rule="evenodd" clip-rule="evenodd" d="M99.399 234.395C99.0384 234.377 98.6024 234.307 98.4689 233.971C99.347 232.977 101.249 233.293 101.758 234.518C100.971 234.477 100.185 234.436 99.399 234.395Z" fill="#00160A"/>
<path fill-rule="evenodd" clip-rule="evenodd" d="M98.051 253.037C98.3326 253.376 98.2739 253.91 98.0093 254.262C97.7447 254.614 97.3216 254.814 96.8961 254.93C96.2774 255.101 95.5442 255.098 95.0732 254.662C94.3912 254.031 94.7197 252.747 95.5579 252.346C96.3962 251.946 97.4579 252.322 98.051 253.037ZM95.6067 253.231C95.3932 253.628 95.8457 254.116 96.2959 254.117C96.746 254.118 97.1341 253.818 97.4825 253.534C97.0243 253.033 96.2074 252.908 95.6204 253.249L95.6067 253.231Z" fill="#00160A"/>
<path fill-rule="evenodd" clip-rule="evenodd" d="M100.406 239.45C99.853 239.729 99.1534 239.281 98.9442 238.698C98.735 238.114 98.8751 237.468 99.0365 236.87C99.1283 236.528 99.2514 236.155 99.5586 235.981C99.9713 235.747 100.523 236.014 100.763 236.424C101.002 236.833 101.014 237.332 101.019 237.806C101.026 238.425 100.959 239.172 100.406 239.45Z" fill="#00160A"/>
<path fill-rule="evenodd" clip-rule="evenodd" d="M90.4464 253.065C92.1102 253.28 93.8644 252.474 94.7864 251.072C95.708 249.67 95.7525 247.74 94.8962 246.297C94.4433 245.534 93.7541 244.583 94.3027 243.885C94.581 243.53 95.0756 243.44 95.5258 243.415C96.0176 243.389 96.5406 243.42 96.9514 243.692C97.3623 243.964 97.6018 244.545 97.3519 244.97C96.3645 246.646 96.516 248.921 97.7159 250.452C98.9163 251.984 101.089 252.674 102.953 252.116C103.294 252.014 103.853 252.049 103.785 252.398C103.769 252.483 103.71 252.553 103.65 252.615C102.597 253.702 100.772 253.525 99.4151 252.852C98.1547 252.227 97.0731 251.245 96.3285 250.051C95.6621 251.187 94.9743 252.349 93.9543 253.182C92.9343 254.015 91.4953 254.465 90.2727 253.974C89.9376 253.84 89.5902 253.436 89.8325 253.168C89.9774 253.008 90.2315 253.037 90.4464 253.065Z" fill="#00160A"/>
<path fill-rule="evenodd" clip-rule="evenodd" d="M93.3948 233.987C93.4786 234.25 93.1122 234.409 92.8386 234.438C92.3194 234.494 91.8006 234.55 91.2814 234.606C90.8809 234.649 90.3053 234.532 90.3494 234.131C91.0627 233.38 92.3213 233.223 93.1969 233.776C93.2803 233.829 93.365 233.893 93.3948 233.987Z" fill="#00160A"/>
<path fill-rule="evenodd" clip-rule="evenodd" d="M233.416 263.082C233.312 262.097 233.335 260.938 234.117 260.328C234.803 259.792 235.778 259.919 236.635 260.073C237.996 260.316 239.358 260.559 240.719 260.803C241.782 260.993 242.92 261.175 243.91 260.74C244.699 260.393 245.603 260.765 246.465 260.772C247.169 260.778 247.848 260.537 248.51 260.3C250.541 259.57 252.574 258.841 254.605 258.112C254.979 257.978 255.394 257.844 255.761 257.994C256.32 258.221 256.445 258.942 256.488 259.543C256.537 260.228 256.586 260.914 256.636 261.599C256.696 262.436 256.75 263.31 256.422 264.082C256.094 264.854 255.254 265.479 254.441 265.269C252.343 264.728 250.209 264.328 248.058 264.071C247.625 264.02 247.061 264.05 246.919 264.463C246.592 265.408 245.24 265.256 244.254 265.09C241.992 264.708 239.582 265.304 237.759 266.695C237.27 267.068 236.814 267.5 236.251 267.744C235.687 267.989 234.966 268.002 234.52 267.581C234.214 267.293 234.094 266.865 233.996 266.458C233.729 265.347 233.535 264.219 233.416 263.082ZM243.621 262.295C240.876 261.774 238.117 261.324 235.349 260.945C234.912 260.885 234.505 261.246 234.362 261.662C234.218 262.079 234.273 262.536 234.336 262.972C234.476 263.93 234.645 264.884 234.842 265.831C234.904 266.127 234.976 266.437 235.177 266.664C235.379 266.89 235.753 266.993 235.988 266.801C237.489 265.582 239.266 264.705 241.146 264.254C241.711 264.119 242.299 264.017 242.799 263.72C243.299 263.423 243.7 262.871 243.621 262.295ZM251.435 260.174C249.974 260.577 248.421 261.035 247.439 262.189C247.141 262.54 247.079 263.286 247.54 263.269C249.836 263.182 252.148 263.541 254.31 264.318C254.77 264.484 255.288 264.154 255.505 263.717C255.723 263.279 255.715 262.769 255.704 262.281C255.681 261.361 255.659 260.441 255.637 259.521C255.633 259.373 255.612 259.197 255.48 259.132C255.391 259.088 255.286 259.113 255.191 259.14C253.939 259.484 252.687 259.829 251.435 260.174ZM244.295 263.588C244.358 263.804 244.451 264.022 244.622 264.169C245.041 264.53 245.746 264.271 246.027 263.795C246.308 263.319 246.279 262.727 246.215 262.178C246.138 261.52 245.155 261.305 244.657 261.742C244.159 262.179 244.107 262.952 244.295 263.588Z" fill="#00160A"/>
<path fill-rule="evenodd" clip-rule="evenodd" d="M260.652 245.932C259.436 245.784 258.181 245.974 257.064 246.476C256.775 246.606 256.495 246.18 256.62 245.89C256.745 245.599 257.071 245.461 257.369 245.356C259.094 244.749 261.284 244.449 262.514 245.802C261.988 246.162 261.285 246.01 260.652 245.932Z" fill="#00160A"/>
<path fill-rule="evenodd" clip-rule="evenodd" d="M247.382 252.378C247.41 253.317 246.521 254.08 245.596 254.247C244.672 254.415 243.731 254.139 242.832 253.866C242.049 253.629 241.806 252.53 242.219 251.824C242.632 251.118 243.467 250.769 244.275 250.637C244.939 250.528 245.645 250.539 246.256 250.823C246.867 251.107 247.361 251.705 247.382 252.378ZM243.047 252.603C243.091 252.884 243.42 253.007 243.697 253.074C244.234 253.206 244.788 253.338 245.334 253.258C245.882 253.176 246.427 252.828 246.569 252.294C245.757 251.454 244.306 251.339 243.371 252.04C243.189 252.176 243.012 252.378 243.047 252.603Z" fill="#00160A"/>
<path fill-rule="evenodd" clip-rule="evenodd" d="M233.316 247.586C231.694 247.59 230.071 247.594 228.449 247.597C228.107 247.598 227.625 247.418 227.74 247.097C229.434 246.36 231.401 246.271 233.155 246.85C233.478 246.957 233.829 247.392 233.528 247.551C233.464 247.586 233.388 247.586 233.316 247.586Z" fill="#00160A"/>
<path fill-rule="evenodd" clip-rule="evenodd" d="M251.266 241.413C251.358 240.833 251.517 240.162 252.054 239.924C252.57 239.694 253.197 240.022 253.495 240.503C253.792 240.983 253.842 241.571 253.884 242.135C253.152 242.202 252.421 242.269 251.689 242.336C251.297 242.371 251.204 241.801 251.266 241.413Z" fill="#00160A"/>
<path fill-rule="evenodd" clip-rule="evenodd" d="M257.618 248.341C257.382 248.293 257.139 248.241 256.942 248.101C256.801 248.001 256.69 247.858 256.629 247.696C258.282 246.999 260.388 247.631 261.385 249.122C260.129 248.862 258.874 248.602 257.618 248.341Z" fill="#00160A"/>
<path fill-rule="evenodd" clip-rule="evenodd" d="M254.216 238.264C254.636 237.592 255.684 237.906 256.318 238.382C256.943 238.852 257.502 239.409 257.975 240.031C257.954 240.397 257.385 240.314 257.078 240.115C256.124 239.498 255.17 238.881 254.216 238.264Z" fill="#00160A"/>
<path fill-rule="evenodd" clip-rule="evenodd" d="M231.278 249.361C231.947 249.132 232.616 248.904 233.285 248.675C233.553 248.583 233.839 248.491 234.114 248.558C234.389 248.626 234.627 248.925 234.521 249.188C233.207 249.679 231.876 250.124 230.531 250.524C230.318 250.34 230.361 249.977 230.546 249.764C230.732 249.552 231.011 249.452 231.278 249.361Z" fill="#00160A"/>
<path fill-rule="evenodd" clip-rule="evenodd" d="M236.828 240.928C237.083 241.1 237.214 241.401 237.333 241.685C237.491 242.064 237.652 242.472 237.566 242.873C237.481 243.273 237.031 243.619 236.662 243.439C236.245 243.236 235.791 243.983 235.38 243.767C235.186 243.664 235.148 243.407 235.134 243.188C235.096 242.598 235.064 241.972 235.344 241.451C235.624 240.93 236.338 240.597 236.828 240.928Z" fill="#00160A"/>
<path fill-rule="evenodd" clip-rule="evenodd" d="M231.724 240.664C232.34 239.148 234.108 238.2 235.711 238.524C235.929 238.568 236.199 238.731 236.121 238.939C236.081 239.049 235.958 239.102 235.847 239.143C234.473 239.65 233.099 240.157 231.724 240.664Z" fill="#00160A"/>
<path fill-rule="evenodd" clip-rule="evenodd" d="M239.911 248.323C239.565 248.367 239.126 248.333 238.995 248.01C239.227 247.826 239.505 247.629 239.794 247.696C240.083 247.764 240.187 248.268 239.897 248.329L239.911 248.323Z" fill="#00160A"/>
<path fill-rule="evenodd" clip-rule="evenodd" d="M246.828 247.826C247.191 247.766 247.382 247.255 247.149 246.97C246.914 246.686 246.376 246.776 246.246 247.121C246.117 247.465 246.464 247.887 246.828 247.826Z" fill="#00160A"/>
<path fill-rule="evenodd" clip-rule="evenodd" d="M238.753 250.291C238.243 250.217 237.589 249.886 237.745 249.396C238.306 249.072 239.002 249.349 239.643 249.442C240.284 249.535 241.149 249.184 241.043 248.545C241.15 248.814 241.257 249.084 241.364 249.352C242.017 249.179 242.625 248.844 243.122 248.387C243.403 248.129 243.654 247.685 243.404 247.396C242.827 246.728 243.454 245.475 244.335 245.536C245.216 245.598 245.663 246.925 244.999 247.507C244.826 247.658 245 247.935 245.179 248.079C246.425 249.079 248.162 249.435 249.702 249.005C250.39 248.812 251.27 248.529 251.707 249.094C249.512 250.68 246.174 250.404 244.269 248.48C243.196 250.23 240.783 250.585 238.753 250.291Z" fill="#00160A"/>
<path fill-rule="evenodd" clip-rule="evenodd" d="M249.1 247.282C249.312 247.377 249.345 247.72 249.155 247.854C248.966 247.988 248.653 247.843 248.634 247.612C248.714 247.44 248.9 247.322 249.089 247.324L249.1 247.282Z" fill="#00160A"/>
<path fill-rule="evenodd" clip-rule="evenodd" d="M241.125 247.524C241.347 247.864 241.997 247.441 241.776 247.1C241.554 246.76 240.904 247.183 241.125 247.524Z" fill="#00160A"/>
<path fill-rule="evenodd" clip-rule="evenodd" d="M222.668 146.226C221.815 146.322 220.896 146.529 220.141 146.121C221.034 145.282 222.367 145.118 223.592 145.178C225.667 145.281 227.714 145.912 229.489 146.994C229.116 147.68 228.087 147.343 227.381 147.01C225.922 146.323 224.271 146.048 222.668 146.226Z" fill="#00160A"/>
<path fill-rule="evenodd" clip-rule="evenodd" d="M252.647 139.095C252.511 138.583 252.504 138.163 252.972 137.913C253.653 137.549 255.803 137.582 256.035 138.113C256.267 138.643 255.384 141.08 254.144 141.08C253.648 141.08 252.783 139.608 252.647 139.095Z" fill="#00160A"/>
<path fill-rule="evenodd" clip-rule="evenodd" d="M266.287 145.135C263.618 145.301 260.976 145.884 258.484 146.856C258.142 146.989 257.617 147.041 257.539 146.683C257.974 145.952 258.848 145.625 259.664 145.386C261.492 144.852 263.373 144.502 265.271 144.343C265.545 144.32 265.838 144.305 266.078 144.44C266.318 144.575 266.459 144.919 266.287 145.135Z" fill="#00160A"/>
<path fill-rule="evenodd" clip-rule="evenodd" d="M266.826 148.13C264.715 148.319 262.604 148.507 260.493 148.696C260.109 148.73 259.532 148.473 259.754 148.156C261.925 147.478 264.205 147.148 266.479 147.181C267.042 147.19 267.695 147.271 267.99 147.749C267.691 148.04 267.241 148.093 266.826 148.13Z" fill="#00160A"/>
<path fill-rule="evenodd" clip-rule="evenodd" d="M235.786 141.257C235.338 141.784 234.431 141.633 233.952 141.136C233.473 140.638 233.309 139.925 233.165 139.249C233.09 138.897 233.024 138.497 233.234 138.204C233.454 137.897 236.516 137.875 236.662 138.139C236.807 138.402 236.717 138.624 236.662 138.829C236.561 139.2 236.11 140.876 235.786 141.257Z" fill="#00160A"/>
<path fill-rule="evenodd" clip-rule="evenodd" d="M219.796 149.607C222.458 148.51 225.429 148.176 228.268 148.654C228.573 148.705 228.906 148.785 229.08 149.04C229.252 149.296 229.086 149.752 228.78 149.709C225.482 149.24 221.902 149.274 219.095 151.068C218.8 150.901 218.78 150.453 218.968 150.171C219.157 149.889 219.483 149.736 219.796 149.607Z" fill="#00160A"/>
<path fill-rule="evenodd" clip-rule="evenodd" d="M239.341 152.229C239.204 151.835 239.498 151.352 239.911 151.293C240.076 151.4 240.184 151.59 240.193 151.787C240.064 152.091 239.726 152.292 239.397 152.259L239.341 152.229Z" fill="#00160A"/>
<path fill-rule="evenodd" clip-rule="evenodd" d="M235.034 135.143C235.496 135.15 236.128 135.459 235.926 135.874C233.921 135.991 231.942 136.522 230.147 137.422C229.882 137.396 229.756 137.045 229.859 136.799C229.961 136.553 230.204 136.4 230.438 136.273C231.84 135.512 233.439 135.119 235.034 135.143Z" fill="#00160A"/>
<path fill-rule="evenodd" clip-rule="evenodd" d="M246.222 151.892C246.514 151.577 247.103 151.629 247.335 151.99C247.107 152.425 246.343 152.382 246.166 151.924L246.222 151.892Z" fill="#00160A"/>
<path fill-rule="evenodd" clip-rule="evenodd" d="M248.253 151.683C248.457 151.388 249.034 151.643 248.952 151.993C248.866 152.169 248.675 152.288 248.48 152.288C248.254 152.201 248.144 151.9 248.259 151.688L248.253 151.683Z" fill="#00160A"/>
<path fill-rule="evenodd" clip-rule="evenodd" d="M241.357 150.076C241.154 150.372 240.576 150.116 240.659 149.767C240.744 149.591 240.936 149.472 241.131 149.472C241.356 149.558 241.467 149.86 241.352 150.071L241.357 150.076Z" fill="#00160A"/>
<path fill-rule="evenodd" clip-rule="evenodd" d="M237.95 150.883C237.932 151.226 238.359 151.503 238.665 151.346C238.971 151.19 238.997 150.683 238.709 150.496C238.421 150.309 237.968 150.54 237.95 150.883Z" fill="#00160A"/>
<path fill-rule="evenodd" clip-rule="evenodd" d="M246.645 150.67C246.937 150.888 247.432 150.676 247.476 150.315C247.519 149.952 247.087 149.629 246.752 149.773C246.417 149.916 246.353 150.452 246.645 150.67Z" fill="#00160A"/>
<path fill-rule="evenodd" clip-rule="evenodd" d="M252.057 136.169C253.772 134.928 256.144 135.497 258.168 136.117C258.485 136.214 258.881 136.505 258.698 136.781C258.589 136.946 258.35 136.941 258.154 136.916C256.122 136.667 254.09 136.418 252.057 136.169Z" fill="#00160A"/>
<path fill-rule="evenodd" clip-rule="evenodd" d="M244.39 150.671C245.007 152.588 247.224 153.831 249.182 153.358C250.043 153.149 251.026 152.681 251.732 153.216C250.494 154.253 248.751 154.656 247.184 154.268C245.616 153.881 244.263 152.712 243.65 151.218C242.436 152.91 240.512 154.074 238.449 154.363C238.142 154.406 237.792 154.418 237.559 154.212C237.326 154.007 237.387 153.515 237.698 153.493C239.4 153.375 241.051 152.627 242.263 151.426C242.921 150.775 243.462 149.727 242.935 148.965C242.445 148.254 242.051 147.478 241.767 146.663C241.661 146.361 241.579 145.998 241.773 145.744C241.917 145.556 242.167 145.491 242.397 145.438C243.098 145.278 243.823 145.116 244.528 145.25C245.234 145.384 245.921 145.895 246.026 146.606C246.246 148.107 243.925 149.226 244.39 150.671Z" fill="#00160A"/>
<path fill-rule="evenodd" clip-rule="evenodd" d="M104.676 145.493C104.828 145.051 105.652 145.204 105.635 145.672C105.462 146.111 104.645 145.949 104.653 145.478L104.676 145.493Z" fill="#00160A"/>
<path fill-rule="evenodd" clip-rule="evenodd" d="M97.2416 147.528C97.1474 147.056 96.2467 147.235 96.3404 147.707C96.4341 148.179 97.3353 147.999 97.2416 147.528Z" fill="#00160A"/>
<path fill-rule="evenodd" clip-rule="evenodd" d="M98.5196 148.327C98.7354 148.061 99.116 147.941 99.445 148.035C99.5529 148.17 99.587 148.36 99.5325 148.523C99.2883 148.622 99.0441 148.722 98.7993 148.821C98.6962 148.665 98.5925 148.509 98.4888 148.353L98.5196 148.327Z" fill="#00160A"/>
<path fill-rule="evenodd" clip-rule="evenodd" d="M98.6285 147.208C98.4642 147.094 98.3544 146.905 98.335 146.706C98.513 146.336 99.1434 146.332 99.3271 146.7C99.1581 146.942 98.9087 147.127 98.628 147.218L98.6285 147.208Z" fill="#00160A"/>
<path fill-rule="evenodd" clip-rule="evenodd" d="M92.8855 148.427C92.6413 148.746 92.0903 148.333 92.1566 147.937C92.2224 147.541 92.5925 147.283 92.9063 147.033C93.5752 146.499 94.1143 145.803 94.8427 145.353C95.5712 144.903 96.6144 144.774 97.2222 145.377C95.5125 145.924 93.978 147.004 92.8855 148.427Z" fill="#00160A"/>
<path fill-rule="evenodd" clip-rule="evenodd" d="M90.7962 144.101C91.7869 143.174 93.019 142.506 94.3368 142.183C94.6179 142.114 94.9256 142.063 95.1888 142.184C95.4519 142.305 95.6186 142.666 95.442 142.897C93.765 143.194 92.1869 144.025 90.9927 145.239C90.7754 145.46 90.3636 145.193 90.3522 144.884C90.3414 144.574 90.57 144.312 90.7962 144.101Z" fill="#00160A"/>
<path fill-rule="evenodd" clip-rule="evenodd" d="M103.34 145.794C103.31 145.567 103.699 145.691 103.815 145.888C103.657 146.125 103.499 146.361 103.34 146.597C103.011 146.491 102.996 145.927 103.319 145.804L103.34 145.794Z" fill="#00160A"/>
<path fill-rule="evenodd" clip-rule="evenodd" d="M113.139 144.559C111.705 144.117 110.272 143.676 108.838 143.234C108.503 143.131 108.136 143.003 107.965 142.696C109.944 142.249 112.12 142.778 113.672 144.086C113.737 144.141 113.804 144.203 113.826 144.285C113.902 144.579 113.428 144.648 113.139 144.559Z" fill="#00160A"/>
<path fill-rule="evenodd" clip-rule="evenodd" d="M103.644 147.136C103.803 146.945 104.143 146.95 104.296 147.146C104.45 147.343 104.374 147.673 104.149 147.782C103.816 147.749 103.53 147.449 103.513 147.114L103.644 147.136Z" fill="#00160A"/>
<path fill-rule="evenodd" clip-rule="evenodd" d="M112.126 147.666C110.64 147.144 109.153 146.622 107.666 146.1C107.544 146.058 107.415 146.01 107.338 145.907C107.166 145.683 107.365 145.332 107.635 145.248C107.904 145.164 108.194 145.258 108.461 145.352C109.262 145.632 110.063 145.914 110.864 146.194C111.55 146.435 112.395 146.991 112.126 147.666Z" fill="#00160A"/>
<path fill-rule="evenodd" clip-rule="evenodd" d="M306.846 83.105C312.245 85.2909 315.917 90.5539 317.62 96.1231C319.324 101.693 319.34 107.618 319.343 113.442C319.36 156.593 319.377 199.744 319.395 242.895C319.395 249.208 319.346 255.769 316.608 261.457C314.097 266.671 309.345 270.759 303.813 272.462C299.799 273.697 295.525 273.706 291.325 273.706C211.8 273.693 132.273 273.679 52.7478 273.665C48.7855 273.664 44.5493 273.582 41.2879 271.333C36.0653 267.731 35.5488 260.349 35.5468 254.004C35.5312 204.702 35.5156 155.399 35.5 106.096C35.5 102.432 35.5129 98.6777 36.7792 95.2389C38.9648 89.3033 44.6424 85.2005 50.6779 83.309C56.7139 81.4176 63.155 81.4077 69.4801 81.4138C83.7923 81.4304 98.105 81.446 112.418 81.4616C173.513 81.5279 234.609 81.5946 295.704 81.6614C299.474 81.6656 303.352 81.6898 306.846 83.105ZM173.793 272.671C173.759 241.298 173.726 209.925 173.692 178.552C128.568 178.57 83.4435 178.589 38.3195 178.607C37.9311 178.607 37.4964 178.626 37.2286 178.908C36.9771 179.172 36.9621 179.575 36.9618 179.94C36.9416 206.266 36.9214 232.592 36.9011 258.919C36.9011 260.29 36.9011 261.674 37.1906 263.014C38.1508 267.449 42.1939 270.691 46.5275 272.036C50.8611 273.381 55.5012 273.177 60.0352 273.007C77.5916 272.352 95.166 272.41 112.735 272.468C133.088 272.535 153.44 272.603 173.793 272.671ZM174.952 178.689C174.979 209.979 175.005 241.269 175.031 272.559C214.583 272.522 254.136 272.485 293.687 272.448C296.662 272.445 299.668 272.439 302.561 271.747C309.367 270.12 314.996 264.54 317.001 257.835C318.185 253.874 318.185 249.67 318.176 245.536C318.125 223.198 318.074 200.861 318.023 178.524C270.333 178.579 222.642 178.635 174.952 178.689ZM174.938 83.0624C174.979 114.434 175.02 145.806 175.061 177.177C222.317 177.18 269.572 177.183 316.827 177.187C317.221 177.187 317.673 177.16 317.913 176.848C318.085 176.624 318.092 176.319 318.093 176.037C318.099 153.17 318.107 130.303 318.113 107.436C318.113 104.06 318.11 100.642 317.263 97.3741C314.95 88.4447 305.76 81.8327 296.558 82.4774C289.735 82.955 282.888 82.9616 276.048 82.9682C242.345 82.9995 208.641 83.0312 174.938 83.0624ZM173.791 177.056C173.754 145.688 173.716 114.32 173.678 82.9526C134.716 82.9389 95.7544 82.9247 56.7924 82.911C47.6036 82.9076 38.9354 90.1402 37.2927 99.1808C36.8643 101.538 36.8669 103.95 36.8702 106.346C36.9097 129.921 36.9486 153.498 36.9875 177.074C82.5881 177.263 128.19 177.257 173.791 177.056Z" fill="#00160A"/>
<path fill-rule="evenodd" clip-rule="evenodd" d="M102.239 145.797C101.962 146.522 102.314 147.362 102.871 147.903C103.684 148.691 104.936 148.993 106.018 148.663C106.797 148.425 107.742 147.925 108.318 148.5C106.6 150.23 103.338 149.987 101.897 148.02C101.446 149.194 100.415 150.129 99.2026 150.463C97.9904 150.797 96.6258 150.521 95.6379 149.743C96.364 149.142 97.4404 149.611 98.3837 149.616C99.3811 149.622 100.356 149.012 100.787 148.113C101.218 147.213 101.082 146.071 100.453 145.297C99.8108 144.508 99.3138 143.602 98.9939 142.636C98.92 142.412 98.8552 142.169 98.9267 141.945C99.0734 141.485 99.6636 141.376 100.145 141.352C101.132 141.302 102.121 141.276 103.11 141.272C103.585 141.27 104.16 141.334 104.36 141.765C104.491 142.049 104.396 142.382 104.281 142.674C103.98 143.431 103.548 144.137 103.01 144.749C102.721 145.076 102.395 145.39 102.239 145.797Z" fill="#00160A"/>
<path fill-rule="evenodd" clip-rule="evenodd" d="M110.692 126.494C109.231 126.222 107.691 126.386 106.32 126.959C106.129 127.038 105.909 127.126 105.725 127.032C105.501 126.917 105.478 126.581 105.617 126.371C105.757 126.161 106.002 126.05 106.237 125.96C108.663 125.03 111.492 125.22 113.771 126.466C112.903 127.071 111.732 126.688 110.692 126.494Z" fill="#00160A"/>
<path fill-rule="evenodd" clip-rule="evenodd" d="M109.976 133.881C109.853 134.122 109.704 134.371 109.463 134.493C109.105 134.676 108.64 134.505 108.395 134.186C108.151 133.867 108.092 133.44 108.122 133.04C108.183 132.221 108.891 131.303 109.663 131.58C110.492 131.877 110.376 133.098 109.976 133.881Z" fill="#00160A"/>
<path fill-rule="evenodd" clip-rule="evenodd" d="M95.7918 132.482C95.8789 133.178 95.5712 133.957 94.935 134.252C94.2989 134.546 93.3939 134.147 93.3257 133.449C93.302 133.206 93.373 132.965 93.4474 132.733C93.6637 132.055 94.1086 131.258 94.8177 131.318C95.3634 131.365 95.7241 131.938 95.7918 132.482Z" fill="#00160A"/>
<path fill-rule="evenodd" clip-rule="evenodd" d="M89.5949 127.494C89.4818 127.131 89.922 126.853 90.2855 126.739C92.4278 126.069 94.7438 125.963 96.9382 126.434C97.261 126.504 97.6165 126.611 97.7774 126.899C97.9383 127.187 97.6917 127.658 97.3784 127.555C95.2228 126.847 92.8292 126.887 90.6982 127.666C90.3044 127.81 89.7199 127.895 89.5949 127.494Z" fill="#00160A"/>
<path fill-rule="evenodd" clip-rule="evenodd" d="M121.223 109.183C121.013 112.525 120.802 115.877 121 119.219C121.153 121.821 121.554 124.408 121.591 127.014C121.696 134.546 118.744 141.841 114.727 148.214C124.371 154.7 131.641 164.637 134.904 175.791C133.514 174.924 132.916 173.243 132.332 171.712C129.109 163.256 123.436 155.751 116.182 150.343C115.141 149.568 113.373 148.981 112.798 150.144C111.498 152.772 109.577 155.09 107.236 156.855C106.386 157.495 105.435 158.128 104.772 158.932C104.778 158.997 104.78 159.064 104.78 159.13C104.78 160.49 103.678 161.592 102.319 161.592C101.395 161.592 100.59 161.083 100.169 160.33C94.0414 157.636 89.0553 152.406 86.7104 146.13C82.2298 149.237 79.6468 154.524 78.6562 159.886C77.6659 165.247 78.0867 170.757 78.5113 176.192C78.064 176.496 77.6451 175.763 77.594 175.225C77.0771 169.783 76.787 164.241 77.9163 158.893C79.0452 153.544 81.7437 148.345 86.202 145.181C82.0646 136.173 83.6735 125.122 78.6263 116.591C78.3267 116.085 78.0744 115.295 78.5989 115.028C78.7934 114.929 79.0258 114.959 79.2412 114.996C82.7604 115.593 86.114 117.141 88.8517 119.431C89.558 120.023 90.6144 119.591 91.4399 119.182C97.7817 116.042 105.355 115.479 112.091 117.648C113.783 114.396 116.277 111.565 119.288 109.474C119.869 109.071 120.7 108.707 121.223 109.183ZM99.4691 153.137C101.639 153.327 103.851 153.515 105.978 153.042C110.843 151.962 114.334 147.658 116.563 143.2C119.116 138.096 120.546 132.434 120.723 126.729C119.149 127.995 117.576 129.261 116.002 130.527C115.07 131.276 114.052 132.199 114.07 133.395C114.095 135.095 113.041 136.765 111.496 137.474C109.949 138.183 107.997 137.891 106.725 136.762C105.29 135.487 104.475 133.18 102.563 133.012C100.308 132.814 99.2334 135.705 97.4191 137.058C95.1069 138.783 91.3751 137.488 90.2211 134.845C90.0015 134.342 90.08 133.449 89.5769 133.143C87.9732 132.167 86.202 132.131 84.1118 132.201C84.4843 136.755 85.5867 141.248 87.3641 145.457C88.1517 147.322 89.1116 149.184 90.6575 150.492C93.0389 152.505 96.3621 152.864 99.4691 153.137ZM112.534 118.681C111.833 120.019 110.656 121.695 109.244 121.154C110.151 120.378 110.934 119.458 111.556 118.438C104.533 116.436 96.7531 117.235 90.2831 120.621C90.8402 121.295 91.5251 121.863 92.2905 122.285C91.4806 123.057 90.231 122.111 89.4647 121.296C86.8562 118.523 83.291 116.668 79.5233 116.123C81.0692 118.605 82.4987 123.52 83.8112 130.868C85.9384 131.35 87.3683 131.598 88.101 131.613C88.9436 131.631 89.9707 131.544 90.339 130.785C91.3126 128.782 93.7503 127.614 95.9215 128.11C98.0931 128.605 99.782 130.716 99.7895 132.943C101.198 132.021 103.082 131.874 104.616 132.568C104.776 130.673 106.212 128.951 108.047 128.453C109.883 127.955 111.992 128.716 113.088 130.271C113.564 130.947 114.619 130.45 115.251 129.916C116.561 128.81 117.871 127.703 119.181 126.597C119.919 125.974 120.731 125.165 120.576 124.211C119.81 119.488 119.714 114.657 120.293 109.908C117.051 112.151 114.364 115.189 112.534 118.681ZM109.186 152.686C106.034 154.827 101.873 154.454 98.0893 153.996C96.0223 153.745 93.8838 153.471 92.1069 152.386C91.7419 152.163 91.2634 151.908 90.9259 152.171C93.0441 154.815 95.787 156.954 98.8665 158.365C99.3243 158.575 99.9988 158.698 100.216 158.244C100.715 157.199 102.228 156.812 103.167 157.489C103.931 158.04 104.987 157.511 105.742 156.948C107.437 155.684 108.985 154.221 110.342 152.6C110.143 152.206 109.551 152.438 109.186 152.686ZM91.3084 134.94C92.2588 136.544 94.4271 137.301 96.169 136.635C97.9104 135.969 99.0223 133.96 98.6606 132.131C98.2995 130.302 96.507 128.866 94.643 128.914C92.779 128.961 91.0613 130.485 90.7924 132.33C90.6623 133.224 90.8473 134.163 91.3084 134.94ZM105.788 132.167C105.564 133.492 106.083 134.889 107.023 135.849C107.713 136.554 108.665 137.053 109.652 137.016C111.416 136.951 112.698 135.264 113.242 133.586C113.384 133.148 113.495 132.682 113.409 132.23C113.298 131.643 112.871 131.169 112.426 130.771C111.309 129.77 109.801 129.013 108.34 129.349C107.031 129.65 106.012 130.842 105.788 132.167Z" fill="#00160A"/>
</g>
<defs>
<clipPath id="clip0_154_31003">
<rect width="355" height="355" fill="white"/>
</clipPath>
</defs>
</svg>
