<svg width="24" height="24" viewBox="0 0 24 24" fill="none" xmlns="http://www.w3.org/2000/svg">
<path d="M4 15L20 15" stroke="#6D9773" stroke-width="2" stroke-linecap="round" stroke-linejoin="round"/>
<path d="M4 9L20 9" stroke="#6D9773" stroke-width="2" stroke-linecap="round" stroke-linejoin="round"/>
<circle cx="12" cy="12" r="9" stroke="#6D9773" stroke-width="2" stroke-linecap="round" stroke-linejoin="round"/>
<path d="M11.9996 3.18476L12.714 2.48496C12.5259 2.29296 12.2684 2.18476 11.9996 2.18476C11.7308 2.18477 11.4734 2.29298 11.2853 2.48499L11.9996 3.18476ZM15.6002 12.0002L16.6002 12.0002V12.0002H15.6002ZM11.9996 20.8137L11.2852 21.5134C11.4733 21.7054 11.7308 21.8137 11.9996 21.8137C12.2684 21.8137 12.5259 21.7054 12.714 21.5134L11.9996 20.8137ZM8.40002 12.0002H7.40002V12.0002L8.40002 12.0002ZM11.9996 3.18476L11.2853 3.88456C13.3362 5.97805 14.6002 8.84027 14.6002 12.0002H15.6002H16.6002C16.6002 8.29512 15.1155 4.93638 12.714 2.48496L11.9996 3.18476ZM15.6002 12.0002L14.6002 12.0002C14.6002 15.1594 13.3358 18.0204 11.2852 20.1139L11.9996 20.8137L12.714 21.5134C15.1148 19.0623 16.6002 15.705 16.6002 12.0002L15.6002 12.0002ZM11.9996 20.8137L12.7141 20.114C10.6638 18.0205 9.40007 15.1594 9.40002 12.0002L8.40002 12.0002L7.40002 12.0002C7.40008 15.7046 8.88454 19.0622 11.2852 21.5134L11.9996 20.8137ZM8.40002 12.0002H9.40002C9.40002 8.8403 10.6635 5.97787 12.714 3.88453L11.9996 3.18476L11.2853 2.48499C8.88389 4.93649 7.40002 8.29549 7.40002 12.0002H8.40002Z" fill="#6D9773"/>
</svg>
