<svg width="25" height="24" viewBox="0 0 25 24" fill="none" xmlns="http://www.w3.org/2000/svg">
<path d="M4.07764 15L20.0776 15" stroke="#6D9773" stroke-width="2" stroke-linecap="round" stroke-linejoin="round"/>
<path d="M4.07764 9L20.0776 9" stroke="#6D9773" stroke-width="2" stroke-linecap="round" stroke-linejoin="round"/>
<circle cx="12.0776" cy="12" r="9" stroke="#6D9773" stroke-width="2" stroke-linecap="round" stroke-linejoin="round"/>
<path d="M12.0771 3.18475L12.7915 2.48496C12.6034 2.29295 12.3459 2.18475 12.0771 2.18475C11.8083 2.18476 11.5509 2.29297 11.3628 2.48499L12.0771 3.18475ZM15.6777 12.0002L16.6777 12.0002V12.0002H15.6777ZM12.0771 20.8137L11.3627 21.5134C11.5508 21.7054 11.8083 21.8137 12.0771 21.8137C12.3459 21.8137 12.6034 21.7054 12.7916 21.5134L12.0771 20.8137ZM8.47754 12.0002H7.47754V12.0002L8.47754 12.0002ZM12.0771 3.18475L11.3628 3.88455C13.4137 5.97804 14.6777 8.84026 14.6777 12.0002H15.6777H16.6777C16.6777 8.29512 15.193 4.93637 12.7915 2.48496L12.0771 3.18475ZM15.6777 12.0002L14.6777 12.0002C14.6777 15.1594 13.4133 18.0204 11.3627 20.1139L12.0771 20.8137L12.7916 21.5134C15.1923 19.0623 16.6777 15.705 16.6777 12.0002L15.6777 12.0002ZM12.0771 20.8137L12.7916 20.114C10.7413 18.0205 9.47759 15.1594 9.47754 12.0002L8.47754 12.0002L7.47754 12.0002C7.47759 15.7046 8.96206 19.0622 11.3627 21.5134L12.0771 20.8137ZM8.47754 12.0002H9.47754C9.47754 8.84029 10.741 5.97786 12.7915 3.88452L12.0771 3.18475L11.3628 2.48499C8.9614 4.93648 7.47754 8.29548 7.47754 12.0002H8.47754Z" fill="#6D9773"/>
</svg>
