<svg width="41" height="40" viewBox="0 0 41 40" fill="none" xmlns="http://www.w3.org/2000/svg">
<path d="M10.9542 26.1592C10.9018 31.4575 15.155 35.6785 20.4528 35.5857C25.7506 35.493 30.0888 31.1217 30.1412 25.8233C30.1908 20.8114 26.5076 16.8668 21.5729 16.4521L21.6975 3.85044L25.7381 7.86043L27.1121 6.47597L20.8033 0.215042L14.3685 6.69905L15.7155 8.03587L19.8369 3.88302L19.7122 16.4847C14.8388 16.9997 11.0038 21.1474 10.9542 26.1592ZM28.2085 25.7855C28.1674 29.9379 24.6969 33.4349 20.4726 33.5805C16.3207 33.6532 12.9182 30.2764 12.8883 26.0537C12.9294 21.9014 16.4 18.4043 20.6242 18.2587C24.847 18.2564 28.2496 21.6332 28.2085 25.7855Z" fill="#6D9773"/>
</svg>
