<svg width="45" height="28" viewBox="0 0 45 28" fill="none" xmlns="http://www.w3.org/2000/svg">
<path d="M14.0625 28C21.829 28 28.125 21.732 28.125 14C28.125 6.26801 21.829 0 14.0625 0C6.296 0 0 6.26801 0 14C0 21.732 6.296 28 14.0625 28Z" fill="#F93232"/>
<path d="M30.9375 0C27.7791 0 24.8738 1.05 22.5281 2.8H22.5V2.8196C21.9431 3.2368 21.4312 3.7072 20.9433 4.2H24.0567C24.4898 4.6382 24.8892 5.1072 25.2591 5.6H19.7297C19.3894 6.0466 19.0772 6.5128 18.7917 7H26.1942C26.4586 7.4536 26.7075 7.9156 26.9227 8.4H18.0759C17.8748 8.855 17.6977 9.3212 17.5458 9.8H27.4514C27.5977 10.2564 27.713 10.7254 27.8142 11.2H17.1787C17.0845 11.6592 17.0058 12.124 16.958 12.6H28.0406C28.0955 13.0592 28.125 13.5254 28.125 14H16.875C16.875 14.4746 16.913 14.938 16.9594 15.4H28.0434C27.99 15.8746 27.9127 16.3408 27.8156 16.8H17.1802C17.2772 17.2774 17.4023 17.7422 17.5472 18.2H27.4528C27.3009 18.6788 27.1238 19.145 26.9227 19.6H18.0759C18.2883 20.0816 18.5273 20.5492 18.7917 21H26.1942C25.9102 21.4872 25.5938 21.9534 25.2534 22.4H19.7297C20.1037 22.8928 20.5073 23.3618 20.9419 23.8H24.0567C23.5673 24.2942 23.0569 24.7632 22.5 25.1804C24.8513 26.943 27.7664 28 30.9375 28C38.7042 28 45 21.7308 45 14C45 6.2692 38.7042 0 30.9375 0Z" fill="#FED049"/>
</svg>
