<svg width="52" height="38" viewBox="0 0 52 38" fill="none" xmlns="http://www.w3.org/2000/svg">
<rect y="5" width="52" height="27" rx="5" fill="white"/>
<path d="M39.782 19.0915C39.782 22.9888 36.3796 26.1482 32.1826 26.1482C27.9855 26.1482 24.5831 22.9888 24.5831 19.0915C24.5831 15.1942 27.9855 12.0348 32.1826 12.0348C36.3796 12.0348 39.782 15.1942 39.782 19.0915Z" fill="#F79F1A"/>
<path d="M30.4068 19.0915C30.4068 22.9888 27.0045 26.1482 22.8074 26.1482C18.6104 26.1482 15.208 22.9888 15.208 19.0915C15.208 15.1942 18.6104 12.0348 22.8074 12.0348C27.0045 12.0348 30.4068 15.1942 30.4068 19.0915Z" fill="#EA001B"/>
<path d="M27.4951 13.5364C25.7219 14.8282 24.5837 16.8357 24.5837 19.0909C24.5837 21.3459 25.7219 23.3549 27.4951 24.6468C29.2682 23.3549 30.4064 21.3459 30.4064 19.0909C30.4064 16.8357 29.2682 14.8282 27.4951 13.5364Z" fill="#FF5F01"/>
</svg>
