<svg width="24" height="24" viewBox="0 0 24 24" fill="none" xmlns="http://www.w3.org/2000/svg">
<mask id="mask0_1096_16639" style="mask-type:luminance" maskUnits="userSpaceOnUse" x="4" y="0" width="16" height="24">
<path d="M4.96875 0.191895H19.0312V23.808H4.96875V0.191895Z" fill="white"/>
</mask>
<g mask="url(#mask0_1096_16639)">
<path d="M18.9975 21.3498L17.5215 8.06586C17.4615 7.5244 17.2036 7.02396 16.7975 6.66054C16.3916 6.29726 15.8659 6.0964 15.321 6.0964H14.5829V4.6204H15.321C16.0058 4.61967 16.6624 4.34721 17.1465 3.86309C17.6308 3.37878 17.9031 2.72215 17.9038 2.03736V0.930308C17.9038 0.73475 17.8262 0.546885 17.6878 0.408449C17.5493 0.270205 17.3616 0.192383 17.1659 0.192383H10.1548C9.95907 0.192383 9.77138 0.270205 9.63295 0.408449C9.4947 0.546875 9.41688 0.734741 9.41688 0.930308V6.0964H8.67879C8.13405 6.0964 7.60816 6.29727 7.20222 6.66054C6.79609 7.02401 6.53848 7.52445 6.47824 8.06586L5.00224 21.3498C4.93266 21.9756 5.13298 22.6017 5.55302 23.0708C5.97306 23.5401 6.57312 23.8081 7.20298 23.8081H16.7969C17.4266 23.8081 18.0266 23.5401 18.4466 23.0708C18.8667 22.6017 19.067 21.9756 18.9974 21.3498H18.9975ZM7.64954 10.8934H16.3505L17.2937 19.3801H6.70647L7.64954 10.8934ZM10.8931 1.66835H16.4281V2.03731C16.4281 2.33101 16.3116 2.61247 16.104 2.82008C15.8963 3.02772 15.6147 3.14436 15.3212 3.14436H13.8452C13.6495 3.14436 13.4618 3.22218 13.3233 3.36043C13.1849 3.49885 13.1071 3.68653 13.1071 3.88228V6.09619L10.8932 6.09637L10.8931 1.66835ZM8.67897 7.57226H15.3212C15.5026 7.57226 15.6778 7.63928 15.8132 7.76031C15.9485 7.88134 16.0343 8.04815 16.0545 8.22851L16.1869 9.41721H7.81312L7.9455 8.22851C7.96565 8.04815 8.05152 7.88135 8.18683 7.76031C8.32215 7.63928 8.49738 7.57226 8.67883 7.57226H8.67897ZM17.3466 22.0866C17.2067 22.243 17.0068 22.3324 16.7969 22.3324H7.20301C6.99299 22.3324 6.79304 22.243 6.65298 22.0865C6.51309 21.9301 6.44625 21.7213 6.46951 21.5128L6.54238 20.8564H17.4577L17.5306 21.5128C17.5538 21.7215 17.487 21.9301 17.3469 22.0866L17.3466 22.0866Z" fill="#6D9773"/>
</g>
<path d="M13.335 13.5491C13.0873 13.2088 12.8154 12.8866 12.5218 12.585C12.3834 12.4468 12.1957 12.3691 12.0002 12.3691C11.8044 12.3691 11.6167 12.4468 11.4785 12.585C11.1848 12.8866 10.9131 13.2089 10.6651 13.5491C10.0817 14.3522 9.78601 15.0712 9.78601 15.6897C9.78601 16.4808 10.2081 17.2117 10.8931 17.607C11.578 18.0025 12.422 18.0025 13.107 17.607C13.7919 17.2117 14.214 16.4808 14.214 15.6897C14.214 15.0712 13.9183 14.3522 13.3349 13.5491H13.335ZM12.0002 16.4276C11.8044 16.4276 11.6167 16.35 11.4783 16.2116C11.3399 16.0732 11.262 15.8855 11.262 15.6897C11.262 15.3114 11.6116 14.7257 11.9999 14.2261C12.3883 14.7256 12.7379 15.3114 12.7379 15.6897H12.738C12.738 15.8855 12.6602 16.0731 12.522 16.2116C12.3835 16.35 12.1959 16.4276 12.0002 16.4276Z" fill="#6D9773"/>
</svg>
