<svg width="356" height="356" viewBox="0 0 356 356" fill="none" xmlns="http://www.w3.org/2000/svg">
<path d="M352.638 188.276H349.325V187.679C349.322 186.048 348.707 184.485 347.613 183.332C346.518 182.179 345.035 181.531 343.488 181.528H341.244C339.695 181.528 338.209 182.176 337.113 183.329C336.018 184.482 335.401 186.047 335.399 187.679V188.276H332.093C331.651 188.275 331.214 188.366 330.805 188.544C330.397 188.721 330.026 188.982 329.713 189.311C329.401 189.64 329.154 190.031 328.985 190.462C328.816 190.892 328.73 191.353 328.731 191.818V207.956C328.731 208.896 329.085 209.797 329.716 210.461C330.346 211.125 331.201 211.498 332.093 211.498H352.638C353.529 211.496 354.383 211.122 355.013 210.458C355.643 209.795 355.998 208.895 356 207.956V191.818C356 190.879 355.646 189.978 355.015 189.314C354.385 188.649 353.53 188.276 352.638 188.276ZM336.996 187.679C336.998 186.493 337.446 185.357 338.243 184.519C339.039 183.682 340.118 183.211 341.244 183.211H343.488C344.612 183.211 345.691 183.682 346.486 184.52C347.281 185.357 347.728 186.494 347.728 187.679V188.276H336.996V187.679Z" fill="#263238"/>
<path d="M348.486 198.238H344.254V193.787H340.469V198.238H336.237V202.235H340.469V206.686H344.254V202.235H348.486V198.238Z" fill="white"/>
<path d="M346.091 92.1067C345.433 92.1067 344.781 91.97 344.173 91.7043C343.565 91.4387 343.013 91.0493 342.548 90.5586C342.083 90.0678 341.714 89.4852 341.463 88.8442C341.212 88.2032 341.083 87.5163 341.084 86.8228V72.5866C341.083 71.8931 341.212 71.2062 341.463 70.5652C341.714 69.9242 342.083 69.3416 342.548 68.8508C343.013 68.3601 343.565 67.9707 344.173 67.7051C344.781 67.4395 345.433 67.3027 346.091 67.3027C346.749 67.3027 347.401 67.4395 348.009 67.7051C348.616 67.9707 349.169 68.3601 349.634 68.8508C350.099 69.3416 350.467 69.9242 350.719 70.5652C350.97 71.2062 351.098 71.8931 351.097 72.5866V86.7976C351.102 87.4932 350.975 88.1828 350.725 88.8267C350.476 89.4707 350.108 90.0562 349.642 90.5497C349.177 91.0431 348.624 91.4347 348.014 91.7019C347.405 91.9691 346.751 92.1067 346.091 92.1067Z" fill="white" stroke="#263238" stroke-linecap="round" stroke-linejoin="round"/>
<path d="M346.091 92.1064C345.433 92.1065 344.781 91.9697 344.173 91.7041C343.565 91.4384 343.013 91.0491 342.548 90.5583C342.083 90.0676 341.714 89.485 341.463 88.844C341.212 88.203 341.083 87.5161 341.084 86.8226V79.7129H351.097V86.8226C351.098 87.5161 350.97 88.203 350.719 88.844C350.467 89.485 350.099 90.0676 349.634 90.5583C349.169 91.0491 348.616 91.4384 348.009 91.7041C347.401 91.9697 346.749 92.1065 346.091 92.1064Z" fill="#263238" stroke="#263238" stroke-linecap="round" stroke-linejoin="round"/>
<path d="M320.906 71.1392C320.494 70.5975 320.188 69.9753 320.005 69.3085C319.823 68.6417 319.767 67.9435 319.841 67.2538C319.915 66.5642 320.118 65.8968 320.438 65.2901C320.758 64.6833 321.188 64.1492 321.704 63.7183L332.221 54.8164C333.262 53.9442 334.589 53.5429 335.911 53.7006C337.233 53.8584 338.442 54.5623 339.271 55.6578C340.099 56.7538 340.479 58.151 340.33 59.5424C340.18 60.9339 339.512 62.2058 338.473 63.0788L327.949 71.9722C327.435 72.4054 326.844 72.7275 326.212 72.9201C325.58 73.1127 324.918 73.1721 324.263 73.0947C323.609 73.0173 322.976 72.8048 322.4 72.4692C321.824 72.1337 321.316 71.6818 320.906 71.1392Z" fill="white" stroke="#263238" stroke-linecap="round" stroke-linejoin="round"/>
<path d="M320.906 71.139C320.494 70.5972 320.188 69.9751 320.005 69.3083C319.823 68.6415 319.767 67.9432 319.841 67.2536C319.915 66.564 320.118 65.8966 320.438 65.2898C320.758 64.6831 321.188 64.1489 321.704 63.718L326.967 59.2671L333.235 67.5042L327.973 71.9467C327.459 72.3852 326.869 72.7123 326.235 72.9092C325.601 73.106 324.937 73.1687 324.28 73.0936C323.623 73.0185 322.986 72.8072 322.407 72.4717C321.828 72.1362 321.318 71.6833 320.906 71.139Z" fill="#263238" stroke="#263238" stroke-linecap="round" stroke-linejoin="round"/>
<path d="M270.832 32.4022C270.207 32.4025 269.599 32.6084 269.091 32.9912L257.457 23.4751C258.027 22.3632 258.295 21.1068 258.23 19.8447C258.165 18.5827 257.77 17.364 257.09 16.3234L264.196 6.74846C264.798 6.99283 265.457 7.0279 266.079 6.84854C266.701 6.66918 267.252 6.28481 267.651 5.7517C268.051 5.2186 268.278 4.56476 268.299 3.88592C268.32 3.20709 268.135 2.5389 267.769 1.97921C267.404 1.41951 266.879 0.997703 266.269 0.775537C265.66 0.553371 265 0.542519 264.384 0.744571C263.769 0.946622 263.231 1.35096 262.849 1.89839C262.468 2.44582 262.263 3.10758 262.264 3.78679C262.26 4.44138 262.453 5.08041 262.815 5.61259L255.9 14.9435C254.972 14.1208 253.846 13.5865 252.647 13.4007C251.447 13.215 250.222 13.385 249.11 13.8918C247.997 14.3985 247.04 15.222 246.347 16.2697C245.653 17.3175 245.251 18.5481 245.184 19.8235H237.103C237.015 19.0677 236.672 18.3704 236.137 17.8582C235.602 17.3461 234.911 17.0531 234.188 17.0327C233.466 17.0122 232.761 17.2655 232.2 17.7466C231.64 18.2277 231.262 18.9046 231.136 19.6543C231.009 20.404 231.142 21.1768 231.51 21.8321C231.878 22.4874 232.457 22.9817 233.142 23.2253C233.827 23.4689 234.572 23.4455 235.241 23.1593C235.911 22.8732 236.461 22.3434 236.792 21.6662H245.336C245.585 22.8895 246.147 24.0179 246.96 24.93C247.774 25.8421 248.807 26.5033 249.95 26.8425C251.094 27.1817 252.303 27.1861 253.448 26.8551C254.594 26.5242 255.632 25.8705 256.451 24.9644L268.021 34.4468C267.793 35.0792 267.762 35.7721 267.934 36.424C268.107 37.0759 268.472 37.6528 268.977 38.0704C269.483 38.4879 270.101 38.7242 270.743 38.7448C271.385 38.7653 272.017 38.569 272.545 38.1846C273.073 37.8002 273.471 37.2478 273.681 36.608C273.89 35.9683 273.9 35.2748 273.708 34.6289C273.517 33.983 273.135 33.4185 272.617 33.0179C272.099 32.6172 271.474 32.4015 270.832 32.4022Z" fill="#263238"/>
<path d="M34.4989 92.2073C33.5317 92.2051 32.6048 91.7993 31.9209 91.0786C31.237 90.358 30.8518 89.3813 30.8497 88.3622V56.3896H38.148V88.3622C38.148 89.382 37.7636 90.36 37.0792 91.0811C36.3949 91.8022 35.4667 92.2073 34.4989 92.2073Z" fill="white" stroke="#263238" stroke-linecap="round" stroke-linejoin="round"/>
<path d="M34.4989 92.2074C33.5317 92.2052 32.6048 91.7994 31.9209 91.0788C31.237 90.3582 30.8518 89.3814 30.8497 88.3623V68.6992H38.148V88.3623C38.148 89.3821 37.7636 90.3601 37.0792 91.0812C36.3949 91.8023 35.4667 92.2074 34.4989 92.2074Z" fill="#263238" stroke="#263238" stroke-linecap="round" stroke-linejoin="round"/>
<path d="M39.1941 54.522H29.8116V57.3238H39.1941V54.522Z" fill="white" stroke="#263238" stroke-linecap="round" stroke-linejoin="round"/>
<path d="M23.4396 92.2073C22.4724 92.2051 21.5454 91.7993 20.8615 91.0786C20.1777 90.358 19.7925 89.3813 19.7904 88.3622V56.3896H27.0887V88.3622C27.0887 89.382 26.7043 90.36 26.0199 91.0811C25.3356 91.8022 24.4074 92.2073 23.4396 92.2073Z" fill="white" stroke="#263238" stroke-linecap="round" stroke-linejoin="round"/>
<path d="M23.4396 92.2074C22.4724 92.2052 21.5454 91.7994 20.8615 91.0788C20.1777 90.3582 19.7925 89.3814 19.7904 88.3623V68.6992H27.0887V88.3623C27.0887 89.3821 26.7043 90.3601 26.0199 91.0812C25.3356 91.8023 24.4074 92.2074 23.4396 92.2074Z" fill="#263238" stroke="#263238" stroke-linecap="round" stroke-linejoin="round"/>
<path d="M28.1347 54.522H18.7523V57.3238H28.1347V54.522Z" fill="white" stroke="#263238" stroke-linecap="round" stroke-linejoin="round"/>
<path d="M128.722 23.0039L131.629 15.6502C131.678 15.5318 131.76 15.4316 131.864 15.3626C131.968 15.2936 132.089 15.259 132.212 15.2632C132.335 15.2696 132.453 15.3159 132.55 15.3957C132.647 15.4755 132.719 15.585 132.755 15.7091L136.276 27.9428L138.959 18.9316C138.996 18.8048 139.07 18.6935 139.17 18.6135C139.27 18.5334 139.392 18.4887 139.518 18.4857C139.642 18.4892 139.763 18.5309 139.865 18.6057C139.967 18.6804 140.046 18.7849 140.093 18.9064L141.586 23.433H149.659C151.311 21.6137 152.271 19.2183 152.358 16.702C152.373 14.3515 151.564 12.0779 150.085 10.3179C148.607 8.55784 146.563 7.43545 144.347 7.16626C142.131 6.89707 139.899 7.50006 138.079 8.85943C136.259 10.2188 134.98 12.2387 134.487 14.5312C133.98 12.2548 132.696 10.2542 130.881 8.91001C129.065 7.56581 126.843 6.97174 124.639 7.2408C122.434 7.50985 120.401 8.62326 118.925 10.3693C117.448 12.1152 116.633 14.372 116.633 16.7104C116.722 19.0408 117.551 21.2722 118.988 23.046L128.722 23.0039Z" fill="#263238"/>
<path d="M141.163 24.6948C141.039 24.6953 140.917 24.6551 140.816 24.5797C140.714 24.5043 140.637 24.3976 140.596 24.2741L139.558 21.1274L136.835 30.2732C136.796 30.402 136.72 30.5145 136.616 30.5947C136.513 30.6748 136.388 30.7183 136.26 30.7191C136.131 30.7187 136.007 30.6741 135.904 30.5921C135.802 30.5101 135.728 30.3952 135.693 30.2648L132.092 17.7534L129.696 23.8787C129.651 23.9931 129.574 24.0909 129.476 24.1597C129.378 24.2286 129.263 24.2654 129.145 24.2657H119.955C121.927 26.5879 124.386 28.6409 126.223 30.5508C129.002 33.4452 131.725 36.4405 134.559 39.2339C138.192 35.4561 141.85 31.6615 145.451 27.8837C146.449 26.8319 147.535 25.7886 148.541 24.6948H141.163Z" fill="#263238"/>
<path d="M6.46231 212.755L10.3777 214.186L14.6143 201.316L10.6989 199.885L6.46231 212.755Z" fill="white" stroke="#263238" stroke-miterlimit="10"/>
<path d="M4.606 214.798L10.6488 217.007L11.4469 214.582L5.40413 212.374L4.606 214.798Z" fill="white" stroke="#263238" stroke-miterlimit="10"/>
<path d="M6.38138 203.197L16.0604 206.735L23.7355 183.42L14.0564 179.882L6.38138 203.197Z" fill="white" stroke="#263238" stroke-miterlimit="10"/>
<path d="M11.0877 193.224L18.2319 195.835L22.4685 182.965L15.3243 180.354L11.0877 193.224Z" fill="#263238" stroke="#263238" stroke-miterlimit="10"/>
<path d="M9.82401 202.553L13.7394 203.984L17.976 191.114L14.0606 189.683L9.82401 202.553Z" fill="#263238" stroke="#263238" stroke-miterlimit="10"/>
<path d="M5.69808 202.953L16.7577 206.995L17.7181 204.078L6.65844 200.036L5.69808 202.953Z" fill="white" stroke="#263238" stroke-miterlimit="10"/>
<path d="M16.4165 179.396L22.1802 181.503L23.4598 177.616L17.6961 175.509L16.4165 179.396Z" fill="white" stroke="#263238" stroke-miterlimit="10"/>
<path d="M13.1312 180.365L24.1908 184.407L25.1512 181.489L14.0915 177.447L13.1312 180.365Z" fill="white" stroke="#263238" stroke-miterlimit="10"/>
<path d="M20.6367 176.034L25.268 161.95" stroke="#263238" stroke-miterlimit="10"/>
<path d="M278.138 351.084C301.216 351.084 319.924 346.639 319.924 341.155C319.924 335.672 301.216 331.227 278.138 331.227C255.06 331.227 236.352 335.672 236.352 341.155C236.352 346.639 255.06 351.084 278.138 351.084Z" fill="#263238" stroke="#263238" stroke-linecap="round" stroke-linejoin="round"/>
<path d="M245.918 116.742C245.918 116.742 240.265 120.385 240.329 121.984C240.393 123.582 238.221 152.736 237.973 156.379C237.726 160.022 234.436 167.544 234.18 170.96C233.925 174.376 234.739 177.801 235.69 179.374C236.64 180.948 240.129 185.979 240.129 185.979L249.512 170.708C249.742 167.373 249.79 164.028 249.655 160.687C249.512 153.409 245.918 116.742 245.918 116.742Z" fill="white" stroke="#263238" stroke-linecap="round" stroke-linejoin="round"/>
<path d="M282.019 44.5007C282.019 44.5007 272.038 43.8276 266.352 51.1224C260.667 58.4172 261.889 69.5739 261.849 72.9983C261.809 76.4228 252.155 86.4605 253.225 90.5496C254.295 94.6387 257.137 95.1015 256.227 98.5175C255.317 101.933 249.376 103.986 250.238 108.32C251.101 112.653 254.231 118.795 254.231 118.795L311.723 119.207C311.723 119.207 313.775 112.829 311.587 108.042C309.399 103.254 306.293 101.673 306.796 99.3925C307.299 97.1124 310.078 91.6434 309.008 87.5458C307.938 83.4483 304.217 82.3124 303.826 75.0176C303.435 67.7229 302.413 55.6659 296.919 49.7762C291.425 43.8865 282.019 44.5007 282.019 44.5007Z" fill="#263238" stroke="#263238" stroke-linecap="round" stroke-linejoin="round"/>
<path d="M264.34 325.615C262.574 329.2 260.431 332.564 257.952 335.644C254.279 339.977 250.717 342.258 250.837 344.538C250.957 346.818 258.974 347.264 263.214 345.665C267.454 344.067 270.536 340.878 271.391 340.617C272.245 340.356 274.633 340.617 274.688 337.42C274.744 334.222 274.281 325.119 274.281 325.119L264.34 325.615Z" fill="white" stroke="#263238" stroke-linecap="round" stroke-linejoin="round"/>
<path d="M263.198 345.665C267.446 344.067 270.52 340.878 271.375 340.617C272.229 340.356 274.617 340.617 274.673 337.42C274.673 335.737 274.585 332.371 274.473 329.62C273.845 330.862 272.915 331.905 271.778 332.644C270.642 333.383 269.34 333.792 268.005 333.827C268.005 333.827 267.925 332.228 265.61 329.502C264.116 327.719 262.607 329.124 261.729 330.344L261.018 331.471L260.962 331.581C260.041 333.013 259.032 334.382 257.944 335.678C254.271 340.011 250.71 342.291 250.829 344.572C250.949 346.852 258.958 347.264 263.198 345.665Z" fill="white" stroke="#263238" stroke-linecap="round" stroke-linejoin="round"/>
<path d="M293.924 325.598C296.07 329.196 298.558 332.554 301.351 335.619C305.463 339.944 309.256 342.216 309.336 344.496C309.415 346.776 301.478 347.23 297.071 345.64C292.663 344.05 289.261 340.861 288.391 340.634C287.52 340.407 285.141 340.634 284.766 337.453C284.39 334.273 283.919 325.152 283.919 325.152L293.924 325.598Z" fill="white" stroke="#263238" stroke-linecap="round" stroke-linejoin="round"/>
<path d="M297.102 345.64C292.703 344.05 289.293 340.861 288.423 340.634C287.552 340.406 285.173 340.634 284.798 337.453C284.598 335.77 284.374 332.405 284.207 329.645C284.945 330.879 285.96 331.903 287.161 332.628C288.362 333.352 289.714 333.755 291.098 333.801C291.098 333.801 291.018 332.203 293.038 329.468C294.356 327.693 296.009 329.09 297.031 330.31C297.294 330.68 297.566 331.05 297.829 331.437L297.901 331.547C298.974 332.977 300.12 334.345 301.335 335.644C305.447 339.969 309.24 342.241 309.32 344.521C309.399 346.801 301.51 347.23 297.102 345.64Z" fill="white" stroke="#263238" stroke-linecap="round" stroke-linejoin="round"/>
<path d="M246.972 205.357C246.972 205.357 248.306 252.735 250.079 262.074C251.851 271.413 259.764 324.942 259.764 324.942C262.183 326.021 264.788 326.559 267.414 326.524H276.062L276.86 286.659L277.156 228.797L281.492 326.743C281.492 326.743 293.405 327.189 294.691 326.962C295.977 326.734 297.047 326.507 297.047 326.507L304.704 264.539L309.088 223.312L309.328 206.913C309.328 206.913 272.724 205.575 262.088 204.667C251.452 203.758 247.076 203.531 247.076 203.531L246.972 205.357Z" fill="#4EB3C1" stroke="#263238" stroke-linecap="round" stroke-linejoin="round"/>
<path d="M296.4 289.007C296.304 289.798 296.208 290.53 296.096 291.203" stroke="#263238" stroke-linecap="round" stroke-linejoin="round"/>
<path d="M297.382 231.969C297.382 231.969 298.125 265.725 296.823 284.051" stroke="#263238" stroke-linecap="round" stroke-linejoin="round"/>
<path d="M258.136 229.26C258.136 229.26 259.054 251.591 259.964 256.597" stroke="#263238" stroke-linecap="round" stroke-linejoin="round"/>
<path d="M292.256 215.032V232.079C294.328 232.667 296.448 233.053 298.588 233.231C301.87 233.459 307.994 233.231 307.994 233.231L308.433 226.778L292.256 215.032Z" fill="#263238" stroke="#263238" stroke-linecap="round" stroke-linejoin="round"/>
<path d="M247.651 228.158C247.651 228.158 255.964 230.926 259.461 231.153C262.959 231.38 266.232 231.843 266.232 231.843L265.801 227.241L247.212 225.398L247.651 228.158Z" fill="#263238" stroke="#263238" stroke-linecap="round" stroke-linejoin="round"/>
<path d="M272.884 98.728L266.36 106.477L248.266 120.385L252.123 204.683C252.123 204.683 266.544 208.772 278.921 209.908C291.297 211.044 307.212 208.057 307.212 208.057L304.872 119.712C304.872 119.712 297.829 108.774 294.22 105.821C290.611 102.868 288.958 100.133 284.175 99.6788C279.392 99.2244 272.884 98.728 272.884 98.728Z" fill="#4EB3C1" stroke="#263238" stroke-linecap="round" stroke-linejoin="round"/>
<path d="M265.314 102.876L245.918 116.784L248.961 168.033L247.931 173.182L239.778 183.077L243.251 200.46L241.702 224.986C241.702 224.986 249.408 227.72 254.63 228.394C258.518 228.833 262.426 229.06 266.336 229.075L267.007 195.588C267.007 195.588 269.586 139.998 269.89 137.533C270.193 135.067 272.884 98.8291 272.884 98.8291L265.314 102.876Z" fill="white" stroke="#263238" stroke-linecap="round" stroke-linejoin="round"/>
<path d="M265.626 104.971L256.235 129.784L266.368 134.218L256.802 136.052L265.274 171.028" stroke="#263238" stroke-linecap="round" stroke-linejoin="round"/>
<path d="M271.255 92.1235C271.255 92.1235 274.625 115.808 277.276 121.277C279.927 126.746 280.677 128.564 280.677 128.564C280.677 128.564 286.443 110.104 287.6 107.369C288.758 104.635 289.996 94.8412 289.996 94.8412C289.996 94.8412 278.505 98.72 271.255 92.1235Z" fill="white" stroke="#263238" stroke-linecap="round" stroke-linejoin="round"/>
<path d="M271.255 92.1235C271.255 92.1235 271.558 94.2775 272.054 97.4327C273.738 98.7873 278.202 102.136 281.5 102.313C284.015 102.447 287.209 100.731 289.333 99.3594C289.716 96.8774 289.98 94.8412 289.98 94.8412C289.98 94.8412 278.505 98.72 271.255 92.1235Z" fill="#263238" stroke="#263238" stroke-linecap="round" stroke-linejoin="round"/>
<path d="M266.68 75.75C266.68 75.75 264.38 72.3003 262.831 75.75C261.282 79.1996 265.226 84.3068 266.328 85.0052C269.458 86.9656 268.628 83.3224 268.628 83.3224L266.68 75.75Z" fill="white" stroke="#263238" stroke-linecap="round" stroke-linejoin="round"/>
<path d="M295.242 77.2394C295.242 77.2394 297.182 73.6719 299.083 77.0375C300.983 80.403 297.558 85.6953 296.536 86.4441C293.613 88.5728 294.076 84.9212 294.076 84.9212L295.242 77.2394Z" fill="white" stroke="#263238" stroke-linecap="round" stroke-linejoin="round"/>
<path d="M266.137 72.704C266.137 72.704 274.473 70.651 278.673 68.0343C281.246 66.3971 283.489 64.2447 285.277 61.6987C285.277 61.6987 288.886 68.8841 292.064 71.7953C295.242 74.7065 295.905 74.8748 295.905 74.8748C295.905 74.8748 294.38 87.4534 292.655 91.8286C290.93 96.2038 285.301 100.461 280.047 99.2328C277.06 98.5429 271.886 96.2711 270.385 92.4428C268.883 88.6146 266.137 72.704 266.137 72.704Z" fill="white" stroke="#263238" stroke-linecap="round" stroke-linejoin="round"/>
<path d="M287.409 82.3717C284.822 82.439 276.158 82.4558 271.686 79.612C269.894 78.5125 268.216 77.2181 266.68 75.75C266.839 76.5914 267.031 77.6431 267.239 78.7369L268.213 79.4857L270.656 89.2121L269.514 89.473C269.755 90.4672 270.046 91.4474 270.385 92.4094C271.886 96.2377 277.06 98.5094 280.047 99.1993C285.293 100.419 290.906 96.1872 292.647 91.8204C292.236 90.972 292.115 90.0005 292.304 89.0691C292.807 86.3178 293.429 81.4966 293.429 81.4966L295.21 79.8139C295.306 79.1997 295.386 78.6107 295.466 78.0722C293.31 79.6456 289.269 82.3212 287.409 82.3717Z" fill="#4EB3C1" stroke="#263238" stroke-linecap="round" stroke-linejoin="round"/>
<path d="M277.899 78.3075C277.899 78.3075 275.112 74.7401 271.455 75.0682" stroke="#263238" stroke-linecap="round" stroke-linejoin="round"/>
<path d="M285.077 79.0143C285.966 78.0292 287.071 77.2887 288.295 76.8575C289.518 76.4262 290.823 76.3175 292.096 76.5406" stroke="#263238" stroke-linecap="round" stroke-linejoin="round"/>
<path d="M269.849 73.2844C269.849 73.2844 273.842 71.6017 277.379 72.3926" stroke="#263238" stroke-linecap="round" stroke-linejoin="round"/>
<path d="M285.404 73.3099C286.456 72.7436 287.648 72.5319 288.818 72.7034C289.988 72.875 291.079 73.4216 291.944 74.2691" stroke="#263238" stroke-linecap="round" stroke-linejoin="round"/>
<path d="M275.216 77.1381C275.234 77.2674 275.227 77.3992 275.197 77.5259C275.167 77.6527 275.113 77.7718 275.039 77.8766C274.964 77.9813 274.871 78.0696 274.765 78.1364C274.658 78.2031 274.54 78.247 274.417 78.2656C274.167 78.236 273.938 78.1073 273.774 77.9058C273.611 77.7042 273.527 77.4448 273.539 77.1802C273.52 77.0507 273.525 76.9185 273.555 76.7914C273.585 76.6642 273.639 76.5446 273.713 76.4396C273.787 76.3346 273.881 76.2463 273.988 76.1799C274.095 76.1134 274.214 76.0702 274.337 76.0527C274.586 76.0843 274.815 76.2134 274.978 76.4145C275.141 76.6157 275.225 76.874 275.216 77.1381Z" fill="#263238"/>
<path d="M289.676 78.2318C289.698 78.3615 289.694 78.4945 289.665 78.6226C289.636 78.7507 289.582 78.8713 289.508 78.9768C289.433 79.0824 289.339 79.1707 289.23 79.2365C289.122 79.3022 289.002 79.344 288.878 79.3592C288.629 79.3316 288.399 79.2047 288.236 79.0045C288.072 78.8043 287.988 78.5459 288 78.2822C287.978 78.1525 287.982 78.0195 288.011 77.8914C288.04 77.7633 288.093 77.6428 288.168 77.5372C288.243 77.4317 288.337 77.3433 288.446 77.2775C288.554 77.2118 288.674 77.17 288.798 77.1548C289.047 77.1824 289.277 77.3093 289.44 77.5095C289.603 77.7097 289.688 77.9681 289.676 78.2318Z" fill="#263238"/>
<path d="M311.18 111.913C311.18 111.913 315.835 114.184 317.568 117.802C319.301 121.42 333.155 160.62 333.091 163.582C333.027 166.544 328.444 169.96 324.148 170.422C319.852 170.885 313.592 162.682 312.657 161.319C311.723 159.956 311.555 144.003 311.555 144.003L311.18 111.913Z" fill="white" stroke="#263238" stroke-linecap="round" stroke-linejoin="round"/>
<path d="M289.237 101.445L291.505 179.812L292.304 229.243C296.651 230.369 301.106 230.976 305.583 231.052C309.317 231.134 313.029 230.436 316.506 228.999C316.506 228.999 315.149 198.246 314.909 193.232C314.67 188.217 313.089 178.651 313.089 178.651L311.204 111.912C311.204 111.912 293.661 103.263 289.237 101.445Z" fill="white" stroke="#263238" stroke-linecap="round" stroke-linejoin="round"/>
<path d="M294.22 105.771L302.261 133.41L294.931 135.505L302.061 139.148L293.166 168.925" fill="white"/>
<path d="M294.22 105.771L302.261 133.41L294.931 135.505L302.061 139.148L293.166 168.925" stroke="#263238" stroke-linecap="round" stroke-linejoin="round"/>
<path d="M299.825 131.054L289.852 181.403C289.852 181.403 296.671 183.674 301.654 183.927C306.637 184.179 317.017 184.145 317.017 184.145L327.398 137.213C327.398 137.213 306.964 135.152 299.825 131.054Z" fill="#263238" stroke="#263238" stroke-linecap="round" stroke-linejoin="round"/>
<path d="M303.299 177.978L303.626 162.244L311.539 164.002C311.539 164.002 306.309 176.143 303.299 177.978Z" fill="white" stroke="#263238" stroke-linecap="round" stroke-linejoin="round"/>
<path d="M309.36 156.556C309.36 156.556 307.251 153.376 306.573 152.686C305.894 151.996 302.54 149.96 301.894 149.96C301.247 149.96 297.773 149.732 297.102 149.732C296.432 149.732 295.673 151.331 296.36 152.013C297.047 152.694 299.434 152.921 299.434 152.921L301.071 155.445L293.685 154.764C293.685 154.764 292.455 156.135 292.735 157.288C292.944 158.069 293.211 158.831 293.533 159.568C293.505 161.241 293.588 162.914 293.781 164.574C294.068 165.946 295.378 166.4 297.174 167.536C298.971 168.672 304.984 167.99 304.984 167.99H307.763L309.36 156.556Z" fill="white" stroke="#263238" stroke-linecap="round" stroke-linejoin="round"/>
<path d="M327.366 158.138L308.202 155.42C308.202 155.42 306.708 168.411 305.199 172.736C303.69 177.061 303.299 177.978 303.299 177.978C303.299 177.978 323.381 177.507 328.116 177.052C332.851 176.598 335.51 173.628 335.303 169.53C335.095 165.433 332.724 161.327 332.724 161.327" fill="white"/>
<path d="M327.366 158.138L308.202 155.42C308.202 155.42 306.708 168.411 305.199 172.736C303.69 177.061 303.299 177.978 303.299 177.978C303.299 177.978 323.381 177.507 328.116 177.052C332.851 176.598 335.51 173.628 335.303 169.53C335.095 165.433 332.724 161.327 332.724 161.327" stroke="#263238" stroke-linecap="round" stroke-linejoin="round"/>
<path d="M247.452 172.323C247.452 172.323 251.923 175.277 253.041 176.194C254.159 177.111 254.255 183.026 254.965 184.161C255.676 185.297 254.838 185.987 253.544 185.987C252.251 185.987 250.294 181.663 250.294 181.663L250.214 180.064L241.079 183.261L238.684 178.937C238.684 178.937 241.399 172.323 247.452 172.323Z" fill="white" stroke="#263238" stroke-linecap="round" stroke-linejoin="round"/>
<path d="M180.904 351.084C203.982 351.084 222.69 346.639 222.69 341.156C222.69 335.673 203.982 331.228 180.904 331.228C157.827 331.228 139.119 335.673 139.119 341.156C139.119 346.639 157.827 351.084 180.904 351.084Z" fill="#263238" stroke="#263238" stroke-linecap="round" stroke-linejoin="round"/>
<path d="M213.539 105.224C213.539 105.224 219.017 134.192 219.991 139.552C220.965 144.912 222.754 157.65 224.782 163.237C226.81 168.824 226.147 175.975 225.133 177.986C224.116 179.734 222.948 181.379 221.644 182.9L214.841 173.552C214.841 173.552 210.792 127.747 210.64 121.26C210.489 114.773 213.539 105.224 213.539 105.224Z" fill="white" stroke="#263238" stroke-linecap="round" stroke-linejoin="round"/>
<path d="M217.148 172.408C217.148 172.408 221.46 175.244 222.219 176.447C222.977 177.65 223.52 179.181 222.93 180.485C222.339 181.79 219.121 185.727 218.306 186.493C217.492 187.259 216.805 184.204 216.709 181.579C216.613 178.954 217.148 172.408 217.148 172.408Z" fill="white" stroke="#263238" stroke-linecap="round" stroke-linejoin="round"/>
<path d="M193.96 331.261C193.96 331.261 207.479 338.186 208.333 339.532C209.187 340.878 206.105 342.67 198.048 342.67C189.991 342.67 189.752 341.551 186.55 340.659C183.348 339.768 176.968 340.432 176.105 338.421C175.243 336.41 176.744 329.486 176.744 329.486L193.96 331.261Z" fill="white" stroke="#263238" stroke-linecap="round" stroke-linejoin="round"/>
<path d="M176.01 334.837C176.01 334.837 187.189 341.989 186.206 344.445C185.224 346.902 177.143 346.902 172.887 346.229C168.631 345.556 159.584 339.498 159.105 337.294C158.626 335.089 159.824 331.707 166.38 331.042C172.935 330.377 176.01 334.837 176.01 334.837Z" fill="white" stroke="#263238" stroke-linecap="round" stroke-linejoin="round"/>
<path d="M209.946 217.977C209.946 217.977 203.558 269.815 202.448 277.413C201.338 285.01 197.817 297.076 195.916 306.238C194.839 311.627 194.039 317.073 193.521 322.553C193.327 324.111 193.362 325.692 193.624 327.239C193.896 329.477 193.936 331.261 193.936 331.261C191.092 332.013 188.199 332.536 185.28 332.826C181.679 333.053 176.8 333.053 176.8 333.053L175.203 318.531C175.203 318.531 176.393 297.076 177.095 290.824C177.798 284.573 178.549 235.411 178.517 234.064C178.485 232.718 178.205 220.88 178.205 220.88L199.965 218.423C199.965 218.423 202.935 209.488 207.399 209.934C211.862 210.38 209.946 217.977 209.946 217.977Z" fill="white" stroke="#263238" stroke-linecap="round" stroke-linejoin="round"/>
<path d="M207.431 209.934C202.967 209.488 199.997 218.423 199.997 218.423L178.213 220.88C178.213 220.88 178.285 224.027 178.357 227.258C180.681 227.476 182.829 227.603 184.665 227.603C191.644 227.591 198.618 227.178 205.554 226.366L206.488 216.067L207.95 226.559L208.956 226.214C209.579 221.217 209.978 217.96 209.978 217.96C209.978 217.96 211.894 210.38 207.431 209.934Z" fill="#263238" stroke="#263238" stroke-linecap="round" stroke-linejoin="round"/>
<path d="M155.488 219.542C155.488 219.542 155.488 219.862 155.536 220.443C155.831 226.551 157.588 261.948 158.123 268.477C158.722 275.629 155.728 283.445 155.879 289.924C156.031 296.403 157.476 331.488 157.476 331.488L159.073 337.294C159.073 337.294 162.826 334.618 166.428 334.618C170.029 334.618 176.01 334.837 176.01 334.837C176.01 334.837 176.321 330.142 176.289 328.586C176.257 327.029 176.121 321.434 176.121 321.434C176.121 321.434 182.214 292.162 182.581 289.705C182.949 287.249 187.676 244.792 187.644 243.429C187.612 242.066 188.642 223.093 188.642 223.093L155.488 219.542Z" fill="white" stroke="#263238" stroke-linecap="round" stroke-linejoin="round"/>
<path d="M188.418 227.561C188.554 224.969 188.65 223.118 188.65 223.118L155.488 219.542C155.488 219.542 155.488 219.862 155.536 220.443C155.536 221.183 155.624 222.353 155.704 223.808C163.457 225.272 176.912 227.578 184.665 227.578C185.943 227.603 187.189 227.586 188.418 227.561Z" fill="#263238" stroke="#263238" stroke-linecap="round" stroke-linejoin="round"/>
<path d="M179.922 82.3467C179.922 82.3467 176.417 82.9693 175.083 84.6184C173.747 86.2225 172.545 87.9453 171.49 89.7677C171.306 90.3903 150.689 103.575 150.689 103.575L152.174 166.443C152.174 166.443 152.789 176.127 151.695 179.425C149.847 185.91 148.951 192.655 149.036 199.425C149.228 207.46 149.723 220.46 149.723 220.46C149.723 220.46 173.319 225.407 184.665 225.407C191.645 225.389 198.618 224.971 205.554 224.153L206.488 213.846L207.91 224.364L212.757 222.681L216.749 191.55C216.749 191.55 219.528 184.953 219.496 183.506C219.464 182.059 220.199 180.208 219.392 178.971C218.586 177.734 217.148 175.261 217.148 175.261C217.148 175.261 213.539 107.083 213.539 105.224C213.539 103.364 202.863 92.4517 202.073 92.0394C201.282 91.6272 196.411 83.9958 190.095 81.9428C183.779 79.8899 179.922 82.3467 179.922 82.3467Z" fill="white" stroke="#263238" stroke-linecap="round" stroke-linejoin="round"/>
<path d="M173.494 91.8286L171.131 114.47L180.84 119.224L178.413 126.906L202.695 171.869" stroke="#263238" stroke-linecap="round" stroke-linejoin="round"/>
<path d="M200.619 94.3696L207.902 112.283L204.78 116.666L209.986 124.34L207.902 173.695" stroke="#263238" stroke-linecap="round" stroke-linejoin="round"/>
<path d="M179.02 85.4426C179.197 89.8597 179.958 94.2293 181.28 98.4251C183.38 104.609 197.298 147.276 197.298 147.276L206.297 180.662C206.297 180.662 205.107 146.653 205.075 145.214C205.043 143.776 198.256 96.5657 198.256 96.5657C198.256 96.5657 197.098 88.9428 195.269 86.0568C193.441 83.1709 181.184 77.8113 179.02 85.4426Z" fill="#4EB3C1" stroke="#263238" stroke-linecap="round" stroke-linejoin="round"/>
<path d="M178.157 82.1445C178.157 82.1445 172.496 82.7587 173.494 91.8288C174.492 100.899 175.81 107.083 175.81 107.083" stroke="#263238" stroke-width="2" stroke-linecap="round" stroke-linejoin="round"/>
<path d="M175.115 119.039C175.115 119.039 177.511 129.548 179.148 132.434C180.785 135.32 185.735 138.206 189.257 138.206" stroke="#263238" stroke-linecap="round" stroke-linejoin="round"/>
<path d="M182.685 116.565C182.685 116.565 185.32 128.723 185.759 130.995C186.198 133.267 184.745 137.583 182.302 141.933" stroke="#263238" stroke-linecap="round" stroke-linejoin="round"/>
<path d="M181.599 143.372C181.348 143.226 181.161 142.981 181.08 142.691C181 142.401 181.031 142.089 181.168 141.824L181.447 141.285C181.516 141.156 181.608 141.043 181.719 140.953C181.83 140.862 181.957 140.796 182.092 140.757C182.227 140.719 182.368 140.709 182.507 140.729C182.646 140.749 182.78 140.798 182.901 140.873C183.152 141.019 183.339 141.263 183.421 141.552C183.503 141.842 183.474 142.154 183.34 142.421L183.06 142.951C182.991 143.081 182.899 143.195 182.788 143.286C182.677 143.378 182.549 143.445 182.413 143.484C182.277 143.523 182.135 143.534 181.995 143.514C181.856 143.495 181.721 143.446 181.599 143.372Z" fill="#263238"/>
<path d="M190.566 138.433C190.566 138.581 190.538 138.728 190.483 138.865C190.428 139.001 190.347 139.125 190.246 139.228C190.144 139.33 190.024 139.411 189.893 139.464C189.761 139.516 189.621 139.541 189.48 139.535H188.897C188.61 139.529 188.337 139.403 188.136 139.186C187.936 138.968 187.825 138.677 187.827 138.374C187.826 138.226 187.853 138.079 187.908 137.943C187.962 137.806 188.042 137.683 188.142 137.58C188.243 137.477 188.363 137.396 188.494 137.343C188.625 137.29 188.765 137.266 188.905 137.272H189.488C189.776 137.281 190.049 137.406 190.25 137.623C190.451 137.84 190.564 138.13 190.566 138.433Z" fill="#263238"/>
<path d="M175.131 119.864L173.79 110.903C173.64 109.979 173.83 109.03 174.321 108.248C174.812 107.467 175.567 106.912 176.433 106.696C177.366 106.473 178.344 106.639 179.163 107.16C179.982 107.681 180.578 108.516 180.824 109.49L183.116 118.408" stroke="#263238" stroke-width="2" stroke-linecap="round" stroke-linejoin="round"/>
<path d="M206.695 125.919C208.617 125.717 209.995 123.659 209.773 121.324C209.551 118.989 207.813 117.261 205.891 117.464C203.969 117.667 202.591 119.724 202.813 122.059C203.035 124.394 204.773 126.122 206.695 125.919Z" fill="white" stroke="#263238" stroke-linecap="round" stroke-linejoin="round"/>
<path d="M196.874 85.9224C196.874 85.9224 204.564 97.3231 207.015 120.562" stroke="#263238" stroke-width="2" stroke-linecap="round" stroke-linejoin="round"/>
<path d="M207.22 123.252C208.269 123.15 209.028 122.02 208.914 120.729C208.8 119.438 207.857 118.475 206.807 118.578C205.758 118.68 204.999 119.81 205.113 121.101C205.227 122.392 206.17 123.355 207.22 123.252Z" fill="white" stroke="#263238" stroke-linecap="round" stroke-linejoin="round"/>
<path d="M218.458 174.183C217.986 175.723 217.6 177.291 217.3 178.878C217.3 179.551 217.148 181.562 215.655 181.108C214.162 180.653 214.609 172.618 214.801 171.726C214.992 170.834 218.626 173.72 218.626 173.72" fill="white"/>
<path d="M218.458 174.183C217.986 175.723 217.6 177.291 217.3 178.878C217.3 179.551 217.148 181.562 215.655 181.108C214.162 180.653 214.609 172.618 214.801 171.726C214.992 170.834 218.626 173.72 218.626 173.72" stroke="#263238" stroke-linecap="round" stroke-linejoin="round"/>
<path d="M169.989 167.065C171.317 167.836 172.801 168.26 174.317 168.302C176.664 168.302 180.952 167.461 182.525 167.89C184.098 168.319 188.115 173.653 188.115 173.653C188.115 173.653 189.313 174.89 188.746 175.513C188.179 176.136 187.021 177.196 186.222 176.539C185.424 175.883 181.431 172.417 181.431 172.417L171.362 176.75L167.226 174.478L169.989 167.065Z" fill="white" stroke="#263238" stroke-linecap="round" stroke-linejoin="round"/>
<path d="M154.57 102.136C154.57 102.136 147.934 102.977 146.808 104.811C145.682 106.646 127.501 148.715 127.54 150.574C127.58 152.434 163.896 182.547 163.896 182.547L171.738 166.821L152.118 147.655L160.63 126.839" fill="white"/>
<path d="M154.57 102.136C154.57 102.136 147.934 102.977 146.808 104.811C145.682 106.646 127.501 148.715 127.54 150.574C127.58 152.434 163.896 182.547 163.896 182.547L171.738 166.821L152.118 147.655L160.63 126.839" stroke="#263238" stroke-linecap="round" stroke-linejoin="round"/>
<path d="M166.811 190.144L185.991 190.557L185.895 177.986" stroke="#263238" stroke-linecap="round" stroke-linejoin="round"/>
<path d="M171.386 176.75L166.316 178.744" stroke="#263238" stroke-linecap="round" stroke-linejoin="round"/>
<path d="M177.167 73.2762C177.167 73.2762 179.347 91.2144 180.785 93.89C182.222 96.5656 192.443 107.285 192.443 107.285C192.443 107.285 195.637 94.9249 195.996 92.039C196.355 89.153 196.635 77.6093 196.635 77.6093L177.127 71.8374L177.167 73.2762Z" fill="white" stroke="#263238" stroke-linecap="round" stroke-linejoin="round"/>
<path d="M177.167 73.2762C177.167 73.2762 177.423 75.3796 177.814 78.2487C179.343 79.7489 181.09 80.9817 182.988 81.9003C185.504 83.0699 192.211 83.7261 196.451 83.2045C196.563 80.1839 196.635 77.6093 196.635 77.6093L177.127 71.8374L177.167 73.2762Z" fill="#263238" stroke="#263238" stroke-linecap="round" stroke-linejoin="round"/>
<path d="M171.514 57.6177C171.514 57.6177 168.903 54.7318 167.609 58.0216C166.316 61.3114 169.206 66.2671 170.747 66.4775C171.662 66.6031 172.591 66.5316 173.478 66.2671C173.478 66.2671 174.572 71.0125 175.578 72.4513C177.559 75.0896 180.096 77.2043 182.988 78.627C186.55 80.3098 198.471 80.9072 199.981 78.627C201.49 76.3469 201.402 64.1973 201.378 63.1709C201.354 62.1444 201.186 47.4538 201.186 47.4538C201.186 47.4538 202.256 42.3551 200.803 38.8465C199.35 35.3379 184.761 30.4327 181.096 32.4604C177.431 34.4881 173.207 38.0219 172.919 42.557C172.632 47.092 172.808 54.513 172.808 54.513L171.514 57.6177Z" fill="white" stroke="#263238" stroke-linecap="round" stroke-linejoin="round"/>
<path d="M193.074 51.2236C193.074 51.2236 195.509 63.003 194.95 64.4165C194.391 65.83 192.642 65.8553 190.454 64.6184C188.267 63.3816 189.408 61.7325 189.408 61.7325" stroke="#263238" stroke-linecap="round" stroke-linejoin="round"/>
<path d="M184.593 64.8291C184.593 64.8291 185.647 67.917 187.604 68.1273C189.56 68.3377 194.471 68.7415 194.471 68.7415" stroke="#263238" stroke-linecap="round" stroke-linejoin="round"/>
<path d="M177.606 51.6359L177.918 56.5833C177.918 56.5833 179.707 57.6182 183.811 57.6182C187.915 57.6182 189.265 56.5833 189.265 56.5833L189.153 51.6359C189.153 51.6359 183.196 47.9254 177.606 51.6359Z" stroke="#263238" stroke-linecap="round" stroke-linejoin="round"/>
<path d="M193.089 51.636L194.575 56.7936C194.575 56.7936 195.182 57.635 199.294 57.635C203.406 57.635 204.756 56.6001 204.756 56.6001L204.636 51.6528C204.636 51.6528 198.671 47.9255 193.089 51.636Z" stroke="#263238" stroke-linecap="round" stroke-linejoin="round"/>
<path d="M189.177 51.6357H193.089" stroke="#263238" stroke-linecap="round" stroke-linejoin="round"/>
<path d="M177.631 51.6357L169.917 56.3811" stroke="#263238" stroke-linecap="round" stroke-linejoin="round"/>
<path d="M179.531 49.1622C179.531 49.1622 181.623 46.6886 186.366 48.75" stroke="#263238" stroke-linecap="round" stroke-linejoin="round"/>
<path d="M193.808 49.1621C194.513 48.5666 195.362 48.193 196.259 48.0843C197.157 47.9756 198.065 48.1363 198.879 48.5479" stroke="#263238" stroke-linecap="round" stroke-linejoin="round"/>
<path d="M184.53 53.9074C184.53 54.8161 184.218 55.5901 183.787 55.5901C183.356 55.5901 182.988 54.8497 182.988 53.9074C182.988 52.965 183.3 52.2246 183.739 52.2246C184.178 52.2246 184.514 52.9903 184.53 53.9074Z" fill="#263238"/>
<path d="M197.05 53.6974C197.05 54.6061 196.739 55.3802 196.307 55.3802C195.876 55.3802 195.509 54.6398 195.509 53.6974C195.509 52.7551 195.82 52.0146 196.252 52.0146C196.683 52.0146 197.026 52.7887 197.05 53.6974Z" fill="#263238"/>
<path d="M183.651 34.6313C183.651 34.6313 185.536 39.0149 183.196 40.6136C182.474 41.0538 181.655 41.2856 180.82 41.2856C179.986 41.2856 179.167 41.0538 178.445 40.6136C179.067 41.5189 179.414 42.6014 179.441 43.7187C179.469 44.8361 179.174 45.9358 178.597 46.8735C177.45 48.887 176.112 50.773 174.604 52.5023C174.604 52.5023 175.027 57.8282 174.149 58.4509C173.271 59.0735 170.875 58.1396 170.835 56.5746C170.795 55.0096 169.837 51.8797 169.797 50.3147C169.757 48.7497 169.071 44.6774 169.071 44.6774C169.071 44.6774 163.066 41.8588 166.252 38.4176C169.438 34.9763 176.201 32.1577 176.201 32.1577C176.201 32.1577 176.353 25.8978 180.465 24.0215C184.577 22.1452 193.425 19.3266 193.497 22.4565C193.609 24.0673 193.335 25.6821 192.698 27.1514C192.698 27.1514 200.116 26.8401 205.291 32.1997C210.465 37.5593 210.289 42.5319 207.614 42.5319C204.939 42.5319 204.069 43.1545 204.069 43.1545C204.069 43.1545 209.187 46.2845 206.552 47.8495C203.917 49.4144 201.202 47.5381 201.202 47.5381C201.202 47.5381 202.336 45.3505 198.998 42.4898C195.661 39.6292 183.651 34.6313 183.651 34.6313Z" fill="#263238" stroke="#263238" stroke-linecap="round" stroke-linejoin="round"/>
<path d="M82.3291 351.084C105.407 351.084 124.115 346.639 124.115 341.156C124.115 335.673 105.407 331.228 82.3291 331.228C59.2515 331.228 40.5435 335.673 40.5435 341.156C40.5435 346.639 59.2515 351.084 82.3291 351.084Z" fill="#263238" stroke="#263238" stroke-linecap="round" stroke-linejoin="round"/>
<path d="M109.846 135.799V143.843L120.945 149.203C120.945 149.203 122.103 143.843 121.176 134.335L109.846 135.799Z" fill="#999999" stroke="#263238" stroke-linecap="round" stroke-linejoin="round"/>
<path d="M54.7569 328.821C52.2164 331.118 49.8161 333.583 47.5703 336.199C44.3763 339.994 43.7535 343.772 46.7239 345.581C49.6944 347.39 54.3576 346.919 59.4441 343.57C64.5305 340.221 64.3229 338.875 67.2934 337.764C70.2638 336.654 72.1722 334.399 72.1722 330.831C72.1722 327.264 61.3525 326.81 59.0209 326.625C56.6892 326.439 54.7569 328.821 54.7569 328.821Z" fill="white" stroke="#263238" stroke-linecap="round" stroke-linejoin="round"/>
<path d="M72.1482 330.832C72.1482 330.832 67.3572 333.07 65.0336 335.106C62.7099 337.142 58.0786 344.47 52.6647 344.47C49.9078 344.473 47.1965 343.728 44.7915 342.308C44.795 342.985 44.9748 343.649 45.3113 344.226C45.6478 344.803 46.1281 345.272 46.6999 345.581C49.6704 347.365 54.3336 346.919 59.4201 343.57C64.5065 340.221 64.2989 338.875 67.2694 337.765C70.2398 336.654 72.1482 334.407 72.1482 330.832Z" stroke="#263238" stroke-linecap="round" stroke-linejoin="round"/>
<path d="M108.568 328.821C111.108 331.118 113.509 333.583 115.754 336.199C118.948 339.994 119.571 343.772 116.601 345.581C113.63 347.39 108.967 346.919 103.881 343.57C98.7943 340.221 99.0019 338.875 96.0314 337.764C93.061 336.654 91.1526 334.399 91.1526 330.831C91.1526 327.264 101.972 326.81 104.304 326.625C106.636 326.439 108.568 328.821 108.568 328.821Z" fill="white" stroke="#263238" stroke-linecap="round" stroke-linejoin="round"/>
<path d="M91.1765 330.832C91.1765 330.832 95.9675 333.07 98.2912 335.106C100.615 337.142 105.246 344.47 110.66 344.47C113.417 344.473 116.128 343.728 118.533 342.308C118.53 342.985 118.35 343.649 118.013 344.226C117.677 344.803 117.197 345.272 116.625 345.581C113.654 347.365 108.991 346.919 103.905 343.57C98.8182 340.221 99.0258 338.875 96.0554 337.765C93.0849 336.654 91.1765 334.407 91.1765 330.832Z" stroke="#263238" stroke-linecap="round" stroke-linejoin="round"/>
<path d="M48.6084 201.907C48.6084 201.907 49.878 252.179 50.5168 259.558C51.1556 266.937 53.0401 283.689 53.0401 284.614C53.0401 285.54 54.0941 322.603 54.0941 322.603L52.1857 325.968L52.8245 330.663L61.3046 332.447C65.5446 333.339 71.0623 334.685 71.9087 333.793C72.7551 332.901 72.9707 331.109 73.3939 328.652C73.8171 326.196 74.6636 321.719 73.8171 318.152C72.9707 314.584 74.8792 276.588 75.0947 275.696C75.3103 274.804 80.1892 238.103 80.1892 238.103C80.1892 238.103 83.3832 268.275 85.6989 277.429C88.0145 286.583 87.1841 300.222 88.0305 305.582C88.8769 310.941 90.5777 329.048 90.7933 330.386C91.0089 331.723 91.4241 333.751 91.4241 333.751C91.4241 333.751 102.028 332.186 103.937 331.286C105.872 330.535 107.857 329.939 109.878 329.502C109.878 329.502 110.508 316.764 109.662 311.623C109.045 308.011 108.69 304.354 108.6 300.685C108.6 299.12 109.662 249.52 109.662 249.52L108.6 201.477C108.6 201.477 79.9736 204.607 68.9463 202.369C57.9189 200.131 48.824 198.793 48.824 198.793L48.6084 201.907Z" fill="#4EB3C1" stroke="#263238" stroke-linecap="round" stroke-linejoin="round"/>
<path d="M68.9622 202.353C57.9349 200.123 48.824 198.793 48.824 198.793L48.6084 201.915C48.6084 201.915 48.6803 204.801 48.8 209.277C53.8546 210.766 64.1233 213.383 74.0487 213.383C84.541 213.383 101.254 210.017 108.776 208.41L108.616 201.469C108.616 201.469 79.9896 204.591 68.9622 202.353Z" fill="#263238" stroke="#263238" stroke-linecap="round" stroke-linejoin="round"/>
<path d="M105.797 315.569C105.933 317.109 106.021 317.992 106.021 317.992" stroke="#263238" stroke-linecap="round" stroke-linejoin="round"/>
<path d="M102.547 213.703C102.547 213.703 103.346 256.882 103.346 273.18C103.346 284.454 104.639 301.568 105.438 311.042" stroke="#263238" stroke-linecap="round" stroke-linejoin="round"/>
<path d="M59.6277 211.263L61.5601 258.111" stroke="#263238" stroke-linecap="round" stroke-linejoin="round"/>
<path d="M61.1688 261.771V269.512" stroke="#263238" stroke-linecap="round" stroke-linejoin="round"/>
<path d="M71.222 83.8947C70.178 83.9006 69.1503 84.1684 68.2241 84.6762C67.2979 85.1839 66.4998 85.9168 65.896 86.8143C64.5755 88.6503 63.106 90.3619 61.5042 91.9299L42.5398 102.658L44.3923 178.937L45.087 205.02C45.087 205.02 59.6517 210.136 73.5297 210.136C87.4077 210.136 112.153 204.246 112.153 204.246C112.153 204.246 110.077 102.624 110.772 102.624C111.467 102.624 97.1255 89.4983 90.6496 86.0486C84.1737 82.599 71.222 83.8947 71.222 83.8947Z" fill="#4EB3C1" stroke="#263238" stroke-linecap="round" stroke-linejoin="round"/>
<path d="M65.8162 93.1162C65.8162 93.1162 73.1624 107.378 76.2606 113.898C79.3588 120.419 85.1399 129.8 85.1399 129.8L94.8098 102.506" stroke="#263238" stroke-linecap="round" stroke-linejoin="round"/>
<path d="M71.2459 183.573L70.8706 172.189L49.0475 170.852C49.0475 170.852 49.2631 187.612 49.6863 188.521" stroke="#263238" stroke-linecap="round" stroke-linejoin="round"/>
<path d="M71.5094 191.634L71.4056 188.437" stroke="#263238" stroke-linecap="round" stroke-linejoin="round"/>
<path d="M97.3809 189.841L96.7421 171.078C96.7421 171.078 104.376 171.743 110.74 167.275" stroke="#263238" stroke-linecap="round" stroke-linejoin="round"/>
<path d="M64.6583 126.368C65.329 128.597 67.3732 129.91 69.2177 129.287C71.0622 128.665 71.9965 126.351 71.3178 124.121C70.639 121.892 68.6029 120.579 66.7583 121.202C64.9138 121.824 63.9795 124.138 64.6583 126.368Z" stroke="#263238" stroke-linecap="round" stroke-linejoin="round"/>
<path d="M64.8738 87.3271C64.8738 87.3271 62.4224 97.2555 67.996 124.205" stroke="#263238" stroke-width="2" stroke-linecap="round" stroke-linejoin="round"/>
<path d="M69.7128 125.131C69.5485 125.48 69.2926 125.772 68.9754 125.972C68.6583 126.173 68.2932 126.273 67.9236 126.261C67.5539 126.25 67.1952 126.126 66.8901 125.906C66.5849 125.686 66.3461 125.378 66.202 125.019C66.0579 124.661 66.0146 124.266 66.0772 123.882C66.1397 123.498 66.3056 123.141 66.555 122.853C66.8044 122.565 67.1269 122.359 67.4843 122.259C67.8416 122.158 68.2188 122.168 68.571 122.287C69.0782 122.507 69.4826 122.929 69.6964 123.462C69.9102 123.994 69.9161 124.594 69.7128 125.131Z" stroke="#263238" stroke-linecap="round" stroke-linejoin="round"/>
<path d="M109.846 101.193C109.846 101.193 113.311 103.877 113.543 104.853C113.774 105.829 125.568 135.555 125.568 135.555L108.456 138.214L108.688 120.663" fill="#4EB3C1"/>
<path d="M109.846 101.193C109.846 101.193 113.311 103.877 113.543 104.853C113.774 105.829 125.568 135.555 125.568 135.555L108.456 138.214L108.688 120.663" stroke="#263238" stroke-linecap="round" stroke-linejoin="round"/>
<path d="M44.8554 101.681C44.8554 101.681 40.9188 102.169 39.9925 105.333C39.0663 108.496 32.3668 140.671 32.3668 140.671L56.8809 138.214L54.5652 114.083" fill="#4EB3C1"/>
<path d="M44.8554 101.681C44.8554 101.681 40.9188 102.169 39.9925 105.333C39.0663 108.496 32.3668 140.671 32.3668 140.671L56.8809 138.214L54.5652 114.083" stroke="#263238" stroke-linecap="round" stroke-linejoin="round"/>
<path d="M92.2065 85.813C92.2065 85.813 98.2832 89.4646 98.882 98.5515C99.4809 107.638 98.882 109.944 98.882 109.944" stroke="#263238" stroke-width="2" stroke-linecap="round" stroke-linejoin="round"/>
<path d="M101.629 121.58C101.629 121.58 101.086 132.325 99.9761 135.429C98.8662 138.534 94.4744 142.211 90.9929 142.8" stroke="#263238" stroke-linecap="round" stroke-linejoin="round"/>
<path d="M93.7638 120.419C93.7638 120.419 93.2767 132.813 93.2288 135.118C93.1809 137.423 95.3848 141.437 98.5468 145.282" stroke="#263238" stroke-linecap="round" stroke-linejoin="round"/>
<path d="M99.4537 146.632L99.5467 146.552C99.9817 146.181 100.048 145.508 99.6956 145.049L99.248 144.468C98.8952 144.009 98.2566 143.939 97.8216 144.311L97.7286 144.39C97.2935 144.762 97.2269 145.435 97.5796 145.893L98.0273 146.475C98.38 146.933 99.0187 147.004 99.4537 146.632Z" fill="#263238"/>
<path d="M89.7426 143.192L89.7649 143.316C89.8692 143.896 90.3998 144.277 90.9501 144.167L91.6483 144.028C92.1986 143.918 92.5602 143.359 92.4559 142.779L92.4336 142.655C92.3293 142.075 91.7987 141.694 91.2484 141.804L90.5502 141.944C89.9999 142.053 89.6384 142.613 89.7426 143.192Z" fill="#263238"/>
<path d="M101.749 122.396L101.517 113.368C101.496 112.426 101.142 111.527 100.525 110.846C99.9073 110.164 99.0712 109.75 98.1795 109.683C97.2324 109.608 96.2958 109.932 95.5746 110.583C94.8534 111.235 94.4062 112.16 94.3307 113.158L93.6121 122.312" stroke="#263238" stroke-width="2" stroke-linecap="round" stroke-linejoin="round"/>
<path d="M121.64 143.111L116.122 141.891L96.6943 138.483L69.4494 133.014L62.9895 130.011C62.9895 130.011 56.8809 121.597 56.3539 120.755C55.8269 119.914 48.9198 122.85 49.1674 123.969C49.4149 125.089 50.2294 136.27 50.7644 136.977C51.2994 137.684 57.2642 137.676 57.2642 137.676C57.2642 137.676 85.7229 152.147 86.9046 152.677C103.33 159.972 111.251 159.905 114.054 160.384C116.856 160.864 118.685 159.669 120.298 157.717C121.911 155.765 121.64 143.111 121.64 143.111Z" fill="#999999" stroke="#263238" stroke-linecap="round" stroke-linejoin="round"/>
<path d="M55.5234 120.638C55.5234 120.638 52.2097 120.781 47.2989 124.272C45.4703 125.577 44.5121 126.511 44.5121 127.074C44.6167 127.745 44.7963 128.4 45.0471 129.026C48.2309 127.411 51.5652 126.148 54.9964 125.257" fill="#999999"/>
<path d="M55.5234 120.638C55.5234 120.638 52.2097 120.781 47.2989 124.272C45.4703 125.577 44.5121 126.511 44.5121 127.074C44.6167 127.745 44.7963 128.4 45.0471 129.026C48.2309 127.411 51.5652 126.148 54.9964 125.257" stroke="#263238" stroke-linecap="round" stroke-linejoin="round"/>
<path d="M56.849 129.59C56.849 129.59 47.8339 131.963 46.3726 132.249C44.9113 132.535 44.6478 130.987 44.6478 130.431C44.6478 129.876 45.0471 129.026 46.6361 128.193C48.2251 127.36 56.2181 125.114 56.2181 125.114" fill="#999999"/>
<path d="M56.849 129.59C56.849 129.59 47.8339 131.963 46.3726 132.249C44.9113 132.535 44.6478 130.987 44.6478 130.431C44.6478 129.876 45.0471 129.026 46.6361 128.193C48.2251 127.36 56.2181 125.114 56.2181 125.114" stroke="#263238" stroke-linecap="round" stroke-linejoin="round"/>
<path d="M57.7831 133.923C57.7831 133.923 47.2987 135.042 46.5002 134.344C46.2559 134.064 46.0706 133.732 45.9564 133.371C45.8421 133.01 45.8016 132.628 45.8375 132.249L55.2598 130.146" fill="#999999"/>
<path d="M57.7831 133.923C57.7831 133.923 47.2987 135.042 46.5002 134.344C46.2559 134.064 46.0706 133.732 45.9564 133.371C45.8421 133.01 45.8016 132.628 45.8375 132.249L55.2598 130.146" stroke="#263238" stroke-linecap="round" stroke-linejoin="round"/>
<path d="M54.8607 134.479L46.7719 134.899C46.7719 134.899 47.1631 136.161 47.5704 136.296C49.4866 136.795 51.4391 137.124 53.4074 137.28C54.6981 137.325 55.9843 137.466 57.2562 137.701" fill="#999999"/>
<path d="M54.8607 134.479L46.7719 134.899C46.7719 134.899 47.1631 136.161 47.5704 136.296C49.4866 136.795 51.4391 137.124 53.4074 137.28C54.6981 137.325 55.9843 137.466 57.2562 137.701" stroke="#263238" stroke-linecap="round" stroke-linejoin="round"/>
<path d="M37.4532 140.183C37.4532 140.183 41.1503 157.011 42.0766 158.222C43.0028 159.434 50.6365 158.222 58.2702 155.782C65.9039 153.342 98.2832 138.728 98.2832 138.728L102.907 139.695C102.907 139.695 101.054 133.604 97.8201 133.36C94.5861 133.116 56.8808 138.214 56.8808 138.214L37.4532 140.183Z" fill="#999999" stroke="#263238" stroke-linecap="round" stroke-linejoin="round"/>
<path d="M69.8086 73.1665C69.8086 73.1665 69.8086 73.5283 69.8086 74.1425C69.8805 77.3482 70.1759 87.5289 70.9505 89.9857C71.8767 92.9053 84.3653 117.524 85.3235 115.572C86.2817 113.62 92.0309 87.0577 92.0309 87.0577V76.5825C92.0309 76.5825 89.0206 79.2581 83.471 79.2581C77.9214 79.2581 69.8086 73.1665 69.8086 73.1665Z" fill="#999999" stroke="#263238" stroke-linecap="round" stroke-linejoin="round"/>
<path d="M88.3339 87.6046C89.6289 86.7713 90.8669 85.8435 92.0389 84.8281V76.5825C92.0389 76.5825 89.0286 79.2581 83.479 79.2581C77.9294 79.2581 69.8086 73.1665 69.8086 73.1665C69.8086 73.1665 69.8086 73.5283 69.8086 74.1425C69.8086 75.27 69.8884 77.264 69.9843 79.4853C70.2033 79.8551 70.4489 80.2067 70.7189 80.537C72.3159 82.4806 79.9655 87.3606 81.8181 87.8486C83.6706 88.3366 86.2498 88.8162 88.3339 87.6046Z" fill="#263238" stroke="#263238" stroke-linecap="round" stroke-linejoin="round"/>
<path d="M97.5885 59.0315C97.5885 59.0315 101.286 56.8355 101.286 60.9835C101.286 65.1315 97.8201 70.0031 97.8201 70.0031L97.5885 59.0315Z" fill="#999999" stroke="#263238" stroke-linecap="round" stroke-linejoin="round"/>
<path d="M64.5145 59.2759C64.5145 59.2759 59.4201 57.8119 59.4201 62.6919C59.4201 67.5719 64.0514 70.7271 64.0514 70.7271H67.2454C67.2454 70.7271 69.0979 75.6071 70.7189 77.5507C72.3399 79.4943 79.9656 84.3743 81.8181 84.8623C83.6706 85.3503 86.2098 85.8383 88.2939 84.6183C90.9123 82.8984 93.3251 80.8532 95.4805 78.5267C96.4067 77.3151 98.0277 69.0275 98.0277 69.0275C98.0277 69.0275 98.4908 54.1603 97.5646 49.0446C96.6383 43.929 90.6256 35.8854 82.2972 34.9094C73.9688 33.9334 66.1035 41.001 64.9537 46.6046C63.8039 52.2082 64.5145 59.2759 64.5145 59.2759Z" fill="#999999" stroke="#263238" stroke-linecap="round" stroke-linejoin="round"/>
<path d="M79.5424 63.1797C79.5424 63.1797 77.9454 66.5873 80.7002 67.5633C83.4551 68.5393 86.9445 68.2953 87.6392 66.8313C88.3339 65.3673 87.1761 63.6677 87.1761 63.6677" stroke="#263238" stroke-linecap="round" stroke-linejoin="round"/>
<path d="M76.7716 69.2715C76.7716 69.2715 82.5528 74.3871 90.418 69.5155" stroke="#263238" stroke-linecap="round" stroke-linejoin="round"/>
<path d="M80.0055 73.8986C80.0055 73.8986 84.8684 76.8267 88.1023 73.4106" stroke="#263238" stroke-linecap="round" stroke-linejoin="round"/>
<path d="M77.2347 60.2517C77.8742 60.2517 78.3926 59.3777 78.3926 58.2997C78.3926 57.2216 77.8742 56.3477 77.2347 56.3477C76.5953 56.3477 76.0769 57.2216 76.0769 58.2997C76.0769 59.3777 76.5953 60.2517 77.2347 60.2517Z" fill="#263238"/>
<path d="M89.7233 58.0559C89.7233 59.1329 89.2042 60.0079 88.5654 60.0079C87.9266 60.0079 87.4076 59.1665 87.4076 58.0559C87.4076 56.9453 87.9266 56.1123 88.5654 56.1123C89.2042 56.1123 89.7233 56.9789 89.7233 58.0559Z" fill="#263238"/>
<path d="M73.9927 55.624C73.9927 55.624 75.1505 53.672 79.5822 54.404" stroke="#263238" stroke-linecap="round" stroke-linejoin="round"/>
<path d="M86.7129 54.6481C86.7129 54.6481 88.797 51.2321 92.0389 54.6481" stroke="#263238" stroke-linecap="round" stroke-linejoin="round"/>
<path d="M97.5886 49.0278C97.2882 47.5806 96.7678 46.1941 96.0475 44.9219C95.7781 46.2708 95.6841 47.6521 95.768 49.0278C96.1034 50.8115 97.2931 53.302 97.2931 54.5473C97.2931 55.7925 97.1175 60.7819 97.9639 60.0752C98.0477 59.9818 98.1153 59.8736 98.1635 59.7554C98.2164 56.1697 98.0242 52.5845 97.5886 49.0278Z" fill="#263238" stroke="#263238" stroke-linecap="round" stroke-linejoin="round"/>
<path d="M85.9623 38.9312C87.4472 38.8483 88.9251 38.6599 90.386 38.3674C88.0268 36.5065 85.2463 35.3288 82.3211 34.9514C73.9927 33.9754 66.1275 41.043 64.9776 46.6466C63.8278 52.2502 64.5145 59.3179 64.5145 59.3179C64.5145 59.3179 66.351 60.6641 67.0298 59.2421C67.7085 57.8202 67.0298 55.498 67.7085 53.0075C68.3872 50.517 69.3933 49.2633 69.561 47.3029C69.7287 45.3425 68.5469 42.4986 69.2257 40.8916C69.9044 39.2845 74.1285 36.264 76.8354 37.3325C79.7478 38.4948 82.8497 39.0382 85.9623 38.9312Z" fill="#263238" stroke="#263238" stroke-linecap="round" stroke-linejoin="round"/>
</svg>
