<svg width="52" height="50" viewBox="0 0 52 50" fill="none" xmlns="http://www.w3.org/2000/svg">
<rect y="11" width="52" height="27" rx="5" fill="white"/>
<g clip-path="url(#clip0_182_16103)">
<path d="M22.2021 31.5987H18.7686L20.9145 18.4105H24.3485L22.2021 31.5987ZM15.88 18.4105L12.6066 27.4815L12.2192 25.5281L12.2196 25.5288L11.0642 19.5979C11.0642 19.5979 10.9245 18.4105 9.43545 18.4105H4.02383L3.96033 18.6338C3.96033 18.6338 5.61521 18.9781 7.55196 20.1412L10.5351 31.5991H14.1126L19.5754 18.4105H15.88ZM42.887 31.5987H46.0397L43.2909 18.4101H40.5308C39.2562 18.4101 38.9457 19.3929 38.9457 19.3929L33.8248 31.5987H37.4041L38.1199 29.6398H42.4848L42.887 31.5987ZM39.1087 26.9336L40.9128 21.9982L41.9278 26.9336H39.1087ZM34.0933 21.5819L34.5833 18.7498C34.5833 18.7498 33.0713 18.1748 31.495 18.1748C29.7911 18.1748 25.7447 18.9195 25.7447 22.5408C25.7447 25.9479 30.4939 25.9903 30.4939 27.7799C30.4939 29.5695 26.2341 29.2489 24.8282 28.1203L24.3178 31.0816C24.3178 31.0816 25.8509 31.8263 28.1934 31.8263C30.5365 31.8263 34.0714 30.6131 34.0714 27.3111C34.0714 23.8821 29.2796 23.5628 29.2796 22.0719C29.2799 20.5808 32.6239 20.7723 34.0933 21.5819Z" fill="#0056D6"/>
<path d="M12.2196 25.5285L11.0642 19.5976C11.0642 19.5976 10.9245 18.4102 9.43545 18.4102H4.02383L3.96033 18.6335C3.96033 18.6335 6.56136 19.1725 9.05621 21.1922C11.4417 23.1226 12.2196 25.5285 12.2196 25.5285Z" fill="#E6A540"/>
</g>
<defs>
<clipPath id="clip0_182_16103">
<rect width="50" height="50" fill="white"/>
</clipPath>
</defs>
</svg>
